<svg width="130" height="175" viewBox="0 0 130 175" fill="none" xmlns="http://www.w3.org/2000/svg">
<path d="M129.91 0H0.910004V175H129.91V0Z" fill="#941A1D"/>
<path d="M111.85 164.72H19.21C14.35 164.72 10.41 160.78 10.41 155.92V16.48C10.41 11.62 14.35 7.67999 19.21 7.67999H111.84C116.7 7.67999 120.64 11.62 120.64 16.48V155.92C120.65 160.78 116.71 164.72 111.85 164.72Z" fill="#FEF7DF"/>
<path d="M65.6 67.43L59 61.36" stroke="black" stroke-miterlimit="10"/>
<path d="M66.41 66.34L73.54 61.12" stroke="black" stroke-miterlimit="10"/>
<path d="M37.32 44.68C39.79 49.79 38.21 69.7 37.42 86.69" stroke="black" stroke-miterlimit="10"/>
<path d="M94.28 64.6L82.1 96.81" stroke="black" stroke-miterlimit="10"/>
<path d="M65.41 37.94L65.54 88.6" stroke="black" stroke-miterlimit="10"/>
<path d="M36.9 55.89L34.48 62.42H28.13L32.52 66.9L31.12 73.43L38.02 68.58L43.43 73.43L42.69 66.15L48.85 64.66L41.2 62.05L36.9 55.89Z" fill="#593E98" stroke="black" stroke-miterlimit="10"/>
<path d="M68.35 62.6L61.61 69.19L53.84 65.52L56.61 73.54L51.12 80.73L62.38 78.78L66.2 87.85L69.5 78.51L77.9 80.25L70.05 72.62L68.35 62.6Z" fill="#593E98" stroke="black" stroke-miterlimit="10"/>
<path d="M21.98 83.03C24.21 78.03 32.64 75.37 39.41 76.34C43.74 76.96 44.04 78.59 50.42 81.36C52.89 82.43 61.23 85.83 70.6 85.96C81.98 86.12 83.8 81.32 90.78 83.03C97.6 84.7 104.57 89.63 105.45 97.67C106.14 103.97 107.54 114.95 111.28 124.02C112.83 127.78 106.14 132.9 102.24 132.8C88.86 122.82 84.58 126.63 72.89 135.31C65.76 140.61 62.1 129.98 51.8 129.87C30.7 129.65 27.35 141.34 25.2 139.07C18.44 131.92 8.44 114.92 15.57 103.93C17.57 100.85 21.4 97.47 21.99 91.38C22.4 87.05 20.74 85.79 21.98 83.03Z" fill="black"/>
<path d="M66.46 41.21C64.13 41.61 60.73 38.15 61.49 34.93C62.04 32.61 64.67 30.72 66.72 31.27C69.13 31.92 69.98 35.76 69.07 38.33C68.97 38.63 68.16 40.92 66.46 41.21Z" fill="black"/>
<path d="M65.51 51.02L72.64 45.8" stroke="black" stroke-miterlimit="10"/>
<path d="M65.41 57.94L58.81 51.87" stroke="black" stroke-miterlimit="10"/>
<path d="M65.51 58.11L72.64 52.89" stroke="black" stroke-miterlimit="10"/>
<path d="M71.84 47.09C70.31 46.14 70.9 41.87 73.56 39.98C75.48 38.61 78.23 38.66 78.95 40.14C79.8 41.88 77.56 45.07 75.27 46.42C75 46.59 72.96 47.79 71.84 47.09Z" fill="black"/>
<path d="M59.64 52.68C58.18 53.86 54.33 52.33 53.5 49.47C52.9 47.41 53.95 44.91 55.62 44.6C57.59 44.23 59.8 47 60.25 49.4C60.31 49.68 60.71 51.82 59.64 52.68Z" fill="black"/>
<path d="M71.01 54.8C69.94 53.08 72.15 49.15 75.38 48.61C77.71 48.23 80.28 49.66 80.38 51.49C80.5 53.65 77.16 55.68 74.48 55.87C74.18 55.89 71.8 56.05 71.01 54.8Z" fill="black"/>
<path d="M60.56 62.82C58.93 64.13 54.67 62.46 53.76 59.3C53.11 57.02 54.28 54.27 56.13 53.91C58.31 53.5 60.77 56.55 61.25 59.19C61.32 59.51 61.75 61.87 60.56 62.82Z" fill="black"/>
<path d="M72.48 61.71C71.77 59.81 74.72 56.4 78 56.52C80.36 56.61 82.59 58.53 82.33 60.34C82.02 62.48 78.34 63.81 75.68 63.45C75.37 63.42 73 63.1 72.48 61.71Z" fill="black"/>
<path d="M37.48 46.25C35.48 46.6 32.55 43.56 33.2 40.73C33.67 38.69 35.94 37.03 37.7 37.51C39.78 38.08 40.51 41.46 39.73 43.72C39.64 43.98 38.95 45.99 37.48 46.25Z" fill="black"/>
<path d="M38.49 53.77L30.73 49.29" stroke="black" stroke-miterlimit="10"/>
<path d="M38.69 54.14L45.83 48.92" stroke="black" stroke-miterlimit="10"/>
<path d="M32.4 49.75C31.32 51.54 26.75 51.44 24.81 48.79C23.41 46.88 23.56 43.89 25.18 42.91C27.09 41.77 30.44 43.79 31.81 46.1C31.97 46.39 33.19 48.45 32.4 49.75Z" fill="black"/>
<path d="M42.75 51.52C41.88 50.2 43.95 47.01 46.8 46.47C48.85 46.08 51.05 47.12 51.07 48.56C51.09 50.26 48.1 51.99 45.75 52.24C45.48 52.27 43.39 52.49 42.75 51.52Z" fill="black"/>
<path d="M95.28 65.09C92.97 64.6 91.08 60.13 92.97 57.42C94.33 55.46 97.48 54.67 99.18 55.94C101.18 57.43 100.56 61.32 98.77 63.37C98.57 63.62 96.97 65.45 95.28 65.09Z" fill="black"/>
<path d="M90.78 73.86L99.34 71.64" stroke="black" stroke-miterlimit="10"/>
<path d="M88.14 80.26L84.25 72.18" stroke="black" stroke-miterlimit="10"/>
<path d="M88.17 80.45L96.73 78.22" stroke="black" stroke-miterlimit="10"/>
<path d="M98.12 72.54C97.05 71.09 99.17 67.34 102.34 66.56C104.63 66 107.17 67.05 107.29 68.69C107.43 70.62 104.18 72.76 101.55 73.18C101.24 73.23 98.9 73.6 98.12 72.54Z" fill="black"/>
<path d="M84.72 73.24C82.93 73.79 79.91 70.96 80.2 68C80.4 65.86 82.29 63.93 83.96 64.25C85.92 64.63 86.97 68.03 86.5 70.42C86.44 70.7 86.03 72.84 84.72 73.24Z" fill="black"/>
<path d="M94.51 79.4C94.15 77.41 97.65 74.56 100.85 75.26C103.16 75.76 105.02 78.04 104.44 79.78C103.76 81.83 99.9 82.49 97.35 81.68C97.06 81.58 94.78 80.86 94.51 79.4Z" fill="black"/>
</svg>
