<svg width="129" height="175" viewBox="0 0 129 175" fill="none" xmlns="http://www.w3.org/2000/svg">
<path d="M129 0H0V175H129V0Z" fill="#941A1D"/>
<path d="M110.79 165.88H18.16C13.3 165.88 9.35999 161.94 9.35999 157.08V17.63C9.35999 12.77 13.3 8.83002 18.16 8.83002H110.79C115.65 8.83002 119.59 12.77 119.59 17.63V157.07C119.59 161.94 115.65 165.88 110.79 165.88Z" fill="#FEF7DF"/>
<mask id="mask0" mask-type="alpha" maskUnits="userSpaceOnUse" x="9" y="8" width="112" height="158">
<path d="M111.33 165.59H18.7C13.84 165.59 9.89999 161.65 9.89999 156.79V17.34C9.89999 12.48 13.84 8.54004 18.7 8.54004H111.33C116.19 8.54004 120.13 12.48 120.13 17.34V156.78C120.13 161.65 116.19 165.59 111.33 165.59Z" fill="#FEF7DF"/>
</mask>
<g mask="url(#mask0)">
<path d="M120.05 174.442H8.89999V93.4519C46.83 83.6519 84.06 81.6419 120.05 93.4519V174.442Z" fill="black"/>
<path d="M47.2 21.6819C44.25 23.3119 37.75 16.8919 36.36 15.5219C34.74 13.9219 33.93 13.1219 34.11 12.7719C34.77 11.4519 48.31 16.6619 48.23 20.2119C48.21 21.0819 47.37 21.5819 47.2 21.6819Z" fill="#FDC010" stroke="black" stroke-miterlimit="10"/>
<path d="M43.17 22.4319C40.2 24.0219 33.79 17.5119 32.42 16.1219C30.82 14.5019 30.03 13.6919 30.2 13.3419C30.87 12.0319 44.35 17.4219 44.22 20.9719C44.2 21.8519 43.35 22.3319 43.17 22.4319Z" fill="#FDC010" stroke="black" stroke-miterlimit="10"/>
<path d="M39.91 23.3419C37.13 25.2519 30.04 19.4919 28.52 18.2619C26.75 16.8319 25.87 16.1119 26.01 15.7419C26.53 14.3619 40.52 18.2219 40.79 21.7719C40.86 22.6419 40.08 23.2219 39.91 23.3419Z" fill="#FDC010" stroke="black" stroke-miterlimit="10"/>
<path d="M36.77 25.7519C34.03 27.7119 26.83 22.0919 25.29 20.8919C23.5 19.4919 22.6 18.7919 22.73 18.4219C23.23 17.0319 37.28 20.6319 37.62 24.1719C37.71 25.0419 36.93 25.6419 36.77 25.7519Z" fill="#FDC010" stroke="black" stroke-miterlimit="10"/>
<path d="M45.63 28.0319C43.79 29.5119 42.6 30.4119 40.75 30.9219C39.38 31.3019 36.55 31.7919 33.44 31.0419C32.07 30.7119 30.94 30.2219 29.17 30.4419C28.89 30.4819 27.9 30.6219 26.73 31.1619C24.2 32.3519 24.25 33.8419 21.98 34.9019C21.35 35.1919 19.61 36.0019 18.08 35.2619C16.9 34.6919 16.43 33.5019 16.13 32.7319C15.91 32.1619 15.05 29.9819 16.13 28.2719C16.92 27.0119 18.36 26.6719 19.79 26.3419C23.19 25.5719 24.24 26.7519 27.35 26.3419C29.43 26.0619 30.81 25.2919 33.45 23.8119C36.51 22.0919 39.13 19.9219 39.67 19.4719C42.03 17.4919 43.07 16.2019 45.03 16.0919C46.04 16.0419 46.71 16.3319 47.22 15.8519C48.21 14.9319 46.96 12.7619 47.95 11.8719C48.47 11.4019 49.29 11.5719 49.78 11.6319C54.09 12.1819 57.4 8.12187 58.8 9.10187C59.94 9.90187 58.97 13.4619 57.82 15.9719C56.23 19.4719 52.68 22.3719 45.63 28.0319Z" fill="#FDC010" stroke="black" stroke-miterlimit="10"/>
<path d="M52.38 17.9819C49.42 18.8419 43.19 26.7319 42.92 26.7819C41.59 27.0219 54.97 22.9519 55.17 20.3419C55.27 19.1219 53.55 17.6419 52.38 17.9819Z" fill="#E72C25" stroke="black" stroke-miterlimit="10"/>
<path d="M54.22 25.6018C51.21 25.0118 42.42 28.1018 42.15 28.0318C40.85 27.6618 54.53 30.2118 55.78 28.4218C56.35 27.5918 55.4 25.8318 54.22 25.6018Z" fill="#E72C25" stroke="black" stroke-miterlimit="10"/>
<path d="M54.34 22.2619C51.26 22.1919 43.08 26.8219 42.8 26.7919C41.45 26.6519 55.43 26.8219 56.36 24.8119C56.79 23.8819 55.55 22.2819 54.34 22.2619Z" fill="#E72C25" stroke="black" stroke-miterlimit="10"/>
<path d="M55.36 30.5819C53.29 29.2119 45.13 29.5719 44.95 29.4219C44.11 28.7219 53.55 34.8519 55.31 33.5719C56.13 32.9919 56.18 31.1219 55.36 30.5819Z" fill="#E72C25" stroke="black" stroke-miterlimit="10"/>
<path d="M56.12 34.9819C54.45 33.3519 46.79 32.2819 46.66 32.1119C46.01 31.3219 53.66 38.6419 55.53 37.7519C56.38 37.3519 56.77 35.6219 56.12 34.9819Z" fill="#E72C25" stroke="black" stroke-miterlimit="10"/>
<path d="M40.03 28.0619C44.91 31.0919 48.74 34.8119 54.8 42.3619C55.28 44.3619 49.11 23.9719 44.48 23.7219C42.33 23.6119 39.55 26.2819 40.03 28.0619Z" fill="#FDC010" stroke="black" stroke-miterlimit="10"/>
<path d="M39.46 27.1219C43.94 29.6619 47.54 32.9119 53.31 39.6419C53.85 41.4919 47.27 22.7219 43.16 22.7819C41.25 22.7919 38.94 25.4719 39.46 27.1219Z" fill="#FDC010"/>
<path d="M19.28 30.2719C19.5285 30.2719 19.73 30.0704 19.73 29.8219C19.73 29.5734 19.5285 29.3719 19.28 29.3719C19.0315 29.3719 18.83 29.5734 18.83 29.8219C18.83 30.0704 19.0315 30.2719 19.28 30.2719Z" fill="black"/>
<path d="M10.23 36.5919L15.66 32.4419C15.71 32.4019 15.79 32.4219 15.82 32.4819L16.96 34.7419C16.99 34.8019 16.96 34.8719 16.89 34.8919L10.32 36.7819C10.21 36.8119 10.13 36.6619 10.23 36.5919Z" fill="#FDC010" stroke="black" stroke-miterlimit="10"/>
<path d="M50.33 14.7219L50.43 14.7319C50.61 14.7419 50.77 14.6119 50.78 14.4319L50.98 11.8119C50.99 11.6319 50.86 11.4719 50.68 11.4619L50.58 11.4519C50.4 11.4419 50.24 11.5719 50.23 11.7519L50.03 14.3719C50.02 14.5519 50.16 14.7119 50.33 14.7219Z" fill="black"/>
<path d="M52.67 14.4218L52.77 14.4318C52.95 14.4418 53.11 14.3118 53.12 14.1318L53.32 11.5118C53.33 11.3318 53.2 11.1718 53.02 11.1618L52.92 11.1518C52.74 11.1418 52.58 11.2718 52.57 11.4518L52.37 14.0718C52.36 14.2518 52.5 14.4118 52.67 14.4218Z" fill="black"/>
<path d="M54.86 16.4519C55.07 16.4719 55.25 16.3119 55.27 16.1019C55.86 14.4119 56.02 12.6619 55.67 10.8619C55.69 10.6519 55.53 10.4719 55.32 10.4519C55.11 10.4319 54.93 10.5919 54.91 10.8019C55.28 12.5619 55.15 14.3019 54.51 16.0419C54.5 16.2519 54.65 16.4319 54.86 16.4519Z" fill="black"/>
<path d="M31.06 19.6319C30.95 19.4619 30.73 19.3919 30.58 19.4919C29.09 19.9119 27.83 20.6919 26.83 21.9219C26.68 22.0219 26.65 22.2419 26.77 22.4119C26.88 22.5819 27.1 22.6519 27.25 22.5519C28.21 21.3319 29.45 20.5119 31 20.1219C31.15 20.0219 31.18 19.8019 31.06 19.6319Z" fill="black"/>
<path d="M35.28 17.6118C35.17 17.4418 34.96 17.3718 34.82 17.4618C33.41 17.8218 32.22 18.5618 31.31 19.7318C31.17 19.8218 31.15 20.0418 31.26 20.2118C31.37 20.3818 31.58 20.4518 31.72 20.3618C32.6 19.1918 33.77 18.4218 35.23 18.0918C35.37 18.0018 35.39 17.7818 35.28 17.6118Z" fill="black"/>
<path d="M38.61 16.1219C38.53 16.0019 38.4 15.9419 38.32 15.9919C37.46 16.1619 36.77 16.5919 36.26 17.3219C36.18 17.3719 36.18 17.5219 36.26 17.6419C36.34 17.7619 36.47 17.8219 36.55 17.7719C37.03 17.0319 37.71 16.5919 38.61 16.4419C38.68 16.3919 38.69 16.2419 38.61 16.1219Z" fill="black"/>
<path d="M38.85 64.7919C37.34 66.8819 36.29 68.9619 35.02 72.4119C34.91 72.7219 35.39 73.0019 35.52 72.7119C36.37 70.8319 38.39 67.8119 41.36 66.0819C41.53 65.9819 41.47 65.7219 41.3 65.6319C40.49 65.2019 39.62 64.3219 38.97 64.6819C38.92 64.7119 38.88 64.7519 38.85 64.7919Z" fill="#86A89A" stroke="black" stroke-miterlimit="10"/>
<path d="M48.94 55.3919C45.55 54.0419 42.28 53.3419 36.96 52.8519C36.48 52.8119 36.24 53.4419 36.65 53.6819C39.32 55.2419 44.07 57.4218 47.65 59.4618C47.89 59.6018 48.2 59.4719 48.29 59.2019C48.73 57.8819 49.81 56.3119 49.13 55.5119C49.08 55.4619 49.01 55.4219 48.94 55.3919Z" fill="#FDC010" stroke="black" stroke-miterlimit="10"/>
<path d="M46.64 57.4018C43.27 56.0018 40.01 55.2618 34.69 54.6918C34.21 54.6418 33.96 55.2718 34.36 55.5218C37.01 57.1218 41.73 59.3718 45.28 61.4618C45.52 61.6018 45.83 61.4818 45.92 61.2118C46.38 59.9018 47.48 58.3418 46.81 57.5318C46.78 57.4718 46.71 57.4318 46.64 57.4018Z" fill="#FDC010" stroke="black" stroke-miterlimit="10"/>
<path d="M52.52 54.1618C49.18 52.6718 45.95 51.8518 40.65 51.1518C40.17 51.0918 39.91 51.7218 40.3 51.9718C42.91 53.6418 47.57 56.0018 51.07 58.1818C51.3 58.3318 51.62 58.2218 51.72 57.9518C52.21 56.6518 53.35 55.1218 52.71 54.3018C52.66 54.2318 52.59 54.1918 52.52 54.1618Z" fill="#FDC010" stroke="black" stroke-miterlimit="10"/>
<path d="M55.64 53.0819C52.3 51.5919 49.07 50.7719 43.77 50.0719C43.29 50.0119 43.03 50.6419 43.42 50.8919C46.03 52.5619 50.69 54.9219 54.19 57.1019C54.42 57.2519 54.74 57.1419 54.84 56.8719C55.33 55.5719 56.47 54.0419 55.83 53.2219C55.78 53.1519 55.71 53.1119 55.64 53.0819Z" fill="#FDC010" stroke="black" stroke-miterlimit="10"/>
<path d="M59.98 52.3219C56.64 50.8319 53.41 50.0119 48.11 49.3119C47.63 49.2519 47.37 49.8819 47.76 50.1319C50.37 51.8019 55.03 54.1619 58.53 56.3419C58.76 56.4919 59.08 56.3819 59.18 56.1119C59.67 54.8119 60.81 53.2819 60.17 52.4619C60.11 52.3919 60.04 52.3519 59.98 52.3219Z" fill="#FDC010" stroke="black" stroke-miterlimit="10"/>
<path d="M59.72 57.2719C58.93 58.4419 57.97 58.7919 56.86 59.1819C56.04 59.4719 54.33 59.8719 52.4 59.5719C51.55 59.4419 50.84 59.2019 49.77 59.4019C49.6 59.4319 49 59.5619 48.31 59.9319C46.82 60.7419 46.91 61.6119 45.56 62.3319C45.19 62.5319 44.16 63.0819 43.19 62.7119C42.45 62.4319 42.11 61.7519 41.89 61.3119C41.73 60.9919 41.12 59.7419 41.7 58.7019C42.13 57.9319 42.99 57.6619 43.85 57.4119C45.89 56.8119 46.58 57.4619 48.47 57.0819C54.18 50.1819 55.46 50.4419 58.84 50.3019C59.45 50.2319 60.17 50.0619 60.17 50.0619C60.17 50.0619 61.75 54.2519 59.72 57.2719Z" fill="#E72C25" stroke="black" stroke-miterlimit="10"/>
<path d="M67.97 60.2119C66.55 62.1019 64.94 62.5919 63.09 63.1019C61.72 63.4819 58.89 63.9719 55.78 63.2219C54.41 62.8919 53.28 62.4019 51.51 62.6219C51.23 62.6619 50.24 62.8019 49.07 63.3419C46.54 64.5319 46.59 66.0219 44.32 67.0819C43.69 67.3719 41.95 68.1819 40.42 67.4419C39.24 66.8719 38.77 65.6819 38.47 64.9119C38.25 64.3419 37.39 62.1619 38.47 60.4519C39.26 59.1919 40.7 58.8519 42.13 58.5219C45.53 57.7519 46.58 58.9319 49.69 58.5219C59.8 47.5019 61.86 48.1019 67.37 48.2719C68.38 48.2219 69.05 48.5119 69.56 48.0319C70.55 47.1119 69.3 44.9419 70.29 44.0519C70.81 43.5819 71.63 43.7519 72.12 43.8119C76.43 44.3619 79.74 40.3019 81.14 41.2819C82.28 42.0819 82.03 46.1219 80.16 48.1519C76.54 52.1119 71.64 55.3219 67.97 60.2119Z" fill="#E72C25" stroke="black" stroke-miterlimit="10"/>
<path d="M58.7 59.1019C59.23 60.6419 62.23 59.5819 66.35 62.2319C69.56 64.3019 68.79 65.6319 71.2 66.7519C75.23 68.6319 78.1 65.2819 83.83 66.8819C86.65 67.6719 88.29 69.1219 88.44 68.9219C88.68 68.5919 83.09 66.3219 78.65 60.7319C77.57 59.3719 75.11 55.9919 71.09 52.8119C70.6 52.4219 70.13 52.0719 69.4 51.8519C64.83 50.4519 57.83 56.5819 58.7 59.1019Z" fill="#E72C25" stroke="black" stroke-miterlimit="10"/>
<path d="M41.24 63.8919C41.5935 63.8919 41.88 63.6053 41.88 63.2519C41.88 62.8984 41.5935 62.6119 41.24 62.6119C40.8865 62.6119 40.6 62.8984 40.6 63.2519C40.6 63.6053 40.8865 63.8919 41.24 63.8919Z" fill="black"/>
<path d="M75.01 41.1319C75.23 43.3619 75.1 45.6219 73.92 49.5319C73.82 49.8519 74.26 49.9219 74.52 49.7319C76.41 48.3419 78.11 45.2219 77.93 41.9419C77.92 41.7519 77.91 41.5619 77.71 41.5019C76.76 41.2219 75.6 40.5119 75.08 40.9919C75.05 41.0319 75 41.0819 75.01 41.1319Z" fill="#E72C25" stroke="black" stroke-miterlimit="10"/>
<path d="M64.13 58.0919C67.07 55.8719 70.19 54.6619 73.54 54.8219" stroke="black" stroke-miterlimit="10"/>
<path d="M67.59 60.4219C70.44 58.4819 73.27 57.3919 76.08 57.5919" stroke="black" stroke-miterlimit="10"/>
<path d="M71.38 62.6419C72.58 61.1219 77.19 59.9919 78.05 60.3019" stroke="black" stroke-miterlimit="10"/>
<path d="M73.9 63.9419C76.56 63.4119 79.09 63.3419 81.46 63.8919" stroke="black" stroke-miterlimit="10"/>
<path d="M67.6389 49.2029L55.9133 55.9729L57.9033 59.4196L69.6289 52.6496L67.6389 49.2029Z" fill="#E72C25"/>
<path d="M80.5 41.4619C80.92 43.9519 80.09 46.1619 78.08 48.0319" stroke="black" stroke-miterlimit="10"/>
<path d="M72.99 43.9119C72.75 45.5119 72.23 46.9919 71.38 48.2819" stroke="black" stroke-miterlimit="10"/>
<path d="M74.72 51.2019L72.14 50.0719C71.85 49.9419 71.71 49.6019 71.84 49.3119L72.5 47.8119C72.63 47.5219 72.97 47.3819 73.26 47.5119L75.84 48.6419C76.13 48.7719 76.27 49.1119 76.14 49.4019L75.48 50.9019C75.35 51.1919 75.01 51.3319 74.72 51.2019Z" fill="#E72C25"/>
<path d="M68.35 33.7219C67.33 36.0919 66.76 38.3419 66.26 41.9919C66.22 42.3219 66.75 42.4919 66.82 42.1719C67.24 40.1519 68.56 36.7719 71.08 34.4419C71.23 34.3119 71.11 34.0719 70.92 34.0219C70.04 33.7719 69 33.1119 68.44 33.6019C68.4 33.6319 68.37 33.6719 68.35 33.7219Z" fill="#86A89A" stroke="black" stroke-miterlimit="10"/>
<path d="M76.16 22.3619C72.55 21.7719 69.22 21.8119 63.91 22.4819C63.43 22.5419 63.33 23.2219 63.78 23.3619C66.73 24.3119 71.84 25.4019 75.78 26.6219C76.04 26.7019 76.32 26.5219 76.35 26.2319C76.49 24.8519 77.2 23.0819 76.37 22.4419C76.31 22.4019 76.23 22.3719 76.16 22.3619Z" fill="#FDC010" stroke="black" stroke-miterlimit="10"/>
<path d="M74.35 24.8219C70.75 24.1819 67.41 24.1719 62.1 24.7619C61.62 24.8119 61.51 25.4919 61.96 25.6419C64.89 26.6319 69.99 27.8019 73.91 29.0719C74.17 29.1619 74.45 28.9719 74.48 28.6919C74.64 27.3119 75.38 25.5519 74.55 24.9119C74.5 24.8619 74.42 24.8319 74.35 24.8219Z" fill="#FDC010" stroke="black" stroke-miterlimit="10"/>
<path d="M79.39 20.3819C75.81 19.6519 72.47 19.5519 67.15 20.0119C66.67 20.0519 66.55 20.7219 66.99 20.8919C69.9 21.9519 74.96 23.2519 78.85 24.6219C79.11 24.7119 79.39 24.5419 79.43 24.2519C79.63 22.8719 80.41 21.1419 79.6 20.4719C79.54 20.4219 79.46 20.3919 79.39 20.3819Z" fill="#FDC010" stroke="black" stroke-miterlimit="10"/>
<path d="M82.2 18.6519C78.62 17.9219 75.28 17.8219 69.96 18.2819C69.48 18.3219 69.36 18.9919 69.8 19.1619C72.71 20.2219 77.77 21.5219 81.66 22.8919C81.92 22.9819 82.2 22.8119 82.24 22.5219C82.44 21.1419 83.22 19.4119 82.41 18.7419C82.35 18.6919 82.27 18.6619 82.2 18.6519Z" fill="#FDC010" stroke="black" stroke-miterlimit="10"/>
<path d="M86.26 16.9718C82.68 16.2418 79.34 16.1418 74.02 16.6018C73.54 16.6418 73.42 17.3118 73.86 17.4818C76.77 18.5418 81.83 19.8418 85.72 21.2118C85.98 21.3018 86.26 21.1318 86.3 20.8418C86.5 19.4618 87.28 17.7318 86.47 17.0618C86.41 17.0118 86.34 16.9818 86.26 16.9718Z" fill="#FDC010" stroke="black" stroke-miterlimit="10"/>
<path d="M87.09 21.8519C86.58 23.1619 85.71 23.7219 84.72 24.3319C83.98 24.7919 82.4 25.5519 80.45 25.6819C79.59 25.7419 78.85 25.6519 77.85 26.0919C77.69 26.1619 77.13 26.4119 76.54 26.9219C75.26 28.0319 75.54 28.8619 74.38 29.8619C74.06 30.1319 73.18 30.8919 72.15 30.7519C71.36 30.6419 70.89 30.0519 70.58 29.6719C70.35 29.3919 69.48 28.3119 69.83 27.1619C70.09 26.3119 70.87 25.8719 71.65 25.4319C73.52 24.4019 74.33 24.8819 76.08 24.1119C80.16 16.1319 81.47 16.1119 84.73 15.2419C85.31 15.0319 85.98 14.7219 85.98 14.7219C85.98 14.7219 88.42 18.4619 87.09 21.8519Z" fill="#FDC010" stroke="black" stroke-miterlimit="10"/>
<path d="M95.78 22.9319C94.81 25.0819 88.3 27.2219 84.53 28.5219C77.56 29.9119 77.56 29.9119 74.18 34.7719C73.63 35.1919 72.11 36.3519 70.45 35.9719C69.18 35.6719 68.46 34.6119 68 33.9219C67.66 33.4119 66.35 31.4619 67.03 29.5719C67.53 28.1719 68.86 27.5219 70.18 26.8919C73.33 25.4019 74.61 26.3319 77.56 25.2519C85.04 12.3019 87.18 12.4419 92.59 11.4119C93.56 11.1419 94.28 11.2819 94.68 10.7019C95.45 9.59187 93.76 7.74187 94.53 6.66187C94.94 6.09187 95.77 6.07187 96.26 6.03187C100.58 5.63187 102.94 0.951871 104.52 1.60187C105.81 2.13187 106.43 6.13187 105.06 8.52187C102.39 13.1719 98.3 17.3719 95.78 22.9319Z" fill="#FDC010" stroke="black" stroke-miterlimit="10"/>
<path d="M81.85 24.1819C95.57 27.9319 98.28 30.7419 105.73 35.2319C108.28 36.6619 109.85 38.0519 110.02 37.8719C110.3 37.5819 105.06 34.5819 101.4 28.4519C100.51 26.9519 98.52 23.2819 94.96 19.5919C94.52 19.1419 94.1 18.7319 93.41 18.4119C89.08 16.4219 81.33 21.5619 81.85 24.1819Z" fill="#FDC010" stroke="black" stroke-miterlimit="10"/>
<path d="M70.35 32.3419C70.7034 32.3419 70.99 32.0554 70.99 31.7019C70.99 31.3484 70.7034 31.0619 70.35 31.0619C69.9965 31.0619 69.71 31.3484 69.71 31.7019C69.71 32.0554 69.9965 32.3419 70.35 32.3419Z" fill="black"/>
<path d="M98.51 2.78186C99.21 4.91186 99.57 7.14186 99.27 11.2219C99.25 11.5519 99.69 11.5319 99.9 11.2919C101.44 9.53186 102.43 6.11186 101.54 2.94186C101.49 2.75186 101.44 2.57186 101.23 2.56186C100.24 2.49186 98.96 2.05186 98.55 2.64186C98.53 2.68186 98.5 2.73186 98.51 2.78186Z" fill="#FDC010" stroke="black" stroke-miterlimit="10"/>
<path d="M88.02 22.9519C90.75 21.6819 93.46 20.9419 96.16 20.9219" stroke="black" stroke-miterlimit="10"/>
<path d="M91.94 25.3218C94.57 24.5318 96.99 24.3018 99.13 24.8918" stroke="black" stroke-miterlimit="10"/>
<path d="M96.68 27.6719C97.6 27.3519 100.35 27.1218 100.78 27.1818" stroke="black" stroke-miterlimit="10"/>
<path d="M99.84 30.6719C101.03 30.2219 102.09 30.3019 102.98 31.1119" stroke="black" stroke-miterlimit="10"/>
<path d="M82.36 23.8019C83.68 20.1419 86.58 17.8419 91.3 17.1119" stroke="#FDC010" stroke-width="2.6" stroke-miterlimit="10"/>
<path d="M103.95 1.92188C104.9 4.26187 104.57 6.60188 103.01 8.85188" stroke="black" stroke-miterlimit="10"/>
<path d="M97.15 5.94189C97.26 7.56189 97.08 9.1119 96.53 10.5519" stroke="black" stroke-miterlimit="10"/>
<path d="M100.41 12.6819L97.65 12.1419C97.34 12.0819 97.13 11.7719 97.19 11.4619L97.51 9.8519C97.57 9.5419 97.88 9.3319 98.19 9.3919L100.95 9.9319C101.26 9.9919 101.47 10.3019 101.41 10.6119L101.09 12.2219C101.03 12.5319 100.73 12.7419 100.41 12.6819Z" fill="#FDC010"/>
</g>
</svg>
