<svg width="129" height="175" viewBox="0 0 129 175" fill="none" xmlns="http://www.w3.org/2000/svg">
<path d="M129 0H0V175H129V0Z" fill="#941A1D"/>
<path d="M110.82 164.47H18.18C13.32 164.47 9.38 160.53 9.38 155.67V16.23C9.38 11.37 13.32 7.42999 18.18 7.42999H110.81C115.67 7.42999 119.61 11.37 119.61 16.23V155.67C119.62 160.53 115.68 164.47 110.82 164.47Z" fill="#941A1D" stroke="black" stroke-miterlimit="10"/>
<path d="M64.5 74.77C81.3833 74.77 95.07 61.0834 95.07 44.2C95.07 27.3167 81.3833 13.63 64.5 13.63C47.6167 13.63 33.93 27.3167 33.93 44.2C33.93 61.0834 47.6167 74.77 64.5 74.77Z" fill="#FEF7DF"/>
<mask id="mask0" mask-type="alpha" maskUnits="userSpaceOnUse" x="8" y="6" width="113" height="159">
<path d="M110.82 164.47H18.18C13.32 164.47 9.38 160.53 9.38 155.67V16.23C9.38 11.37 13.32 7.42999 18.18 7.42999H110.81C115.67 7.42999 119.61 11.37 119.61 16.23V155.67C119.62 160.53 115.68 164.47 110.82 164.47Z" fill="#941A1D" stroke="black" stroke-miterlimit="10"/>
</mask>
<g mask="url(#mask0)">
<path d="M120.07 164.47H8.92999V83.48C46.86 73.68 84.09 71.67 120.08 83.48V164.47H120.07Z" fill="black"/>
</g>
<path d="M95.07 153.32C103.354 153.32 110.07 146.604 110.07 138.32C110.07 130.036 103.354 123.32 95.07 123.32C86.7857 123.32 80.07 130.036 80.07 138.32C80.07 146.604 86.7857 153.32 95.07 153.32Z" fill="#941A1D" stroke="black" stroke-miterlimit="10"/>
</svg>
