<svg width="129" height="175" viewBox="0 0 129 175" fill="none" xmlns="http://www.w3.org/2000/svg">
<path d="M129 0H0V175H129V0Z" fill="#941A1D"/>
<mask id="mask0" mask-type="alpha" maskUnits="userSpaceOnUse" x="10" y="8" width="111" height="158">
<path d="M111.786 165.87H19.1564C14.2964 165.87 10.3564 161.93 10.3564 157.07V17.63C10.3564 12.77 14.2964 8.83002 19.1564 8.83002H111.786C116.646 8.83002 120.586 12.77 120.586 17.63V157.07C120.586 161.93 116.646 165.87 111.786 165.87Z" fill="#FEF7DF"/>
</mask>
<g mask="url(#mask0)">
<path d="M111.786 166.87H19.1564C14.2964 166.87 10.3564 162.93 10.3564 158.07V18.63C10.3564 13.77 14.2964 9.83002 19.1564 9.83002H111.786C116.646 9.83002 120.586 13.77 120.586 18.63V158.07C120.586 162.93 116.646 166.87 111.786 166.87Z" fill="#FEF7DF"/>
<path d="M75.21 173.75C66.11 160.89 66.7 137.29 74.82 131.39C79.1 128.27 82.25 132.44 87.38 129.61C96.47 124.6 93.14 107.97 101.12 87.69C102.51 84.15 111.15 62.21 119.18 62.72C134.64 63.69 160.65 148.63 130.96 176.43C116.19 190.26 87.06 190.5 75.21 173.75Z" fill="black" stroke="black" stroke-miterlimit="10"/>
<path d="M105.63 56.23C133.614 56.23 156.3 34.6501 156.3 8.03002C156.3 -18.5901 133.614 -40.17 105.63 -40.17C77.6457 -40.17 54.96 -18.5901 54.96 8.03002C54.96 34.6501 77.6457 56.23 105.63 56.23Z" fill="#941A1D" stroke="black" stroke-miterlimit="10"/>
<path d="M9.78 83.96C13.71 82.56 19.01 90.76 21.44 96.75C24.62 104.6 26.35 117.31 26.56 118.88C27.29 124.38 27.55 129 28.55 129.21C30.1 129.53 30.97 118.76 34.52 117.41C36.15 116.79 37.63 118.4 38.5 119.38C45.42 127.11 56.95 160.24 49.59 175.94C48.71 177.82 46.96 180.73 41.35 183.32C37.7 185 18.05 194.07 6.1 175.45C-10.8 149.14 0.369999 87.31 9.78 83.96Z" fill="black" stroke="black" stroke-miterlimit="10"/>
<path d="M101.64 160.33C109.488 160.33 115.85 154.277 115.85 146.81C115.85 139.343 109.488 133.29 101.64 133.29C93.792 133.29 87.43 139.343 87.43 146.81C87.43 154.277 93.792 160.33 101.64 160.33Z" fill="#941A1D" stroke="black" stroke-miterlimit="10"/>
</g>
<path d="M16.78 80.33L12.71 85.27" stroke="black" stroke-miterlimit="10"/>
<path d="M18.24 81.52L13.71 88.38" stroke="black" stroke-miterlimit="10"/>
<path d="M20.97 83.53L14.74 88.9" stroke="black" stroke-miterlimit="10"/>
<path d="M22.47 85.38L16.85 91.37" stroke="black" stroke-miterlimit="10"/>
<path d="M24.1 87.5L18.6 93.61" stroke="black" stroke-miterlimit="10"/>
<path d="M25.85 90.41L19.28 95.35" stroke="black" stroke-miterlimit="10"/>
<path d="M36.21 121.37C37.9 121.37 39.27 118.755 39.27 115.53C39.27 112.305 37.9 109.69 36.21 109.69C34.52 109.69 33.15 112.305 33.15 115.53C33.15 118.755 34.52 121.37 36.21 121.37Z" fill="#FDC010" stroke="black" stroke-miterlimit="10"/>
<path d="M117.792 68.8677C119.479 68.7793 120.711 66.0966 120.542 62.8758C120.373 59.655 118.868 57.1157 117.181 57.204C115.493 57.2924 114.262 59.9751 114.43 63.1959C114.599 66.4167 116.104 68.9561 117.792 68.8677Z" fill="#FDC010" stroke="black" stroke-miterlimit="10"/>
<path d="M26.93 92.92L20.24 97.68" stroke="black" stroke-miterlimit="10"/>
<path d="M27.46 95.75L20.46 100.07" stroke="black" stroke-miterlimit="10"/>
<path d="M28.75 98.62L21.25 101.97" stroke="black" stroke-miterlimit="10"/>
<path d="M30.19 101.45L22.3 103.77" stroke="black" stroke-miterlimit="10"/>
<path d="M30.62 103.52L23.04 106.71" stroke="black" stroke-miterlimit="10"/>
<path d="M30.74 106.5L23.32 110.03" stroke="black" stroke-miterlimit="10"/>
<path d="M31.23 108.69L23.85 112.32" stroke="black" stroke-miterlimit="10"/>
<path d="M31.26 112.02L23.65 115.11" stroke="black" stroke-miterlimit="10"/>
<path d="M31.76 114.26L24.51 118.14" stroke="black" stroke-miterlimit="10"/>
<path d="M32.23 116.23L25.59 121.08" stroke="black" stroke-miterlimit="10"/>
<path d="M12.71 78.03L11.95 86.21" stroke="black" stroke-miterlimit="10"/>
<path d="M43.73 117.1L38 122.99" stroke="black" stroke-miterlimit="10"/>
<path d="M53.07 137.44L46.08 141.76" stroke="black" stroke-miterlimit="10"/>
<path d="M54.36 140.31L46.86 143.66" stroke="black" stroke-miterlimit="10"/>
<path d="M55.8 143.14L47.91 145.46" stroke="black" stroke-miterlimit="10"/>
<path d="M56.23 145.21L48.65 148.4" stroke="black" stroke-miterlimit="10"/>
<path d="M56.35 148.19L48.93 151.72" stroke="black" stroke-miterlimit="10"/>
<path d="M56.84 150.38L49.47 154.01" stroke="black" stroke-miterlimit="10"/>
<path d="M56.87 153.71L49.26 156.8" stroke="black" stroke-miterlimit="10"/>
<path d="M57.37 155.95L50.12 159.83" stroke="black" stroke-miterlimit="10"/>
<path d="M57.4 158.44L50.09 162.2" stroke="black" stroke-miterlimit="10"/>
<path d="M45.69 119.57L39.22 124.64" stroke="black" stroke-miterlimit="10"/>
<path d="M47.77 121.97L40.68 126.13" stroke="black" stroke-miterlimit="10"/>
<path d="M48.69 123.87L42.11 128.8" stroke="black" stroke-miterlimit="10"/>
<path d="M49.53 126.73L43.18 131.96" stroke="black" stroke-miterlimit="10"/>
<path d="M50.53 128.74L44.26 134.05" stroke="black" stroke-miterlimit="10"/>
<path d="M51.37 131.96L44.73 136.81" stroke="black" stroke-miterlimit="10"/>
<path d="M52.39 134.02L46.3 139.54" stroke="black" stroke-miterlimit="10"/>
<path d="M58.87 162.77L50.69 163.58" stroke="black" stroke-miterlimit="10"/>
<path d="M96.48 82.21L104.64 83.2" stroke="black" stroke-miterlimit="10"/>
<path d="M97.26 79.16L105.22 81.23" stroke="black" stroke-miterlimit="10"/>
<path d="M97.91 76.05L105.51 79.16" stroke="black" stroke-miterlimit="10"/>
<path d="M98.86 74.17L106.77 76.4" stroke="black" stroke-miterlimit="10"/>
<path d="M100.62 71.77L108.63 73.64" stroke="black" stroke-miterlimit="10"/>
<path d="M101.61 69.75L109.64 71.51" stroke="black" stroke-miterlimit="10"/>
<path d="M103.66 67.13L111.54 69.46" stroke="black" stroke-miterlimit="10"/>
<path d="M104.68 65.06L112.76 66.56" stroke="black" stroke-miterlimit="10"/>
<path d="M106.2 63.1L114.26 64.73" stroke="black" stroke-miterlimit="10"/>
<path d="M91.1 100.78L99.32 100.86" stroke="black" stroke-miterlimit="10"/>
<path d="M90.97 97.61L99.1 98.78" stroke="black" stroke-miterlimit="10"/>
<path d="M91.44 95.55L99.65 95.8" stroke="black" stroke-miterlimit="10"/>
<path d="M92.56 92.79L100.78 92.67" stroke="black" stroke-miterlimit="10"/>
<path d="M93.03 90.59L101.25 90.36" stroke="black" stroke-miterlimit="10"/>
<path d="M94.39 87.56L102.6 87.91" stroke="black" stroke-miterlimit="10"/>
<path d="M94.87 85.31L103.08 84.79" stroke="black" stroke-miterlimit="10"/>
<path d="M107.76 58.8L114.65 63.27" stroke="black" stroke-miterlimit="10"/>
<path d="M76.42 124.86L82.12 131.75" stroke="black" stroke-miterlimit="10"/>
<path d="M79.92 125.17L86.46 131.43" stroke="black" stroke-miterlimit="10"/>
<path d="M82.7 123.25L88.97 129.91" stroke="black" stroke-miterlimit="10"/>
<path d="M86.93 118.84L95.18 119.42" stroke="black" stroke-miterlimit="10"/>
<path d="M87.49 116.42L95.74 116.89" stroke="black" stroke-miterlimit="10"/>
<path d="M88.96 113.16L97.19 114.28" stroke="black" stroke-miterlimit="10"/>
<path d="M89.54 110.69L97.79 110.85" stroke="black" stroke-miterlimit="10"/>
<path d="M90.64 108.25L98.89 108.55" stroke="black" stroke-miterlimit="10"/>
<path d="M66.97 131.96L73.43 137.96" stroke="black" stroke-miterlimit="10"/>
<path d="M67.89 128.44L74.41 134.35" stroke="black" stroke-miterlimit="10"/>
<path d="M90.94 104.3L99.33 105.79" stroke="black" stroke-miterlimit="10"/>
<path d="M64.36 142.72L72.5 144.09" stroke="black" stroke-miterlimit="10"/>
<path d="M64.72 139.41L72.64 141.98" stroke="black" stroke-miterlimit="10"/>
<path d="M65.91 135.34L72.99 139.92" stroke="black" stroke-miterlimit="10"/>
<path d="M63.9 154.49L71.68 157.15" stroke="black" stroke-miterlimit="10"/>
<path d="M64.43 151.48L72.43 153.38" stroke="black" stroke-miterlimit="10"/>
<path d="M63.9 149.29L72.11 149.95" stroke="black" stroke-miterlimit="10"/>
<path d="M64.43 146.47L72.64 146.16" stroke="black" stroke-miterlimit="10"/>
<path d="M64.4 163.23L72.67 163.92" stroke="black" stroke-miterlimit="10"/>
<path d="M63.25 159.83L71.35 161.35" stroke="black" stroke-miterlimit="10"/>
<path d="M63.59 157.7L71.68 159.18" stroke="black" stroke-miterlimit="10"/>
<path d="M85.62 122.45L91.18 128.6" stroke="black" stroke-miterlimit="10"/>
<path d="M77.4229 134.35C79.0479 133.886 79.6471 130.996 78.7615 127.895C77.8758 124.794 75.8405 122.656 74.2156 123.12C72.5907 123.584 71.9914 126.474 72.8771 129.575C73.7628 132.677 75.798 134.814 77.4229 134.35Z" fill="#FDC010" stroke="black" stroke-miterlimit="10"/>
<path d="M84.51 121.15L92.74 122.16" stroke="black" stroke-miterlimit="10"/>
</svg>
