<svg width="129" height="176" viewBox="0 0 129 176" fill="none" xmlns="http://www.w3.org/2000/svg">
<path d="M129 0.950012H0V175.95H129V0.950012Z" fill="#941A1D"/>
<path d="M110.18 166.98H17.55C12.69 166.98 8.75 163.04 8.75 158.18V18.73C8.75 13.87 12.69 9.92999 17.55 9.92999H110.18C115.04 9.92999 118.98 13.87 118.98 18.73V158.17C118.98 163.03 115.04 166.98 110.18 166.98Z" fill="#FEF7DF"/>
<mask id="mask0" mask-type="alpha" maskUnits="userSpaceOnUse" x="9" y="11" width="111" height="158">
<path d="M110.94 168.28H18.31C13.45 168.28 9.51 164.34 9.51 159.48V20.04C9.51 15.18 13.45 11.24 18.31 11.24H110.94C115.8 11.24 119.74 15.18 119.74 20.04V159.48C119.74 164.34 115.8 168.28 110.94 168.28Z" fill="#FEF7DF"/>
</mask>
<g mask="url(#mask0)">
<path d="M21.62 86.59C17.01 93.99 9.35001 97.76 -0.329994 99.14C2.41001 88.96 6.10001 80.48 12.24 76.44C0.0900059 77.96 -4.69999 80.69 -15.83 72.04C-10.69 64.29 -2.06999 62.38 9.51001 65.43C4.06001 59.71 2.79001 48.09 2.71001 34.82C13.76 44.1 22.76 53.65 23.68 64.23C30.92 56.18 41.66 53.3 53.89 52.63C50.76 63.82 45.7 72.93 36.84 77.89C41.97 84.9 44.18 93.27 42.54 103.45C33.07 99.48 25.98 93.94 21.62 86.59Z" fill="#941A1D" stroke="black" stroke-miterlimit="10"/>
<path d="M21.2 79.42C18.2 83.52 13.59 85.77 7.92001 86.79C11.66 80.14 14.61 78.09 16.21 74.25C9.09001 75.42 6.20001 77.03 0.120007 72.73C3.44001 68.42 8.52001 67.14 15.11 68.43C15.48 64.71 13.9 58.86 12.5 52.23C16.17 58.6 20.94 63.47 23.38 67.36C27.29 64.32 36.27 61.88 41.42 60.25C37.61 65.25 33.91 70.01 30.42 74.29C31.23 80.01 30.93 82.23 32.61 87.81C29.62 83.23 25.34 81.02 21.2 79.42Z" stroke="black" stroke-miterlimit="10"/>
<path d="M66.95 27.93C67.6 36.22 63.85 43.45 57.2 49.98C53.54 40.61 51.58 32.02 54.01 25.43C45.54 33.47 43.41 38.28 29.97 37.94C29.53 29.08 35.06 22.74 45.68 18.53C38.26 17.22 30.71 9.01999 23.14 -1.12001C36.88 -0.25001 49.19 1.99 55.88 9.59C56.88 -0.690003 63.49 -8.98 72.51 -16.41C76.44 -6.04 77.71 3.80998 73.71 12.64C81.62 15.12 88.05 20.29 92.55 29.04C83.03 31.35 74.45 31.11 66.95 27.93Z" fill="black" stroke="black" stroke-miterlimit="10"/>
<path d="M100.71 62.44C95.29 57.23 92.7 50.02 91.96 41.48C101.86 46.96 104.04 52.14 108.63 56.11C109.6 45.42 108.49 41.53 112.79 32.77C115.85 26.55 116.67 47.13 116.98 55.63C121.45 51.93 130.21 52.8 140.18 54.98C132.87 62.89 125.42 68.99 117.45 67.99C121.26 74.32 123.58 87.99 125.24 95.88C118.65 89.3 112.39 82.93 106.78 76.97C99.63 78.6 96.69 77.96 87.4 77.53C92.02 71.17 95.91 65.63 100.71 62.44Z" fill="#941A1D" stroke="black" stroke-miterlimit="10"/>
<path d="M110.58 55.63L112.26 42.03L114.38 60.14L133.64 56.96L113.8 66.41L118.88 82.14L108.02 69.42L95.38 73.22L104.04 63.5L95.38 48.92L108.1 59.61L110.4 62.08L110.58 55.63Z" stroke="black" stroke-miterlimit="10"/>
<path d="M73.56 116.41C72.83 124.16 68.53 130.73 61.87 136.53C61.58 124.84 63.85 119.84 62.94 113.53C54.5 120.66 52.23 121.22 40.57 124.15C44.38 116.79 48.05 114.03 56.93 106.74C50.82 105.2 45.67 97.24 40.79 87.47C52.34 88.87 62.46 91.48 66.98 98.84C69.73 91.77 79.64 81.52 85.14 75.33C84.05 84.9 82.91 94.07 81.68 102.44C87.85 107.51 89.28 110.39 95.17 118.52C86.72 118.48 79.46 118.54 73.56 116.41Z" fill="#FDC010" stroke="black" stroke-miterlimit="10"/>
<path d="M59.4 103.13L51.48 94.56L68.43 102.73L78.01 92.44L72.07 103.43L86.37 114.25L71.25 111.18L66.94 123.21L65.23 109.53L52.13 115.93L61 107.16L59.4 103.13Z" fill="#FDC010" stroke="black" stroke-miterlimit="10"/>
<path d="M60.88 82.09C64.78 75.12 71.51 70.54 80.1 67.53C77.94 76.42 74.89 84.1 69.52 88.61C76.67 90.59 81.46 86.49 94.67 86.77C88.98 90.53 80.95 92.71 72.26 97.12C72.36 104.07 76.75 111.38 79.18 120.93C70.57 113.99 62.29 107.89 59.65 100.86C51.01 106.88 41.68 111.47 33.03 116.25C35.51 106.45 40.59 100.62 47.53 92.2C42.76 87.44 40.55 81 41.73 72.33C50.32 73.73 56.79 76.9 60.88 82.09Z" fill="black" stroke="black" stroke-miterlimit="10"/>
<path d="M28.96 164.59C18.28 163.87 11.15 159.26 6.34001 152.09C24.13 149.75 29.76 152.83 38.62 153.04C35.58 142.66 32.18 139.95 35.16 128.86C37.28 120.99 47.35 138.99 51.46 146.44C56.85 139.8 70.91 134.13 87.41 128.75C79.37 141.29 70.35 152.3 57.47 157.28C66.12 160.2 75.58 170.85 81.54 176.76C68.44 175.67 55.95 174.52 44.65 173.26C34.19 180 29.32 181.59 14.64 188.05C19.11 178.89 22.82 171.01 28.96 164.59Z" fill="#941A1D" stroke="black" stroke-miterlimit="10"/>
<path d="M43.39 152.1L40.2 138.56L51.24 153.38L79.96 136.3L53.02 159.48L67.67 169.95L45.27 166.46L27.16 179.21L36.53 164.04L16.79 157.23L41.22 157.52L45.86 158.07L43.39 152.1Z" stroke="black" stroke-miterlimit="10"/>
</g>
</svg>
