<svg width="130" height="176" viewBox="0 0 130 176" fill="none" xmlns="http://www.w3.org/2000/svg">
<path d="M129.5 0.950012H0.5V175.95H129.5V0.950012Z" fill="#941A1D"/>
<path d="M111.31 166.98H18.68C13.82 166.98 9.88 163.04 9.88 158.18V18.73C9.88 13.87 13.82 9.92999 18.68 9.92999H111.31C116.17 9.92999 120.11 13.87 120.11 18.73V158.17C120.12 163.03 116.17 166.98 111.31 166.98Z" fill="#FEF7DF"/>
<mask id="mask0" mask-type="alpha" maskUnits="userSpaceOnUse" x="9" y="9" width="112" height="158">
<path d="M111.31 166.98H18.68C13.82 166.98 9.88 163.04 9.88 158.18V18.73C9.88 13.87 13.82 9.92999 18.68 9.92999H111.31C116.17 9.92999 120.11 13.87 120.11 18.73V158.17C120.12 163.03 116.17 166.98 111.31 166.98Z" fill="#FEF7DF"/>
</mask>
<g mask="url(#mask0)">
<path d="M27.85 123.57C22.1 114.09 16.24 105.39 14.42 96.34" stroke="black" stroke-miterlimit="10"/>
<path d="M20.86 111.49L10.75 105.91" stroke="black" stroke-miterlimit="10"/>
<path d="M10.57 107.25C11.59 107.23 11.6 105.51 11.6 105.51C11.6 105.51 6.83 101.54 3.77 100.87C3.77 100.87 6.92001 106.74 10.57 107.25Z" fill="black" stroke="black" stroke-miterlimit="10"/>
<path d="M13.72 97.14C14.52 97.97 16.59 96.99 16.59 96.99C16.59 96.99 17.68 90.8 16.13 87.9C16.13 87.91 11.54 93.85 13.72 97.14Z" fill="black" stroke="black" stroke-miterlimit="10"/>
<path d="M19.9 110.95L28.39 103.63" stroke="black" stroke-miterlimit="10"/>
<path d="M27.57 106.59C26.41 106.61 25.59 104.43 25.59 104.43C25.59 104.43 29.15 99.24 32.3 98.29C32.31 98.29 31.46 105.82 27.57 106.59Z" fill="black" stroke="black" stroke-miterlimit="10"/>
<path d="M25.43 118.52L17.79 116.78" stroke="black" stroke-miterlimit="10"/>
<path d="M18.79 118.16C19.79 117.96 19.49 116.26 19.49 116.26C19.49 116.26 14.08 113.2 10.96 113.1C10.96 113.09 15.12 118.31 18.79 118.16Z" fill="#941A1D"/>
<path d="M24.1 118.25L32.6 110.93" stroke="black" stroke-miterlimit="10"/>
<path d="M31.77 113.89C30.61 113.91 29.79 111.73 29.79 111.73C29.79 111.73 33.35 106.54 36.5 105.59C36.51 105.59 35.67 113.12 31.77 113.89Z" fill="black" stroke="black" stroke-miterlimit="10"/>
<path d="M-4.09999 167.77C12.1 163.8 23.22 154.94 29.22 143.26" stroke="black" stroke-miterlimit="10"/>
<path d="M29.01 145.32C27.92 145.37 26.62 145 27.01 143.34C28.11 140.42 30 138.36 32.9 137.38C32.9 137.39 32.61 144.49 29.01 145.32Z" fill="black" stroke="black" stroke-miterlimit="10"/>
<path d="M20.02 154.98C25.35 157.43 28.74 158.99 29.22 159.21" stroke="black" stroke-miterlimit="10"/>
<path d="M27.29 160.31C27.41 159.03 28.05 157.45 29.95 157.74C33.23 158.73 35.37 160.75 36.08 164.07C36.08 164.07 27.71 164.48 27.29 160.31Z" fill="black" stroke="black" stroke-miterlimit="10"/>
<path d="M12.56 161.26L19.48 163.34" stroke="black" stroke-miterlimit="10"/>
<path d="M18.3 163.53C17.98 162.92 17.87 162.19 18.99 162.36C21.09 162.89 22.86 163.89 24.24 165.48C24.24 165.48 19.77 165.51 18.3 163.53Z" fill="black" stroke="black" stroke-miterlimit="10"/>
<path d="M7.47002 155.81C38.33 149.12 69.27 145.37 86.35 128.35" stroke="black" stroke-miterlimit="10"/>
<path d="M47.8 147.01L60.08 152.38" stroke="black" stroke-miterlimit="10"/>
<path d="M59.2 153.27C58.53 152.25 60.21 151.07 60.21 151.07C60.21 151.07 67.36 153.07 70.08 155.63C70.09 155.63 62.18 156.51 59.2 153.27Z" fill="#941A1D"/>
<path d="M69.7 139.58L83.49 139.12" stroke="black" stroke-miterlimit="10"/>
<path d="M82.96 140.65C81.88 140.08 82.81 138.24 82.81 138.24C82.81 138.24 90.05 136.6 93.66 137.55C93.66 137.54 87.12 142.08 82.96 140.65Z" fill="#941A1D"/>
<path d="M86.37 131.16C84.99 131.19 84.05 128.63 84.05 128.63C84.05 128.63 88.32 122.44 92.06 121.27C92.06 121.27 90.98 130.19 86.37 131.16Z" fill="#941A1D"/>
<path d="M70.1 139.8L69 126.45" stroke="black" stroke-miterlimit="10"/>
<path d="M67.21 129.66C68.19 130.65 70.7 129.48 70.7 129.48C70.7 129.48 72.02 122.07 70.13 118.62C70.14 118.62 64.55 125.73 67.21 129.66Z" fill="#941A1D"/>
<path d="M58.9 144.02L58.38 134.68" stroke="black" stroke-miterlimit="10"/>
<path d="M57.47 135.46C58.26 136.39 59.86 135.08 59.86 135.08C59.86 135.08 59.89 127.66 58.17 124.34C58.18 124.34 55.17 131.71 57.47 135.46Z" fill="#941A1D"/>
<path d="M48.5 147.45L47.97 138.11" stroke="black" stroke-miterlimit="10"/>
<path d="M46.52 138.81C47.21 139.81 48.94 138.68 48.94 138.68C48.94 138.68 49.74 131.3 48.37 127.82C48.37 127.82 44.62 134.85 46.52 138.81Z" fill="#941A1D"/>
<path d="M39.7 148.92C46.81 154.16 51.32 157.49 51.96 157.96" stroke="black" stroke-miterlimit="10"/>
<path d="M46.24 156.32C46.21 154.89 46.72 153.14 48.88 153.45C52.67 154.54 55.32 156.78 56.53 160.47C56.52 160.48 47.24 160.96 46.24 156.32Z" fill="black" stroke="black" stroke-miterlimit="10"/>
<path d="M58.62 143.92L68.73 144.54" stroke="black" stroke-miterlimit="10"/>
<path d="M68.14 146.04C67.11 145.39 68.17 143.62 68.17 143.62C68.17 143.62 75.51 142.54 79.05 143.76C79.04 143.77 72.17 147.79 68.14 146.04Z" fill="#941A1D"/>
<path d="M8.25002 168.59C29.12 117.13 51.27 68.56 43.39 26.1" stroke="black" stroke-miterlimit="10"/>
<path d="M40.7 77.54L52.56 71.31" stroke="black" stroke-miterlimit="10"/>
<path d="M45.57 44.26L56.35 26.42" stroke="black" stroke-miterlimit="10"/>
<path d="M53.97 36.08C52.53 36.62 50.79 33.96 50.79 33.96C50.79 33.96 53.48 25.18 57.09 22.46C57.09 22.46 58.56 33.27 53.97 36.08Z" fill="#941A1D"/>
<path d="M46.16 27.55C45.3 29.04 42.03 27.97 42.03 27.97C42.03 27.97 38.4 18.42 39.63 13.49C39.63 13.49 48.16 21.85 46.16 27.55Z" fill="#941A1D"/>
<path d="M45.99 42.95L32.77 34.34" stroke="black" stroke-miterlimit="10"/>
<path d="M36.51 38.16C38.07 37.84 38.28 34.48 38.28 34.48C38.28 34.48 31.41 28.09 26.8 27.66C26.8 27.66 30.98 38.2 36.51 38.16Z" fill="#941A1D"/>
<path d="M43.21 67.39L31.02 59" stroke="black" stroke-miterlimit="10"/>
<path d="M33.88 62.78C35.13 62.39 35.44 59.43 35.44 59.43C35.44 59.43 30.29 54.28 26.67 54.21C26.67 54.22 29.52 63.18 33.88 62.78Z" fill="#941A1D"/>
<path d="M40.65 77.17L28.45 68.78" stroke="black" stroke-miterlimit="10"/>
<path d="M29.16 71.11C30.63 70.98 31.02 67.96 31.02 67.96C31.02 67.96 25.01 61.47 20.75 60.61C20.76 60.62 24.02 70.58 29.16 71.11Z" fill="#941A1D"/>
<path d="M50.85 70.57C50.3 71.93 52.78 73.67 52.78 73.67C52.78 73.67 61.19 71.39 63.86 68.03C63.86 68.04 53.62 66.29 50.85 70.57Z" fill="#941A1D"/>
<path d="M44.93 53.64L60.53 39.82" stroke="black" stroke-miterlimit="10"/>
<path d="M55.16 46.54C53.65 46.6 52.75 43.57 52.75 43.57C52.75 43.57 57.72 36.18 61.87 34.75C61.87 34.75 60.26 45.33 55.16 46.54Z" fill="#941A1D"/>
<path d="M45.01 55.71L29.22 41.64" stroke="black" stroke-miterlimit="10"/>
<path d="M34.61 50.91C36.06 50.96 36.89 48.05 36.89 48.05C36.89 48.05 31.99 40.95 27.96 39.59C27.96 39.58 29.69 49.76 34.61 50.91Z" fill="#941A1D"/>
<path d="M42.69 67.87L55.03 59.05" stroke="black" stroke-miterlimit="10"/>
<path d="M54.12 60.86C52.64 60.6 52.32 57.46 52.32 57.46C52.32 57.46 58.56 51.28 62.88 50.75C62.89 50.75 59.32 60.74 54.12 60.86Z" fill="#941A1D"/>
<path d="M8.31001 152.73C51.43 117.76 94.28 85.95 107.88 44.97" stroke="black" stroke-miterlimit="10"/>
<path d="M90.06 78.73L103.45 79.35" stroke="black" stroke-miterlimit="10"/>
<path d="M102.12 57.54L120.17 47.13" stroke="black" stroke-miterlimit="10"/>
<path d="M109.85 54.28C108.39 53.54 109.07 50.15 109.07 50.15C109.07 50.15 117.57 45.64 122.24 46.45C122.25 46.45 115.31 55.79 109.85 54.28Z" fill="#941A1D"/>
<path d="M108.53 45.9C107.23 46.73 105.22 44.49 105.22 44.49C104.1 44.15 105.43 34.95 109.7 31.9C109.7 31.89 112.53 42.19 108.53 45.9Z" fill="#941A1D"/>
<path d="M102.16 57.36L94.74 43.43" stroke="black" stroke-miterlimit="10"/>
<path d="M95.96 48.73C97.28 49.27 99.11 46.88 99.11 46.88C99.11 46.88 97.2 38.71 94 36.09C94 36.09 91.84 46 95.96 48.73Z" fill="#941A1D"/>
<path d="M90.28 78.29L83.66 65.05" stroke="black" stroke-miterlimit="10"/>
<path d="M83.56 68.69C84.92 69.07 86.53 66.5 86.53 66.5C86.53 66.5 83.91 58.64 80.49 56.42C80.49 56.42 79.22 66.47 83.56 68.69Z" fill="#941A1D"/>
<path d="M83.78 85.81L79.2 76.66" stroke="black" stroke-miterlimit="10"/>
<path d="M78.07 79.07C79.68 79.73 81.89 76.83 81.89 76.83C81.89 76.83 79.56 66.88 75.66 63.69C75.66 63.69 73.06 75.74 78.07 79.07Z" fill="#941A1D"/>
<path d="M101.09 77.49C100.1 78.85 102.02 82.14 102.02 82.14C102.02 82.14 111.21 83.5 114.98 80.79C114.98 80.79 105.27 73.72 101.09 77.49Z" fill="#941A1D"/>
<path d="M94.48 70.44L114.81 65.88" stroke="black" stroke-miterlimit="10"/>
<path d="M107.35 69.15C105.87 68.16 106.4 64.08 106.4 64.08C106.4 64.08 114.59 59.11 119.25 60.38C119.25 60.37 112.81 71.32 107.35 69.15Z" fill="#941A1D"/>
<path d="M95.04 70.96L88.01 51.01" stroke="black" stroke-miterlimit="10"/>
<path d="M88.82 58.39C90.15 59.02 92.65 56.82 92.65 56.82C92.65 56.82 92.28 48.69 89.32 45.89C89.32 45.89 84.89 55.41 88.82 58.39Z" fill="#941A1D"/>
<path d="M65.8 105L56.94 99.88" stroke="black" stroke-miterlimit="10"/>
<path d="M59.17 103.53C60.87 103.2 61.12 99.55 61.12 99.55C61.12 99.55 53.69 92.54 48.68 92.02C48.69 92.02 53.16 103.51 59.17 103.53Z" fill="#941A1D"/>
<path d="M45.37 117.24L40.91 108.03" stroke="black" stroke-miterlimit="10"/>
<path d="M40.3 111.69C41.9 112.37 44.15 109.5 44.15 109.5C44.15 109.5 41.95 99.52 38.1 96.28C38.09 96.28 35.34 108.29 40.3 111.69Z" fill="#941A1D"/>
<path d="M81.48 88.11L96.64 88.81" stroke="black" stroke-miterlimit="10"/>
<path d="M94.96 90.27C94.52 88.71 97.27 86.22 97.27 86.22C97.27 86.22 105.82 87.67 108.29 91.3C108.28 91.3 97.44 95 94.96 90.27Z" fill="#941A1D"/>
<path d="M72.75 96.69C78.61 97 82.33 97.19 82.86 97.22" stroke="black" stroke-miterlimit="10"/>
<path d="M82.65 98.79C82.28 97.55 82.3 95.85 84.17 95.42C87.59 95.12 90.32 96.21 92.2 99.04C92.21 99.03 84.59 102.51 82.65 98.79Z" fill="black" stroke="black" stroke-miterlimit="10"/>
<path d="M72.88 97.49C70.91 91.96 69.66 88.45 69.48 87.95" stroke="black" stroke-miterlimit="10"/>
<path d="M70.77 87.53C69.38 88.33 67.18 88.95 65.6 87.38C63.35 84.32 63.25 81.37 65.85 78.57C65.85 78.57 74.49 84.35 70.77 87.53Z" fill="black" stroke="black" stroke-miterlimit="10"/>
<path d="M65 105.16C76.06 107.02 83.08 108.2 84.06 108.37" stroke="black" stroke-miterlimit="10"/>
<path d="M74.13 110.69C73.23 109.06 72.74 106.69 75.3 105.57C80.12 104.23 84.39 105.01 87.94 108.45C87.94 108.44 78.03 115.35 74.13 110.69Z" fill="black" stroke="black" stroke-miterlimit="10"/>
<path d="M65.35 105.35C61.39 94.86 58.88 88.2 58.53 87.26" stroke="black" stroke-miterlimit="10"/>
<path d="M61.5 91.37C60.55 92.59 58.94 93.68 57.4 91.89C55.06 88.27 54.44 84.51 55.97 80.57C55.97 80.56 63.84 86.78 61.5 91.37Z" fill="black" stroke="black" stroke-miterlimit="10"/>
<path d="M56.34 112.9C40.24 120.52 23.51 125.74 6.10001 128.29" stroke="black" stroke-miterlimit="10"/>
<path d="M36.94 92.86C27.12 83.96 17.44 75.99 12.27 66.25" stroke="black" stroke-miterlimit="10"/>
<path d="M23.99 81.09L12.03 74.22" stroke="black" stroke-miterlimit="10"/>
<path d="M11.78 75.82C13 75.82 13.05 73.76 13.05 73.76C13.05 73.76 7.43001 68.91 3.79001 68.06C3.79001 68.06 7.44001 75.13 11.78 75.82Z" fill="#941A1D"/>
<path d="M11.75 67.39C12.95 68.07 14.99 66.25 14.99 66.25C14.99 66.25 14.13 58.78 11.36 56C11.36 55.99 8.12002 64.37 11.75 67.39Z" fill="#941A1D"/>
<path d="M23.53 81.11L30.77 69.83" stroke="black" stroke-miterlimit="10"/>
<path d="M30.84 73.5C29.51 73.92 27.84 71.7 27.84 71.7C27.84 71.7 30.15 64.54 33.44 62.37C33.44 62.38 35.03 71.28 30.84 73.5Z" fill="#941A1D"/>
<path d="M32.45 87.89L23.11 88.51" stroke="black" stroke-miterlimit="10"/>
<path d="M24.72 89.74C25.8 89.17 24.88 87.33 24.88 87.33C24.88 87.33 17.65 85.67 14.03 86.61C14.03 86.61 20.56 91.17 24.72 89.74Z" fill="#941A1D"/>
</g>
</svg>
