<svg width="129" height="175" viewBox="0 0 129 175" fill="none" xmlns="http://www.w3.org/2000/svg">
<path d="M129 0H0V175H129V0Z" fill="#941A1D"/>
<path d="M110.82 166.02H18.1899C13.3299 166.02 9.38995 162.08 9.38995 157.22V17.78C9.38995 12.92 13.3299 8.98 18.1899 8.98H110.82C115.68 8.98 119.62 12.92 119.62 17.78V157.22C119.62 162.08 115.68 166.02 110.82 166.02Z" fill="#FEF7DF"/>
<mask id="mask0" mask-type="alpha" maskUnits="userSpaceOnUse" x="8" y="9" width="112" height="158">
<path d="M110.4 166.37H17.77C12.91 166.37 8.96997 162.43 8.96997 157.57V18.13C8.96997 13.27 12.91 9.33 17.77 9.33H110.4C115.26 9.33 119.2 13.27 119.2 18.13V157.57C119.2 162.43 115.26 166.37 110.4 166.37Z" fill="#FEF7DF"/>
</mask>
<g mask="url(#mask0)">
<path d="M120.07 166.02H8.92999V85.03C46.86 75.23 84.09 73.22 120.08 85.03V166.02H120.07Z" fill="black"/>
</g>
</svg>
