<svg width="129" height="175" viewBox="0 0 129 175" fill="none" xmlns="http://www.w3.org/2000/svg">
<path d="M129 0H0V175H129V0Z" fill="#941A1D"/>
<path d="M18.19 8.98001H110.82C115.68 8.98001 119.62 12.92 119.62 17.78V157.22C119.62 162.08 115.68 166.02 110.82 166.02H18.19C13.33 166.02 9.39003 162.08 9.39003 157.22V17.78C9.38003 12.92 13.32 8.98001 18.19 8.98001Z" fill="#FEF7DF"/>
<mask id="mask0" mask-type="alpha" maskUnits="userSpaceOnUse" x="9" y="8" width="111" height="159">
<path d="M18.19 8.98001H110.82C115.68 8.98001 119.62 12.92 119.62 17.78V157.22C119.62 162.08 115.68 166.02 110.82 166.02H18.19C13.33 166.02 9.39003 162.08 9.39003 157.22V17.78C9.38003 12.92 13.32 8.98001 18.19 8.98001Z" fill="#FEF7DF"/>
</mask>
<g mask="url(#mask0)">
<path d="M100.31 122.26C105.97 112.72 111.74 103.96 113.47 94.9" stroke="black" stroke-miterlimit="10"/>
<path d="M107.18 110.11L117.24 104.44" stroke="black" stroke-miterlimit="10"/>
<path d="M117.43 105.78C116.41 105.77 116.38 104.05 116.38 104.05C116.38 104.05 121.11 100.03 124.17 99.34C124.17 99.33 121.07 105.23 117.43 105.78Z" fill="black" stroke="black" stroke-miterlimit="10"/>
<path d="M114.18 95.7C113.39 96.54 111.31 95.58 111.31 95.58C111.31 95.58 110.16 89.4 111.68 86.49C111.68 86.49 116.33 92.39 114.18 95.7Z" fill="black" stroke="black" stroke-miterlimit="10"/>
<path d="M108.14 109.56L99.57 102.33" stroke="black" stroke-miterlimit="10"/>
<path d="M100.42 105.29C101.58 105.29 102.37 103.11 102.37 103.11C102.37 103.11 98.76 97.95 95.6 97.03C95.6 97.03 96.52 104.55 100.42 105.29Z" fill="black" stroke="black" stroke-miterlimit="10"/>
<path d="M102.68 117.19L110.3 115.38" stroke="black" stroke-miterlimit="10"/>
<path d="M109.31 116.76C108.31 116.57 108.59 114.87 108.59 114.87C108.59 114.87 113.97 111.76 117.09 111.62C117.09 111.62 112.99 116.88 109.31 116.76Z" fill="#941A1D"/>
<path d="M104.01 116.9L95.44 109.67" stroke="black" stroke-miterlimit="10"/>
<path d="M96.2901 112.63C97.4501 112.63 98.25 110.45 98.25 110.45C98.25 110.45 94.6401 105.29 91.4801 104.37C91.4701 104.37 92.3901 111.89 96.2901 112.63Z" fill="black" stroke="black" stroke-miterlimit="10"/>
<path d="M132.69 166.15C116.45 162.34 105.25 153.59 99.13 141.96" stroke="black" stroke-miterlimit="10"/>
<path d="M99.36 144.02C100.45 144.06 101.75 143.67 101.34 142.02C100.21 139.11 98.3 137.07 95.39 136.12C95.39 136.13 95.75 143.23 99.36 144.02Z" fill="black" stroke="black" stroke-miterlimit="10"/>
<path d="M108.44 153.59C103.13 156.1 99.76 157.69 99.29 157.91" stroke="black" stroke-miterlimit="10"/>
<path d="M101.23 159C101.1 157.72 100.44 156.15 98.5501 156.45C95.2801 157.47 93.1501 159.51 92.4901 162.84C92.4801 162.84 100.84 163.17 101.23 159Z" fill="black" stroke="black" stroke-miterlimit="10"/>
<path d="M115.97 159.81L109.06 161.95" stroke="black" stroke-miterlimit="10"/>
<path d="M110.25 162.13C110.56 161.52 110.67 160.79 109.54 160.97C107.45 161.52 105.68 162.54 104.32 164.14C104.33 164.14 108.8 164.13 110.25 162.13Z" fill="black" stroke="black" stroke-miterlimit="10"/>
<path d="M121.01 154.3C90.08 147.91 59.11 144.47 41.86 127.61" stroke="black" stroke-miterlimit="10"/>
<path d="M80.58 145.9L68.36 151.39" stroke="black" stroke-miterlimit="10"/>
<path d="M69.25 152.27C69.91 151.25 68.21 150.08 68.21 150.08C68.21 150.08 61.08 152.15 58.38 154.74C58.38 154.74 66.31 155.54 69.25 152.27Z" fill="#941A1D"/>
<path d="M58.62 138.68L44.82 138.36" stroke="black" stroke-miterlimit="10"/>
<path d="M45.37 139.88C46.44 139.3 45.5 137.47 45.5 137.47C45.5 137.47 38.25 135.9 34.64 136.89C34.64 136.88 41.22 141.35 45.37 139.88Z" fill="#941A1D"/>
<path d="M41.87 130.42C43.25 130.44 44.17 127.87 44.17 127.87C44.17 127.87 39.84 121.72 36.09 120.59C36.08 120.59 37.24 129.5 41.87 130.42Z" fill="#941A1D"/>
<path d="M58.21 138.91L59.19 125.54" stroke="black" stroke-miterlimit="10"/>
<path d="M61.01 128.74C60.04 129.74 57.52 128.59 57.52 128.59C57.52 128.59 56.12 121.2 57.98 117.72C57.97 117.72 63.63 124.79 61.01 128.74Z" fill="#941A1D"/>
<path d="M69.46 143.02L69.89 133.67" stroke="black" stroke-miterlimit="10"/>
<path d="M70.8 134.44C70.02 135.37 68.41 134.09 68.41 134.09C68.41 134.09 68.31 126.67 69.99 123.33C69.99 123.33 73.07 130.67 70.8 134.44Z" fill="#941A1D"/>
<path d="M79.9 146.35L80.33 137" stroke="black" stroke-miterlimit="10"/>
<path d="M81.79 137.69C81.11 138.7 79.37 137.59 79.37 137.59C79.37 137.59 78.5 130.22 79.83 126.72C79.83 126.72 83.65 133.7 81.79 137.69Z" fill="#941A1D"/>
<path d="M88.71 147.72C81.65 153.03 77.17 156.4 76.54 156.88" stroke="black" stroke-miterlimit="10"/>
<path d="M82.2401 155.19C82.2601 153.76 81.73 152.01 79.58 152.35C75.8 153.48 73.17 155.75 72 159.45C72 159.45 81.2801 159.84 82.2401 155.19Z" fill="black" stroke="black" stroke-miterlimit="10"/>
<path d="M69.73 142.91L59.64 143.63" stroke="black" stroke-miterlimit="10"/>
<path d="M60.2401 145.13C61.2601 144.47 60.1801 142.71 60.1801 142.71C60.1801 142.71 52.83 141.7 49.31 142.96C49.31 142.96 56.2201 146.92 60.2401 145.13Z" fill="#941A1D"/>
<path d="M120.35 167.09C98.9801 115.83 76.35 67.48 83.82 24.95" stroke="black" stroke-miterlimit="10"/>
<path d="M87.01 76.36L75.08 70.25" stroke="black" stroke-miterlimit="10"/>
<path d="M81.81 43.13L70.86 25.4" stroke="black" stroke-miterlimit="10"/>
<path d="M73.33 35.03C74.78 35.55 76.4901 32.88 76.4901 32.88C76.4901 32.88 73.71 24.12 70.08 21.44C70.08 21.44 68.72 32.27 73.33 35.03Z" fill="#941A1D"/>
<path d="M81.06 26.42C81.94 27.91 85.19 26.8 85.19 26.8C85.19 26.8 88.73 17.21 87.44 12.29C87.45 12.3 79.01 20.74 81.06 26.42Z" fill="#941A1D"/>
<path d="M81.38 41.83L94.52 33.09" stroke="black" stroke-miterlimit="10"/>
<path d="M90.81 36.95C89.24 36.64 89 33.29 89 33.29C89 33.29 95.81 26.83 100.42 26.36C100.42 26.35 96.34 36.93 90.81 36.95Z" fill="#941A1D"/>
<path d="M84.4 66.24L96.51 57.73" stroke="black" stroke-miterlimit="10"/>
<path d="M93.6801 61.54C92.4301 61.17 92.09 58.21 92.09 58.21C92.09 58.21 97.19 53.01 100.81 52.91C100.81 52.9 98.0501 61.9 93.6801 61.54Z" fill="#941A1D"/>
<path d="M87.06 75.99L99.17 67.48" stroke="black" stroke-miterlimit="10"/>
<path d="M98.4901 69.82C97.0201 69.7 96.59 66.69 96.59 66.69C96.59 66.69 102.54 60.15 106.79 59.24C106.79 59.25 103.62 69.24 98.4901 69.82Z" fill="#941A1D"/>
<path d="M76.79 69.5C77.35 70.85 74.89 72.62 74.89 72.62C74.89 72.62 66.46 70.42 63.76 67.09C63.76 67.09 73.97 65.24 76.79 69.5Z" fill="#941A1D"/>
<path d="M82.55 52.5L66.81 38.84" stroke="black" stroke-miterlimit="10"/>
<path d="M72.2401 45.5C73.7501 45.54 74.62 42.51 74.62 42.51C74.62 42.51 69.58 35.17 65.42 33.77C65.42 33.78 67.1401 44.34 72.2401 45.5Z" fill="#941A1D"/>
<path d="M82.4901 54.58L98.14 40.35" stroke="black" stroke-miterlimit="10"/>
<path d="M92.83 49.67C91.38 49.74 90.53 46.83 90.53 46.83C90.53 46.83 95.36 39.69 99.37 38.28C99.37 38.28 97.75 48.47 92.83 49.67Z" fill="#941A1D"/>
<path d="M84.9301 66.71L72.5 58.01" stroke="black" stroke-miterlimit="10"/>
<path d="M73.42 59.81C74.9 59.54 75.1801 56.4 75.1801 56.4C75.1801 56.4 68.88 50.28 64.55 49.79C64.56 49.79 68.22 59.74 73.42 59.81Z" fill="#941A1D"/>
<path d="M120.13 151.23C76.67 116.68 33.51 85.29 19.51 44.45" stroke="black" stroke-miterlimit="10"/>
<path d="M37.66 78.03L24.28 78.78" stroke="black" stroke-miterlimit="10"/>
<path d="M25.39 56.97L7.24005 46.73" stroke="black" stroke-miterlimit="10"/>
<path d="M17.63 53.77C19.09 53.02 18.37 49.63 18.37 49.63C18.37 49.63 9.83003 45.21 5.16003 46.06C5.16003 46.07 12.19 55.34 17.63 53.77Z" fill="#941A1D"/>
<path d="M18.88 45.38C20.19 46.2 22.18 43.93 22.18 43.93C23.3 43.58 21.88 34.4 17.57 31.38C17.57 31.39 14.84 41.72 18.88 45.38Z" fill="#941A1D"/>
<path d="M25.36 56.79L32.64 42.78" stroke="black" stroke-miterlimit="10"/>
<path d="M31.47 48.09C30.15 48.65 28.3 46.27 28.3 46.27C28.3 46.27 30.13 38.08 33.31 35.43C33.3 35.44 35.56 45.32 31.47 48.09Z" fill="#941A1D"/>
<path d="M37.44 77.59L43.9301 64.29" stroke="black" stroke-miterlimit="10"/>
<path d="M44.06 67.93C42.7 68.33 41.07 65.77 41.07 65.77C41.07 65.77 43.62 57.88 47.01 55.63C47.01 55.63 48.38 65.66 44.06 67.93Z" fill="#941A1D"/>
<path d="M44.01 85.05L48.5 75.86" stroke="black" stroke-miterlimit="10"/>
<path d="M49.66 78.25C48.06 78.93 45.82 76.05 45.82 76.05C45.82 76.05 48.06 66.08 51.92 62.85C51.91 62.85 54.63 74.87 49.66 78.25Z" fill="#941A1D"/>
<path d="M26.62 76.9C27.62 78.25 25.73 81.56 25.73 81.56C25.73 81.56 16.56 83.01 12.76 80.33C12.76 80.34 22.41 73.18 26.62 76.9Z" fill="#941A1D"/>
<path d="M33.16 69.79L12.79 65.43" stroke="black" stroke-miterlimit="10"/>
<path d="M20.28 68.62C21.75 67.62 21.1801 63.54 21.1801 63.54C21.1801 63.54 12.9401 58.65 8.30006 59.96C8.29006 59.96 14.84 70.85 20.28 68.62Z" fill="#941A1D"/>
<path d="M32.61 70.32L39.44 50.3" stroke="black" stroke-miterlimit="10"/>
<path d="M38.71 57.68C37.39 58.32 34.87 56.15 34.87 56.15C34.87 56.15 35.16 48.02 38.09 45.19C38.08 45.19 42.61 54.67 38.71 57.68Z" fill="#941A1D"/>
<path d="M62.17 104.06L70.9901 98.86" stroke="black" stroke-miterlimit="10"/>
<path d="M68.79 102.53C67.08 102.21 66.8 98.57 66.8 98.57C66.8 98.57 74.16 91.48 79.17 90.92C79.16 90.92 74.8 102.45 68.79 102.53Z" fill="#941A1D"/>
<path d="M82.73 116.11L87.09 106.85" stroke="black" stroke-miterlimit="10"/>
<path d="M87.75 110.51C86.16 111.21 83.88 108.36 83.88 108.36C83.88 108.36 85.98 98.36 89.81 95.08C89.8 95.08 92.67 107.06 87.75 110.51Z" fill="#941A1D"/>
<path d="M46.33 87.32L31.1801 88.18" stroke="black" stroke-miterlimit="10"/>
<path d="M32.88 89.62C33.31 88.06 30.53 85.59 30.53 85.59C30.53 85.59 21.99 87.12 19.57 90.78C19.56 90.78 30.44 94.38 32.88 89.62Z" fill="#941A1D"/>
<path d="M55.14 95.82C49.28 96.18 45.56 96.41 45.04 96.45" stroke="black" stroke-miterlimit="10"/>
<path d="M45.27 98.02C45.62 96.78 45.59 95.08 43.72 94.66C40.3 94.4 37.57 95.51 35.72 98.36C35.72 98.36 43.37 101.75 45.27 98.02Z" fill="black" stroke="black" stroke-miterlimit="10"/>
<path d="M55.02 96.62C56.94 91.07 58.15 87.55 58.32 87.05" stroke="black" stroke-miterlimit="10"/>
<path d="M57.0401 86.64C58.4401 87.43 60.64 88.03 62.21 86.44C64.43 83.36 64.5 80.41 61.87 77.64C61.87 77.64 53.2801 83.5 57.0401 86.64Z" fill="black" stroke="black" stroke-miterlimit="10"/>
<path d="M62.98 104.22C51.94 106.19 44.94 107.44 43.95 107.61" stroke="black" stroke-miterlimit="10"/>
<path d="M53.9 109.83C54.78 108.19 55.2501 105.81 52.6801 104.72C47.8401 103.43 43.59 104.25 40.07 107.72C40.07 107.72 50.05 114.54 53.9 109.83Z" fill="black" stroke="black" stroke-miterlimit="10"/>
<path d="M62.63 104.41C66.48 93.88 68.93 87.2 69.27 86.26" stroke="black" stroke-miterlimit="10"/>
<path d="M66.35 90.4C67.31 91.61 68.93 92.69 70.45 90.88C72.75 87.24 73.34 83.47 71.77 79.54C71.77 79.54 63.96 85.83 66.35 90.4Z" fill="black" stroke="black" stroke-miterlimit="10"/>
<path d="M71.71 111.87C87.89 119.33 104.66 124.38 122.1 126.77" stroke="black" stroke-miterlimit="10"/>
<path d="M90.92 91.64C100.66 82.64 110.25 74.58 115.33 64.79" stroke="black" stroke-miterlimit="10"/>
<path d="M103.75 79.75L115.65 72.76" stroke="black" stroke-miterlimit="10"/>
<path d="M115.91 74.36C114.69 74.37 114.62 72.31 114.62 72.31C114.62 72.31 120.19 67.41 123.83 66.52C123.83 66.52 120.25 73.63 115.91 74.36Z" fill="#941A1D"/>
<path d="M115.86 65.93C114.66 66.62 112.61 64.82 112.61 64.82C112.61 64.82 113.4 57.34 116.14 54.53C116.14 54.53 119.45 62.87 115.86 65.93Z" fill="#941A1D"/>
<path d="M104.21 79.76L96.86 68.55" stroke="black" stroke-miterlimit="10"/>
<path d="M96.83 72.23C98.16 72.63 99.81 70.4 99.81 70.4C99.81 70.4 97.43 63.26 94.12 61.13C94.13 61.13 92.62 70.05 96.83 72.23Z" fill="#941A1D"/>
<path d="M95.36 86.63L104.7 87.16" stroke="black" stroke-miterlimit="10"/>
<path d="M103.1 88.4C102.02 87.84 102.92 85.99 102.92 85.99C102.92 85.99 110.14 84.26 113.77 85.17C113.77 85.17 107.28 89.79 103.1 88.4Z" fill="#941A1D"/>
</g>
</svg>
