<svg width="129" height="175" viewBox="0 0 129 175" fill="none" xmlns="http://www.w3.org/2000/svg">
<path d="M129 0H0V175H129V0Z" fill="#941A1D"/>
<path d="M108.43 167.05H15.8C10.94 167.05 7 163.11 7 158.25V18.8C7 13.94 10.94 10 15.8 10H108.43C113.29 10 117.23 13.94 117.23 18.8V158.24C117.23 163.11 113.29 167.05 108.43 167.05Z" fill="#FEF7DF"/>
<path d="M18.16 96.44L12.28 116.27" stroke="black" stroke-miterlimit="10"/>
<path d="M21.37 102.39L15.45 119.42" stroke="black" stroke-miterlimit="10"/>
<path d="M23.54 107.92L19.35 124.43" stroke="black" stroke-miterlimit="10"/>
<path d="M25.87 112.54L22.54 129.97" stroke="black" stroke-miterlimit="10"/>
<path d="M28.49 117.24L25.63 129.68" stroke="black" stroke-miterlimit="10"/>
<path d="M31.61 121.68L28.24 133.03" stroke="black" stroke-miterlimit="10"/>
<path d="M33.59 125.35L30.68 135.18" stroke="black" stroke-miterlimit="10"/>
<path d="M35.74 127.06L32.43 138.23" stroke="black" stroke-miterlimit="10"/>
<path d="M37.73 131.21L35 140.46" stroke="black" stroke-miterlimit="10"/>
<path d="M40.47 134.24L37.73 143.48" stroke="black" stroke-miterlimit="10"/>
<path d="M15.49 91.53L8.89001 110.15" stroke="black" stroke-miterlimit="10"/>
<path d="M43.88 134.71L54.18 139.62" stroke="black" stroke-miterlimit="10"/>
<path d="M42.68 130.89L54.44 133.88" stroke="black" stroke-miterlimit="10"/>
<path d="M42.24 123.68L53.15 126.39" stroke="black" stroke-miterlimit="10"/>
<path d="M40.24 120.05L51.35 122.55" stroke="black" stroke-miterlimit="10"/>
<path d="M39.53 114.75L49.81 118.2" stroke="black" stroke-miterlimit="10"/>
<path d="M38.19 109.88L49.83 113.91" stroke="black" stroke-miterlimit="10"/>
<path d="M36.76 105.64L48.08 109.29" stroke="black" stroke-miterlimit="10"/>
<path d="M35.51 100.68L47.21 105.22" stroke="black" stroke-miterlimit="10"/>
<path d="M34.97 93.97L44.22 96.68" stroke="black" stroke-miterlimit="10"/>
<path d="M33.81 88.97L43.06 91.69" stroke="black" stroke-miterlimit="10"/>
<path d="M33.17 77.44L41.82 81.68" stroke="black" stroke-miterlimit="10"/>
<path d="M33.93 83.8L42.94 86.45" stroke="black" stroke-miterlimit="10"/>
<path d="M35.32 98.09L44.7 100.31" stroke="black" stroke-miterlimit="10"/>
<path d="M42.24 127.44L52.99 130.27" stroke="black" stroke-miterlimit="10"/>
<path d="M49.89 9.32001C45.64 15.14 42.81 21.45 41.67 28.37C45.63 24.75 49.48 22.06 53.03 21.76C57.07 21.17 62.52 21.99 68.44 23.3C62.72 17.48 56.59 12.67 49.89 9.32001Z" fill="black" stroke="black" stroke-miterlimit="10"/>
<path d="M107.77 9.81L108.46 19.43" stroke="black" stroke-miterlimit="10"/>
<path d="M111.28 9.95001L109.89 19.49" stroke="black" stroke-miterlimit="10"/>
<path d="M113.73 10.51L113.01 20.58" stroke="black" stroke-miterlimit="10"/>
<path d="M115.09 10.99L117.62 24.66" stroke="black" stroke-miterlimit="10"/>
<path d="M117.39 11.83L120.16 26.86" stroke="black" stroke-miterlimit="10"/>
<mask id="mask0" mask-type="alpha" maskUnits="userSpaceOnUse" x="7" y="13" width="110" height="154">
<path d="M108.218 167H15.7816C10.9318 167 7 163.136 7 158.37V21.6296C7 16.8637 10.9318 13 15.7816 13H108.218C113.068 13 117 16.8637 117 21.6296V158.37C117 163.136 113.068 167 108.218 167Z" fill="#FEF7DF"/>
</mask>
<g mask="url(#mask0)">
<path d="M77.91 12.03C86.17 32.6 84.02 59.41 77.91 88.59L86.59 65.18C94.06 77.59 91.87 93.89 86.59 111.42L94.96 96.74C97.77 115.56 92.09 140.35 83.79 166.97C100.42 134.32 111.08 101.15 115.43 67.42L125.2 93.88C123.78 75.75 124.19 58.78 127.99 43.94C122.73 31.36 113.73 20.59 100.08 12.03H77.91V12.03Z" fill="black"/>
<path d="M1.50999 45.22C4.19999 88.17 24.2 121.61 48.53 152.66C34.58 114.25 27.32 75.26 29.27 52.48L54.04 57.71C37.19 33.21 18.98 18.88 -1 17.7L1.50999 45.22Z" fill="black" stroke="black" stroke-miterlimit="10"/>
<path d="M4.79999 107.72L36.67 146.09C36.7 168.32 41.29 189.77 48.61 210.77L21.77 220.74C19.8 196.28 15.88 173.92 4.42999 155.95L4.79999 107.72Z" fill="black" stroke="black" stroke-miterlimit="10"/>
</g>
<path d="M106.26 131.2L66 144.1C47.31 109.3 37.33 72.12 30.63 33.71L70.89 20.81C75.55 64.37 88.1 100.47 106.26 131.2Z" fill="#941A1D" stroke="black" stroke-miterlimit="10"/>
</svg>
