<svg xmlns="http://www.w3.org/2000/svg" xmlns:xlink="http://www.w3.org/1999/xlink" viewBox="0 0 157.64 212.28"><defs><style>.cls-1,.cls-6{fill:none;}.cls-2,.cls-5{fill:#941a1d;}.cls-3{fill:#fef7df;}.cls-4{clip-path:url(#clip-path);}.cls-5,.cls-6,.cls-7,.cls-8{stroke:#231f20;stroke-miterlimit:10;}.cls-7,.cls-9{fill:#231f20;}.cls-8{fill:#fdc010;}.cls-9{font-size:15px;font-family:AppleMyungjo;}</style><clipPath id="clip-path"><rect class="cls-1" x="25.23" y="27.17" width="110.24" height="157.05" rx="8.8"/></clipPath></defs><title>card4_1</title><g id="Layer_2" data-name="Layer 2"><g id="_card_1" data-name=" card 1"><rect class="cls-2" x="16.49" y="18.2" width="129" height="175"/><rect class="cls-3" x="25.23" y="27.17" width="110.24" height="157.05" rx="8.8"/></g><g id="card_4_mask" data-name="card 4 mask"><g class="cls-4"><path class="cls-5" d="M38.11,103.84c-4.6,7.39-12.27,11.16-21.94,12.54,2.74-10.18,6.43-18.66,12.57-22.7C16.59,95.2,11.81,97.93.67,89.28,5.81,81.53,14.43,79.62,26,82.67c-5.44-5.73-6.71-17.34-6.8-30.61,11.05,9.28,20,18.82,21,29.4,7.24-8,18-10.93,30.22-11.59-3.13,11.19-8.19,20.29-17.06,25.26,5.13,7,7.35,15.38,5.7,25.56C49.56,116.73,42.47,111.19,38.11,103.84Z"/><path class="cls-6" d="M37.69,96.67c-3,4.1-7.61,6.35-13.28,7.37,3.74-6.65,6.69-8.69,8.29-12.53-7.12,1.17-10,2.78-16.09-1.53,3.31-4.3,8.4-5.58,15-4.29C32,82,30.39,76.12,29,69.49c3.67,6.37,8.44,11.25,10.88,15.13,3.91-3,12.89-5.48,18-7.11-3.81,5-7.51,9.76-11,14,.81,5.73.51,7.94,2.19,13.52C46.11,100.48,41.83,98.27,37.69,96.67Z"/><path class="cls-7" d="M83.44,45.18c.65,8.28-3.11,15.51-9.75,22.05-3.66-9.37-5.62-18-3.19-24.55-8.48,8-10.6,12.85-24,12.51C46,46.33,51.55,40,62.17,35.77c-7.42-1.31-15-9.51-22.55-19.65,13.74.87,26.05,3.11,32.75,10.71C73.37,16.55,80,8.27,89,.83,92.93,11.19,94.2,21,90.2,29.88c7.91,2.47,14.35,7.65,18.84,16.39C99.52,48.6,90.94,48.36,83.44,45.18Z"/><path class="cls-5" d="M117.2,79.68c-5.41-5.21-8-12.42-8.75-21,9.89,5.48,12.08,10.66,16.67,14.63,1-10.69-.14-14.58,4.16-23.34,3.06-6.22,3.89,14.37,4.2,22.86,4.46-3.7,13.23-2.82,23.2-.65-7.31,7.91-14.76,14-22.73,13,3.81,6.34,6.13,20,7.79,27.89-6.59-6.58-12.86-12.95-18.46-18.91-7.15,1.63-10.09,1-19.38.56C108.51,88.41,112.4,82.87,117.2,79.68Z"/><polygon class="cls-6" points="127.07 72.88 128.75 59.27 130.87 77.38 150.13 74.2 130.29 83.66 135.38 99.39 124.51 86.66 111.87 90.46 120.53 80.74 111.87 66.16 124.59 76.85 126.89 79.33 127.07 72.88"/><path class="cls-8" d="M90.05,133.65c-.73,7.75-5,14.32-11.7,20.12-.29-11.69,2-16.69,1.08-23C71,137.9,68.72,138.46,57.06,141.4c3.8-7.37,7.48-10.13,16.36-17.42-6.11-1.54-11.26-9.49-16.14-19.26,11.55,1.39,21.67,4,26.19,11.37,2.75-7.07,12.65-17.32,18.16-23.51-1.1,9.57-2.23,18.74-3.47,27.11,6.17,5.06,7.61,7.94,13.49,16.08C103.21,135.72,96,135.78,90.05,133.65Z"/><polygon class="cls-8" points="75.89 120.38 67.97 111.81 84.92 119.97 94.5 109.69 88.56 120.68 102.86 131.49 87.74 128.42 83.43 140.45 81.72 126.77 68.62 133.17 77.49 124.4 75.89 120.38"/><path class="cls-7" d="M77.37,99.33c3.9-7,10.63-11.55,19.22-14.56-2.16,8.89-5.21,16.57-10.58,21.08,7.15,2,11.95-2.12,25.16-1.84-5.69,3.76-13.72,5.94-22.41,10.35.1,7,4.49,14.26,6.92,23.8-8.61-6.94-16.89-13-19.52-20.06-8.64,6-18,10.6-26.62,15.38,2.48-9.79,7.57-15.63,14.5-24-4.77-4.76-7-11.2-5.8-19.88C66.81,91,73.28,94.14,77.37,99.33Z"/><path class="cls-5" d="M45.45,181.83c-10.68-.71-17.82-5.32-22.62-12.49,17.79-2.34,23.42.73,32.28.94-3-10.38-6.44-13.08-3.46-24.17,2.12-7.88,12.19,10.13,16.3,17.58,5.4-6.64,19.45-12.31,36-17.69-8,12.54-17.06,23.55-29.95,28.52C82.62,177.44,92.08,188.09,98,194c-13.1-1.09-25.59-2.24-36.89-3.49-10.46,6.74-15.33,8.32-30,14.78C35.6,196.14,39.31,188.26,45.45,181.83Z"/><polygon class="cls-6" points="59.88 169.35 56.69 155.81 67.73 170.62 96.45 153.55 69.51 176.72 84.16 187.2 61.76 183.7 43.65 196.45 53.02 181.28 33.28 174.48 57.71 174.77 62.35 175.31 59.88 169.35"/></g><text class="cls-9" transform="translate(115.48 177.77)">4</text></g></g></svg>