<svg xmlns="http://www.w3.org/2000/svg" xmlns:xlink="http://www.w3.org/1999/xlink" viewBox="0 0 159.95 228.18"><defs><style>.cls-1{fill:none;}.cls-2,.cls-6{fill:#941a1d;}.cls-3,.cls-7{fill:#fef7df;}.cls-4{clip-path:url(#clip-path);}.cls-5,.cls-9{fill:#231f20;}.cls-5,.cls-6,.cls-7,.cls-8{stroke:#231f20;stroke-miterlimit:10;}.cls-8{fill:#fdc010;}.cls-9{font-size:15px;font-family:AppleMyungjo;}</style><clipPath id="clip-path"><rect class="cls-1" x="14.57" y="48.7" width="110.24" height="157.05" rx="8.8"/></clipPath></defs><title>card1</title><g id="Layer_2" data-name="Layer 2"><g id="_card_1" data-name=" card 1"><rect class="cls-2" x="3.14" y="40.67" width="129" height="175"/><rect class="cls-3" x="14.48" y="48.7" width="110.24" height="157.05" rx="8.8"/><g class="cls-4"><path class="cls-5" d="M78.36,214.42c-9.1-12.86-8.51-36.45-.39-42.36,4.28-3.11,7.42,1.05,12.56-1.78,9.09-5,5.76-21.64,13.74-41.92,1.39-3.54,10-25.48,18.06-25,15.46,1,41.47,85.91,11.78,113.71C119.34,230.93,90.21,231.17,78.36,214.42Z"/><ellipse class="cls-6" cx="108.77" cy="48.7" rx="50.67" ry="48.2"/><path class="cls-5" d="M12.93,124.63c3.93-1.39,9.23,6.8,11.65,12.79,3.18,7.85,4.91,20.56,5.12,22.14.73,5.49,1,10.12,2,10.32,1.55.32,2.42-10.45,6-11.8,1.63-.62,3.11,1,4,2,6.92,7.72,18.45,40.86,11.09,56.56-.88,1.88-2.64,4.79-8.25,7.38-3.64,1.68-23.3,10.75-35.25-7.87C-7.65,189.81,3.52,128,12.93,124.63Z"/></g><ellipse class="cls-6" cx="104.79" cy="187.48" rx="14.21" ry="13.52"/><line class="cls-7" x1="19.92" y1="121" x2="15.86" y2="125.94"/><line class="cls-7" x1="21.38" y1="122.19" x2="16.85" y2="129.05"/><line class="cls-7" x1="24.12" y1="124.2" x2="17.89" y2="129.57"/><line class="cls-7" x1="25.62" y1="126.05" x2="19.99" y2="132.05"/><line class="cls-7" x1="27.24" y1="128.17" x2="21.75" y2="134.28"/><line class="cls-7" x1="28.99" y1="131.08" x2="22.43" y2="136.02"/><ellipse class="cls-8" cx="39.36" cy="156.2" rx="3.06" ry="5.84"/><ellipse class="cls-8" cx="120.63" cy="103.71" rx="3.06" ry="5.84" transform="translate(-5.26 6.45) rotate(-3)"/><line class="cls-7" x1="30.08" y1="133.59" x2="23.38" y2="138.35"/><line class="cls-7" x1="30.6" y1="136.42" x2="23.61" y2="140.74"/><line class="cls-7" x1="31.9" y1="139.29" x2="24.39" y2="142.64"/><line class="cls-7" x1="33.34" y1="142.12" x2="25.45" y2="144.44"/><line class="cls-7" x1="33.77" y1="144.19" x2="26.19" y2="147.38"/><line class="cls-7" x1="33.89" y1="147.17" x2="26.47" y2="150.7"/><line class="cls-7" x1="34.38" y1="149.36" x2="27" y2="152.99"/><line class="cls-7" x1="34.41" y1="152.69" x2="26.8" y2="155.78"/><line class="cls-7" x1="34.9" y1="154.93" x2="27.66" y2="158.81"/><line class="cls-7" x1="35.38" y1="156.9" x2="28.74" y2="161.75"/><line class="cls-7" x1="15.86" y1="118.7" x2="15.1" y2="126.88"/><line class="cls-7" x1="46.88" y1="157.77" x2="41.14" y2="163.66"/><line class="cls-7" x1="56.21" y1="178.11" x2="49.22" y2="182.43"/><line class="cls-7" x1="57.51" y1="180.98" x2="50" y2="184.33"/><line class="cls-7" x1="58.95" y1="183.81" x2="51.06" y2="186.13"/><line class="cls-7" x1="59.38" y1="185.88" x2="51.8" y2="189.07"/><line class="cls-7" x1="59.5" y1="188.86" x2="52.08" y2="192.39"/><line class="cls-7" x1="59.99" y1="191.05" x2="52.61" y2="194.68"/><line class="cls-7" x1="60.02" y1="194.38" x2="52.41" y2="197.47"/><line class="cls-7" x1="60.51" y1="196.62" x2="53.27" y2="200.5"/><line class="cls-7" x1="60.55" y1="199.11" x2="53.24" y2="202.87"/><line class="cls-7" x1="48.83" y1="160.24" x2="42.37" y2="165.31"/><line class="cls-7" x1="50.91" y1="162.64" x2="43.83" y2="166.8"/><line class="cls-7" x1="51.83" y1="164.54" x2="45.26" y2="169.47"/><line class="cls-7" x1="52.67" y1="167.4" x2="46.33" y2="172.63"/><line class="cls-7" x1="53.68" y1="169.41" x2="47.4" y2="174.72"/><line class="cls-7" x1="54.52" y1="172.63" x2="47.88" y2="177.48"/><line class="cls-7" x1="55.54" y1="174.69" x2="49.45" y2="180.21"/><line class="cls-7" x1="62.02" y1="203.44" x2="53.84" y2="204.25"/><line class="cls-7" x1="99.63" y1="122.88" x2="107.79" y2="123.87"/><line class="cls-7" x1="100.41" y1="119.83" x2="108.36" y2="121.9"/><line class="cls-7" x1="101.05" y1="116.72" x2="108.66" y2="119.83"/><line class="cls-7" x1="102.01" y1="114.84" x2="109.92" y2="117.07"/><line class="cls-7" x1="103.77" y1="112.44" x2="111.77" y2="114.31"/><line class="cls-7" x1="104.76" y1="110.42" x2="112.79" y2="112.18"/><line class="cls-7" x1="106.81" y1="107.8" x2="114.69" y2="110.13"/><line class="cls-7" x1="107.82" y1="105.73" x2="115.91" y2="107.23"/><line class="cls-7" x1="109.35" y1="103.77" x2="117.41" y2="105.4"/><line class="cls-7" x1="94.24" y1="141.45" x2="102.46" y2="141.53"/><line class="cls-7" x1="94.11" y1="138.28" x2="102.25" y2="139.45"/><line class="cls-7" x1="94.59" y1="136.22" x2="102.8" y2="136.47"/><line class="cls-7" x1="95.71" y1="133.46" x2="103.93" y2="133.34"/><line class="cls-7" x1="96.18" y1="131.26" x2="104.4" y2="131.03"/><line class="cls-7" x1="97.53" y1="128.23" x2="105.74" y2="128.58"/><line class="cls-7" x1="98.02" y1="125.98" x2="106.22" y2="125.46"/><line class="cls-7" x1="110.91" y1="99.47" x2="117.8" y2="103.94"/><line class="cls-7" x1="79.56" y1="165.53" x2="85.26" y2="172.42"/><line class="cls-7" x1="83.07" y1="165.84" x2="89.61" y2="172.1"/><line class="cls-7" x1="85.85" y1="163.92" x2="92.11" y2="170.58"/><line class="cls-7" x1="90.07" y1="159.51" x2="98.32" y2="160.09"/><line class="cls-7" x1="90.63" y1="157.09" x2="98.88" y2="157.56"/><line class="cls-7" x1="92.11" y1="153.83" x2="100.33" y2="154.95"/><line class="cls-7" x1="92.69" y1="151.36" x2="100.94" y2="151.52"/><line class="cls-7" x1="93.79" y1="148.92" x2="102.04" y2="149.22"/><line class="cls-7" x1="70.12" y1="172.63" x2="76.57" y2="178.63"/><line class="cls-7" x1="71.03" y1="169.11" x2="77.55" y2="175.02"/><line class="cls-7" x1="94.09" y1="144.97" x2="102.47" y2="146.46"/><line class="cls-7" x1="67.51" y1="183.39" x2="75.65" y2="184.76"/><line class="cls-7" x1="67.87" y1="180.08" x2="75.79" y2="182.65"/><line class="cls-7" x1="69.06" y1="176.01" x2="76.13" y2="180.59"/><line class="cls-7" x1="67.05" y1="195.16" x2="74.82" y2="197.82"/><line class="cls-7" x1="67.58" y1="192.15" x2="75.58" y2="194.05"/><line class="cls-7" x1="67.05" y1="189.96" x2="75.25" y2="190.62"/><line class="cls-7" x1="67.57" y1="187.14" x2="75.79" y2="186.83"/><line class="cls-7" x1="67.54" y1="203.9" x2="75.82" y2="204.59"/><line class="cls-7" x1="66.39" y1="200.5" x2="74.5" y2="202.02"/><line class="cls-7" x1="66.74" y1="198.37" x2="74.82" y2="199.85"/><line class="cls-7" x1="88.77" y1="163.12" x2="94.32" y2="169.27"/><ellipse class="cls-8" cx="78.98" cy="169.41" rx="3.06" ry="5.84" transform="translate(-43.49 28.2) rotate(-15.94)"/><line class="cls-7" x1="87.66" y1="161.82" x2="95.89" y2="162.83"/><text class="cls-9" transform="translate(100 193.34)">1</text></g></g></svg>