<svg xmlns="http://www.w3.org/2000/svg" viewBox="0 0 136.15 194.08"><defs><style>.cls-1{fill:#941a1d;}.cls-2{fill:#fef7df;}.cls-3{font-size:15px;font-family:AppleMyungjo;}.cls-3,.cls-6{fill:#231f20;}.cls-4{fill:none;}.cls-4,.cls-5{stroke:#231f20;stroke-miterlimit:10;}.cls-5{fill:#593e98;}</style></defs><title>card6_1</title><g id="Layer_2" data-name="Layer 2"><g id="_card_1" data-name=" card 1"><rect class="cls-1" width="129" height="175"/><rect class="cls-2" x="9.38" y="8.98" width="110.24" height="157.05" rx="8.8"/></g><g id="card_4_mask" data-name="card 4 mask"><text class="cls-3" transform="translate(96.16 159.57)">6</text></g><g id="Layer_10" data-name="Layer 10"><line class="cls-4" x1="64.6" y1="64.47" x2="58" y2="58.4"/><line class="cls-4" x1="65.41" y1="63.38" x2="72.55" y2="58.16"/><path class="cls-4" d="M36.32,41.73c2.47,5.11.89,25,.11,42"/><line class="cls-4" x1="93.28" y1="61.64" x2="81.11" y2="93.86"/><line class="cls-4" x1="64.42" y1="34.99" x2="64.54" y2="85.64"/><polygon class="cls-5" points="35.91 52.94 33.48 59.47 27.14 59.47 31.52 63.95 30.12 70.47 37.03 65.62 42.44 70.47 41.69 63.2 47.85 61.7 40.2 59.09 35.91 52.94"/><polygon class="cls-5" points="67.36 59.64 60.61 66.24 52.84 62.57 55.62 70.59 50.13 77.77 61.39 75.83 65.2 84.9 68.5 75.56 76.91 77.29 69.05 69.67 67.36 59.64"/><path class="cls-6" d="M21,80.07c2.23-5,10.66-7.66,17.43-6.69,4.33.62,4.63,2.25,11,5A55.55,55.55,0,0,0,69.59,83c11.38.17,13.2-4.64,20.17-2.93,6.82,1.68,13.8,6.61,14.68,14.64.69,6.31,2.09,17.28,5.83,26.36,1.55,3.76-5.14,8.88-9,8.78-13.38-10-17.66-6.17-29.35,2.51-7.13,5.29-10.79-5.33-21.09-5.44-21.1-.22-24.45,11.48-26.6,9.2C17.43,129,7.43,112,14.56,101c2-3.08,5.83-6.46,6.42-12.55C21.41,84.1,19.75,82.84,21,80.07Z"/><path class="cls-6" d="M65.47,38.26c-2.33.39-5.73-3.07-5-6.28.54-2.32,3.18-4.22,5.23-3.66,2.41.65,3.26,4.49,2.35,7.06C68,35.68,67.17,38,65.47,38.26Z"/><line class="cls-4" x1="64.51" y1="48.07" x2="71.65" y2="42.85"/><line class="cls-4" x1="64.41" y1="54.99" x2="57.82" y2="48.92"/><line class="cls-4" x1="64.51" y1="55.16" x2="71.65" y2="49.93"/><path class="cls-6" d="M70.84,44.14c-1.53-1-.94-5.22,1.72-7.11,1.92-1.36,4.67-1.32,5.39.16.85,1.74-1.39,4.93-3.68,6.29C74,43.63,72,44.84,70.84,44.14Z"/><path class="cls-6" d="M58.65,49.73c-1.47,1.17-5.31-.35-6.14-3.21-.6-2.07.45-4.56,2.12-4.87,2-.37,4.18,2.4,4.63,4.8C59.31,46.73,59.71,48.87,58.65,49.73Z"/><path class="cls-6" d="M70,51.85c-1.07-1.72,1.14-5.66,4.37-6.19,2.34-.38,4.9,1.05,5,2.88.12,2.16-3.22,4.2-5.9,4.38C73.19,52.94,70.8,53.1,70,51.85Z"/><path class="cls-6" d="M59.56,59.87c-1.63,1.3-5.89-.36-6.79-3.52-.66-2.27.51-5,2.37-5.39,2.18-.41,4.64,2.64,5.12,5.29C60.32,56.56,60.76,58.91,59.56,59.87Z"/><path class="cls-6" d="M71.49,58.76c-.71-1.9,2.24-5.31,5.52-5.19,2.36.09,4.59,2,4.32,3.82-.31,2.14-4,3.47-6.65,3.12C74.37,60.46,72,60.15,71.49,58.76Z"/><path class="cls-6" d="M36.49,43.29c-2,.35-4.93-2.69-4.28-5.51.47-2,2.74-3.71,4.5-3.22,2.08.57,2.81,3.95,2,6.21C38.65,41,38,43,36.49,43.29Z"/><line class="cls-4" x1="37.49" y1="50.82" x2="29.73" y2="46.34"/><line class="cls-4" x1="37.69" y1="51.19" x2="44.83" y2="45.97"/><path class="cls-6" d="M31.4,46.8c-1.08,1.79-5.65,1.69-7.59-1-1.4-1.91-1.25-4.9.37-5.87,1.91-1.14,5.26.88,6.63,3.19C31,43.43,32.19,45.5,31.4,46.8Z"/><path class="cls-6" d="M41.76,48.57c-.88-1.32,1.2-4.51,4.05-5,2.06-.39,4.25.65,4.27,2.09,0,1.7-3,3.44-5.32,3.68C44.49,49.32,42.4,49.53,41.76,48.57Z"/><path class="cls-6" d="M94.29,62.14c-2.31-.49-4.2-5-2.31-7.67,1.36-1.95,4.51-2.75,6.21-1.48,2,1.5,1.38,5.38-.41,7.44C97.57,60.67,96,62.5,94.29,62.14Z"/><line class="cls-4" x1="89.79" y1="70.91" x2="98.35" y2="68.68"/><line class="cls-4" x1="87.15" y1="77.3" x2="83.25" y2="69.23"/><line class="cls-4" x1="87.18" y1="77.5" x2="95.74" y2="75.27"/><path class="cls-6" d="M97.12,69.59c-1.07-1.45,1-5.2,4.22-6,2.29-.56,4.83.5,5,2.14.14,1.93-3.11,4.07-5.74,4.48C100.24,70.28,97.9,70.65,97.12,69.59Z"/><path class="cls-6" d="M83.72,70.29c-1.79.55-4.8-2.28-4.52-5.24C79.41,62.91,81.3,61,83,61.3c2,.38,3,3.77,2.54,6.17C85.45,67.75,85,69.88,83.72,70.29Z"/><path class="cls-6" d="M93.52,76.45c-.37-2,3.14-4.84,6.34-4.14,2.31.5,4.17,2.78,3.59,4.52-.68,2-4.53,2.71-7.09,1.9C96.06,78.63,93.78,77.9,93.52,76.45Z"/></g></g></svg>