<svg xmlns="http://www.w3.org/2000/svg" xmlns:xlink="http://www.w3.org/1999/xlink" viewBox="0 0 134 219.44"><defs><style>.cls-1,.cls-7{fill:none;}.cls-2,.cls-8{fill:#941a1d;}.cls-3{clip-path:url(#clip-path);}.cls-4{fill:#fef7df;}.cls-5,.cls-6{fill:#231f20;}.cls-6,.cls-7,.cls-8{stroke:#231f20;stroke-miterlimit:10;}.cls-9{font-size:15px;fill:#fff;font-family:AppleMyungjo;}</style><clipPath id="clip-path"><rect class="cls-1" x="9.38" y="10.8" width="110.24" height="157.05" rx="8.8"/></clipPath></defs><title>Asset 8</title><g id="Layer_2" data-name="Layer 2"><g id="_card_1" data-name=" card 1"><rect class="cls-2" y="4.03" width="129" height="175"/></g><g id="card_2_mask" data-name="card 2 mask"><g class="cls-3"><rect class="cls-2" x="5" width="129" height="175"/><rect class="cls-4" x="10.14" y="10.8" width="110.24" height="157.05" rx="8.8"/><rect class="cls-4" x="10.14" y="10.8" width="110.24" height="157.05" rx="8.8"/><path class="cls-5" d="M83.91,10c8.26,20.57,6.12,47.38,0,76.56L92.6,63.18c7.46,12.41,5.27,28.71,0,46.24L101,94.74c2.81,18.82-2.87,43.61-11.17,70.23,16.63-32.65,27.3-65.82,31.64-99.55l9.77,26.46c-1.42-18.13-1-35.1,2.79-49.94C128.74,29.36,119.74,18.58,106.09,10Z"/><path class="cls-6" d="M9.27,42.23c2.69,43,22.69,76.39,47,107.44C42.34,111.26,35.08,72.27,37,49.49l24.77,5.22c-16.85-24.49-35.06-38.83-55-40Z"/><line class="cls-7" x1="23.16" y1="96.44" x2="17.28" y2="116.28"/><line class="cls-7" x1="26.37" y1="102.39" x2="20.45" y2="119.42"/><line class="cls-7" x1="28.54" y1="107.92" x2="24.35" y2="124.44"/><line class="cls-7" x1="30.87" y1="112.55" x2="27.54" y2="129.97"/><line class="cls-7" x1="33.49" y1="117.24" x2="30.64" y2="129.69"/><line class="cls-7" x1="36.61" y1="121.68" x2="33.25" y2="133.03"/><line class="cls-7" x1="38.59" y1="125.35" x2="35.68" y2="135.19"/><line class="cls-7" x1="40.75" y1="127.07" x2="37.43" y2="138.24"/><line class="cls-7" x1="42.74" y1="131.22" x2="40" y2="140.46"/><line class="cls-7" x1="45.47" y1="134.24" x2="42.73" y2="143.48"/><line class="cls-7" x1="20.49" y1="91.53" x2="13.89" y2="110.15"/><line class="cls-7" x1="48.88" y1="134.72" x2="59.18" y2="139.62"/><line class="cls-7" x1="47.69" y1="130.89" x2="59.44" y2="133.88"/><line class="cls-7" x1="47.24" y1="123.68" x2="58.15" y2="126.4"/><line class="cls-7" x1="45.25" y1="120.06" x2="56.35" y2="122.55"/><line class="cls-7" x1="44.53" y1="114.76" x2="54.81" y2="118.21"/><line class="cls-7" x1="43.19" y1="109.89" x2="54.83" y2="113.91"/><line class="cls-7" x1="41.76" y1="105.65" x2="53.09" y2="109.29"/><line class="cls-7" x1="40.52" y1="100.68" x2="52.21" y2="105.23"/><line class="cls-7" x1="39.97" y1="93.97" x2="49.22" y2="96.69"/><line class="cls-7" x1="38.82" y1="88.98" x2="48.07" y2="91.69"/><line class="cls-7" x1="38.17" y1="77.44" x2="46.83" y2="81.68"/><line class="cls-7" x1="38.94" y1="83.81" x2="47.95" y2="86.45"/><line class="cls-7" x1="40.32" y1="98.09" x2="49.7" y2="100.32"/><line class="cls-7" x1="47.24" y1="127.44" x2="57.99" y2="130.27"/><path class="cls-6" d="M54.89,9.32a44.26,44.26,0,0,0-8.22,19.05c4-3.62,7.81-6.31,11.37-6.61,4-.59,9.48.24,15.41,1.55A70.5,70.5,0,0,0,54.89,9.32Z"/><line class="cls-7" x1="112.77" y1="9.81" x2="113.46" y2="19.43"/><line class="cls-7" x1="116.29" y1="9.96" x2="114.9" y2="19.5"/><line class="cls-7" x1="118.73" y1="10.51" x2="118.01" y2="20.59"/><line class="cls-7" x1="120.1" y1="10.99" x2="122.62" y2="24.66"/><line class="cls-7" x1="122.39" y1="11.84" x2="125.17" y2="26.87"/><path class="cls-6" d="M10.81,105.72,42.67,144.1c0,22.23,4.63,43.68,11.94,64.67l-26.84,10c-2-24.46-5.89-46.82-17.34-64.79Z"/><path class="cls-8" d="M111.26,131.21,71,144.1c-18.69-34.79-28.67-72-35.36-110.39L75.9,20.82C80.56,64.37,93.11,100.48,111.26,131.21Z"/></g><text class="cls-9" transform="translate(99.25 32.3)">2</text></g></g></svg>