<svg xmlns="http://www.w3.org/2000/svg" xmlns:xlink="http://www.w3.org/1999/xlink" viewBox="0 0 144.33 194.08"><defs><style>.cls-1,.cls-6{fill:none;}.cls-2,.cls-7{fill:#941a1d;}.cls-3{fill:#fef7df;}.cls-4{font-size:15px;font-family:AppleMyungjo;}.cls-4,.cls-8{fill:#231f20;}.cls-5{clip-path:url(#clip-path);}.cls-6,.cls-7,.cls-8{stroke:#231f20;stroke-miterlimit:10;}</style><clipPath id="clip-path"><rect class="cls-1" x="13.26" y="9.7" width="110.24" height="157.05" rx="8.8"/></clipPath></defs><title>card5_1</title><g id="Layer_2" data-name="Layer 2"><g id="_card_1" data-name=" card 1"><rect class="cls-2" x="4.72" width="129" height="175"/><rect class="cls-3" x="14.1" y="8.98" width="110.24" height="157.05" rx="8.8"/></g><g id="card_4_mask" data-name="card 4 mask"><text class="cls-4" transform="translate(104.34 159.57)">5</text></g><g id="card_5_mask" data-name="card 5 mask"><g class="cls-5"><path class="cls-6" d="M32.07,122.62c-5.76-9.48-11.61-18.19-13.43-27.23"/><line class="cls-7" x1="25.08" y1="110.53" x2="14.97" y2="104.96"/><path class="cls-8" d="M14.79,106.3c1,0,1-1.74,1-1.74s-4.77-4-7.83-4.64C8,99.92,11.14,105.79,14.79,106.3Z"/><path class="cls-8" d="M17.94,96.19c.81.83,2.87-.15,2.87-.15s1.09-6.19-.46-9.09C20.35,87,15.76,92.9,17.94,96.19Z"/><line class="cls-7" x1="24.12" y1="110" x2="32.62" y2="102.68"/><path class="cls-8" d="M31.8,105.64c-1.17,0-2-2.16-2-2.16s3.56-5.19,6.71-6.14C36.53,97.34,35.69,104.86,31.8,105.64Z"/><line class="cls-7" x1="29.65" y1="117.56" x2="22.02" y2="115.83"/><path class="cls-2" d="M23,117.2c1-.2.7-1.89.7-1.89s-5.41-3.06-8.53-3.17C15.19,112.14,19.34,117.35,23,117.2Z"/><line class="cls-7" x1="28.32" y1="117.29" x2="36.82" y2="109.98"/><path class="cls-8" d="M36,112.94c-1.17,0-2-2.16-2-2.16s3.56-5.19,6.71-6.14C40.73,104.64,39.89,112.16,36,112.94Z"/><path class="cls-6" d="M.12,166.82c16.2-4,27.31-12.83,33.32-24.52"/><path class="cls-8" d="M33.23,144.37c-1.09,0-2.38-.33-2-2a9.3,9.3,0,0,1,5.88-5.95S36.84,143.53,33.23,144.37Z"/><path class="cls-6" d="M24.24,154c5.34,2.46,8.72,4,9.2,4.23"/><path class="cls-8" d="M31.51,159.36c.12-1.29.77-2.86,2.66-2.57,3.29,1,5.43,3,6.13,6.33C40.3,163.12,31.94,163.53,31.51,159.36Z"/><line class="cls-6" x1="16.78" y1="160.31" x2="23.71" y2="162.39"/><path class="cls-8" d="M22.52,162.58c-.32-.61-.43-1.34.7-1.17a10.06,10.06,0,0,1,5.24,3.12S24,164.56,22.52,162.58Z"/><path class="cls-6" d="M11.69,154.86c30.86-6.7,61.8-10.44,78.88-27.47"/><line class="cls-6" x1="52.03" y1="146.06" x2="64.31" y2="151.43"/><path class="cls-2" d="M63.42,152.32c-.67-1,1-2.2,1-2.2s7.15,2,9.87,4.56C74.31,154.68,66.4,155.56,63.42,152.32Z"/><line class="cls-7" x1="73.92" y1="138.63" x2="87.71" y2="138.17"/><path class="cls-2" d="M87.18,139.69c-1.08-.57-.15-2.41-.15-2.41s7.24-1.64,10.85-.69C97.88,136.59,91.34,141.13,87.18,139.69Z"/><path class="cls-2" d="M90.59,130.21c-1.38,0-2.32-2.53-2.32-2.53s4.26-6.19,8-7.36C96.28,120.32,95.21,129.24,90.59,130.21Z"/><line class="cls-7" x1="74.33" y1="138.85" x2="73.22" y2="125.5"/><path class="cls-2" d="M71.44,128.71c1,1,3.49-.18,3.49-.18s1.32-7.41-.57-10.87C74.36,117.66,68.77,124.78,71.44,128.71Z"/><line class="cls-7" x1="63.12" y1="143.07" x2="62.6" y2="133.73"/><path class="cls-2" d="M61.7,134.51c.79.92,2.39-.38,2.39-.38s0-7.42-1.69-10.74C62.4,123.39,59.39,130.76,61.7,134.51Z"/><line class="cls-7" x1="52.72" y1="146.5" x2="52.2" y2="137.16"/><path class="cls-2" d="M50.74,137.86c.7,1,2.42-.13,2.42-.13s.8-7.38-.57-10.86C52.59,126.87,48.84,133.9,50.74,137.86Z"/><path class="cls-6" d="M43.92,148l12.26,9"/><path class="cls-8" d="M50.46,155.37c0-1.43.48-3.18,2.64-2.87a10.49,10.49,0,0,1,7.64,7S51.46,160,50.46,155.37Z"/><line class="cls-6" x1="62.85" y1="142.97" x2="72.95" y2="143.59"/><path class="cls-2" d="M72.36,145.09c-1-.65,0-2.42,0-2.42s7.35-1.08,10.88.15C83.27,142.82,76.4,146.84,72.36,145.09Z"/><path class="cls-6" d="M12.47,167.64c20.87-51.46,43-100,35.14-142.49"/><line class="cls-6" x1="44.92" y1="76.59" x2="56.79" y2="70.36"/><line class="cls-7" x1="49.79" y1="43.3" x2="60.57" y2="25.47"/><path class="cls-2" d="M58.2,35.13C56.76,35.67,55,33,55,33s2.69-8.78,6.29-11.5C61.31,21.51,62.78,32.32,58.2,35.13Z"/><path class="cls-2" d="M50.38,26.6c-.86,1.49-4.13.42-4.13.42s-3.63-9.56-2.39-14.49C43.86,12.53,52.38,20.89,50.38,26.6Z"/><line class="cls-7" x1="50.21" y1="42" x2="36.99" y2="33.39"/><path class="cls-2" d="M40.74,37.21c1.56-.32,1.77-3.68,1.77-3.68S35.63,27.14,31,26.71C31,26.71,35.21,37.25,40.74,37.21Z"/><line class="cls-7" x1="47.43" y1="66.44" x2="35.24" y2="58.05"/><path class="cls-2" d="M38.11,61.83c1.24-.39,1.55-3.35,1.55-3.35s-5.15-5.14-8.77-5.21C30.89,53.27,33.74,62.23,38.11,61.83Z"/><line class="cls-7" x1="44.87" y1="76.22" x2="32.68" y2="67.83"/><path class="cls-2" d="M33.38,70.16C34.86,70,35.25,67,35.25,67s-6-6.49-10.27-7.35C25,59.67,28.24,69.63,33.38,70.16Z"/><path class="cls-2" d="M55.07,69.62C54.52,71,57,72.73,57,72.73s8.41-2.29,11.08-5.64C68.08,67.09,57.85,65.34,55.07,69.62Z"/><line class="cls-7" x1="49.15" y1="52.68" x2="64.75" y2="38.87"/><path class="cls-2" d="M59.39,45.59c-1.51.06-2.41-3-2.41-3s5-7.39,9.11-8.82C66.09,33.8,64.48,44.37,59.39,45.59Z"/><line class="cls-7" x1="49.23" y1="54.76" x2="33.44" y2="40.68"/><path class="cls-2" d="M38.84,50c1.45.06,2.27-2.86,2.27-2.86s-4.9-7.09-8.92-8.46C32.19,38.63,33.91,48.8,38.84,50Z"/><line class="cls-6" x1="46.91" y1="66.92" x2="59.25" y2="58.1"/><path class="cls-2" d="M58.35,59.91c-1.49-.26-1.8-3.4-1.8-3.4s6.24-6.18,10.56-6.71C67.11,49.8,63.55,59.79,58.35,59.91Z"/><path class="cls-6" d="M12.54,151.78c43.12-35,86-66.78,99.57-107.76"/><line class="cls-6" x1="94.28" y1="77.77" x2="107.67" y2="78.4"/><line class="cls-7" x1="106.34" y1="56.59" x2="124.39" y2="46.18"/><path class="cls-2" d="M114.07,53.32c-1.46-.73-.77-4.12-.77-4.12s8.49-4.51,13.17-3.7C126.47,45.5,119.54,54.84,114.07,53.32Z"/><path class="cls-2" d="M112.75,45c-1.3.82-3.31-1.42-3.31-1.42-1.12-.34.2-9.53,4.48-12.59C113.92,30.94,116.75,41.24,112.75,45Z"/><line class="cls-7" x1="106.38" y1="56.41" x2="98.96" y2="42.48"/><path class="cls-2" d="M100.19,47.78c1.32.54,3.15-1.85,3.15-1.85s-1.91-8.17-5.11-10.79C98.23,35.14,96.07,45.05,100.19,47.78Z"/><line class="cls-7" x1="94.5" y1="77.33" x2="87.88" y2="64.1"/><path class="cls-2" d="M87.78,67.74c1.37.38,3-2.19,3-2.19s-2.62-7.87-6-10.09C84.71,55.46,83.45,65.51,87.78,67.74Z"/><line class="cls-7" x1="88" y1="84.86" x2="83.42" y2="75.71"/><path class="cls-2" d="M82.29,78.12c1.61.66,3.82-2.24,3.82-2.24s-2.33-9.95-6.23-13.15C79.88,62.73,77.28,74.78,82.29,78.12Z"/><path class="cls-2" d="M105.31,76.54c-1,1.36.94,4.65.94,4.65s9.18,1.36,13-1.35C119.2,79.84,109.49,72.77,105.31,76.54Z"/><line class="cls-7" x1="98.7" y1="69.49" x2="119.03" y2="64.93"/><path class="cls-2" d="M111.58,68.19c-1.48-1-1-5.07-1-5.07s8.19-5,12.84-3.7C123.47,59.42,117,70.37,111.58,68.19Z"/><line class="cls-7" x1="99.26" y1="70.01" x2="92.24" y2="50.06"/><path class="cls-2" d="M93,57.44c1.33.63,3.83-1.57,3.83-1.57s-.38-8.13-3.33-10.93C93.54,44.94,89.11,54.46,93,57.44Z"/><line class="cls-7" x1="70.03" y1="104.04" x2="61.16" y2="98.93"/><path class="cls-2" d="M63.4,102.58c1.7-.34,1.95-4,1.95-4s-7.43-7-12.44-7.53C52.91,91.07,57.38,102.56,63.4,102.58Z"/><line class="cls-7" x1="49.59" y1="116.29" x2="45.14" y2="107.08"/><path class="cls-2" d="M44.52,110.74c1.6.68,3.85-2.19,3.85-2.19s-2.2-10-6-13.22C42.32,95.33,39.56,107.34,44.52,110.74Z"/><line class="cls-6" x1="85.71" y1="87.15" x2="100.86" y2="87.86"/><path class="cls-2" d="M99.18,89.32c-.44-1.56,2.31-4,2.31-4s8.55,1.45,11,5.08C112.51,90.35,101.67,94.05,99.18,89.32Z"/><path class="cls-6" d="M77,95.73l10.1.53"/><path class="cls-8" d="M86.88,97.84c-.37-1.24-.35-2.94,1.51-3.38,3.42-.29,6.16.8,8,3.62C96.43,98.08,88.81,101.55,86.88,97.84Z"/><path class="cls-6" d="M77.11,96.53c-2-5.53-3.22-9-3.4-9.53"/><path class="cls-8" d="M75,86.58c-1.4.8-3.59,1.42-5.18-.15-2.25-3.06-2.35-6,.26-8.81C70.08,77.62,78.72,83.39,75,86.58Z"/><path class="cls-6" d="M69.22,104.21l19.06,3.21"/><path class="cls-8" d="M78.36,109.73c-.9-1.62-1.39-4,1.16-5.12,4.83-1.33,9.09-.56,12.64,2.88C92.16,107.49,82.26,114.4,78.36,109.73Z"/><path class="cls-6" d="M69.57,104.4c-4-10.49-6.47-17.15-6.82-18.09"/><path class="cls-8" d="M65.72,90.42c-1,1.22-2.56,2.31-4.1.52-2.34-3.62-3-7.38-1.43-11.33C60.19,79.61,68.07,85.83,65.72,90.42Z"/><path class="cls-6" d="M60.57,111.94a177,177,0,0,1-50.25,15.39"/><path class="cls-6" d="M41.16,91.9C31.34,83,21.66,75,16.49,65.29"/><line class="cls-7" x1="28.21" y1="80.14" x2="16.25" y2="73.27"/><path class="cls-2" d="M16,74.87c1.22,0,1.27-2.06,1.27-2.06S11.65,68,8,67.1C8,67.1,11.66,74.18,16,74.87Z"/><path class="cls-2" d="M16,66.44c1.2.68,3.24-1.14,3.24-1.14S18.35,57.83,15.58,55C15.58,55,12.35,63.42,16,66.44Z"/><line class="cls-7" x1="27.75" y1="80.15" x2="34.99" y2="68.88"/><path class="cls-2" d="M35.06,72.55c-1.32.42-3-1.8-3-1.8s2.31-7.16,5.6-9.33C37.66,61.42,39.25,70.33,35.06,72.55Z"/><line class="cls-7" x1="36.67" y1="86.94" x2="27.33" y2="87.56"/><path class="cls-2" d="M29,88.79c1.07-.57.15-2.42.15-2.42s-7.23-1.66-10.85-.71C18.25,85.66,24.78,90.21,29,88.79Z"/></g></g></g></svg>