<svg xmlns="http://www.w3.org/2000/svg" xmlns:xlink="http://www.w3.org/1999/xlink" viewBox="0 0 129 176.61"><defs><style>.cls-1,.cls-10,.cls-12{fill:none;}.cls-2{fill:#941a1d;}.cls-3{fill:#fef7df;}.cls-4{clip-path:url(#clip-path);}.cls-5{fill:#231f20;}.cls-6,.cls-8{fill:#fdc010;}.cls-10,.cls-6,.cls-7,.cls-9{stroke:#231f20;}.cls-10,.cls-12,.cls-6,.cls-7,.cls-9{stroke-miterlimit:10;}.cls-11,.cls-7{fill:#e72c25;}.cls-9{fill:#86a89a;}.cls-12{stroke:#fdc010;stroke-width:2.6px;}.cls-13{font-size:15px;fill:#fff;font-family:AppleMyungjo;}</style><clipPath id="clip-path"><rect class="cls-1" x="9.35" y="8.84" width="110.24" height="157.05" rx="8.8"/></clipPath></defs><title>card3_1</title><g id="Layer_2" data-name="Layer 2"><g id="_card_1" data-name=" card 1"><rect class="cls-2" width="129" height="175"/><rect class="cls-3" x="9.35" y="8.84" width="110.24" height="157.05" rx="8.8"/></g><g id="card_3_mask" data-name="card 3 mask"><g class="cls-4"><path class="cls-5" d="M119.62,176.61H8.47v-81c37.94-9.8,75.17-11.81,111.15,0Z"/><path class="cls-6" d="M46.77,23.85c-3,1.63-9.45-4.79-10.84-6.16-1.62-1.6-2.43-2.4-2.25-2.75.65-1.32,14.19,3.88,14.12,7.44A1.92,1.92,0,0,1,46.77,23.85Z"/><path class="cls-6" d="M42.74,24.6c-3,1.6-9.38-4.91-10.75-6.3-1.6-1.62-2.4-2.43-2.22-2.78.68-1.32,14.15,4.07,14,7.62A1.88,1.88,0,0,1,42.74,24.6Z"/><path class="cls-6" d="M39.48,25.51c-2.78,1.91-9.87-3.85-11.39-5.08-1.76-1.43-2.65-2.15-2.51-2.52.53-1.37,14.51,2.49,14.78,6A1.87,1.87,0,0,1,39.48,25.51Z"/><path class="cls-6" d="M36.34,27.93c-2.74,2-9.94-3.66-11.48-4.87-1.79-1.4-2.69-2.1-2.56-2.47.5-1.38,14.55,2.22,14.89,5.75A1.89,1.89,0,0,1,36.34,27.93Z"/><path class="cls-6" d="M45.2,30.21a13,13,0,0,1-4.87,2.89,15.17,15.17,0,0,1-7.32.12,10.19,10.19,0,0,0-4.26-.6,8,8,0,0,0-2.44.72c-2.53,1.19-2.48,2.68-4.76,3.74-.62.29-2.36,1.1-3.9.36a4.32,4.32,0,0,1-1.95-2.53c-.22-.57-1.08-2.76,0-4.46.8-1.26,2.23-1.61,3.66-1.93,3.4-.78,4.45.41,7.56,0C29,28.24,30.38,27.47,33,26a44.31,44.31,0,0,0,6.22-4.34c2.36-2,3.4-3.28,5.36-3.38,1-.05,1.68.24,2.2-.24,1-.92-.26-3.09.73-4,.52-.47,1.34-.3,1.83-.24,4.3.55,7.62-3.52,9-2.53,1.14.8.17,4.36-1,6.87C55.8,21.64,52.24,24.55,45.2,30.21Z"/><path class="cls-7" d="M52,20.15C49,21,42.77,28.9,42.49,29c-1.33.24,12-3.83,12.26-6.44C54.84,21.3,53.12,19.81,52,20.15Z"/><path class="cls-7" d="M53.79,27.77c-3-.59-11.8,2.5-12.07,2.43-1.3-.37,12.38,2.17,13.63.39C55.92,29.76,55,28,53.79,27.77Z"/><path class="cls-7" d="M53.91,24.43C50.83,24.37,42.65,29,42.37,29,41,28.82,55,29,55.93,27,56.36,26.06,55.12,24.46,53.91,24.43Z"/><path class="cls-7" d="M54.93,32.76c-2.06-1.38-10.23-1-10.4-1.16-.84-.7,8.6,5.43,10.35,4.15A2.13,2.13,0,0,0,54.93,32.76Z"/><path class="cls-7" d="M55.68,37.16c-1.66-1.64-9.32-2.71-9.46-2.87-.65-.79,7,6.53,8.87,5.64A2,2,0,0,0,55.68,37.16Z"/><path class="cls-6" d="M39.59,30.23c4.89,3,8.72,6.75,14.77,14.31.48,2-5.69-18.39-10.32-18.64C41.9,25.78,39.12,28.45,39.59,30.23Z"/><path class="cls-8" d="M39,29.29c4.48,2.54,8.08,5.8,13.85,12.52.53,1.85-6.05-16.92-10.16-16.87C40.82,25,38.51,27.65,39,29.29Z"/><circle class="cls-5" cx="18.85" cy="32" r="0.45"/><path class="cls-6" d="M9.8,38.76l5.43-4.14a.11.11,0,0,1,.16,0l1.14,2.25a.11.11,0,0,1-.07.15L9.89,39A.11.11,0,0,1,9.8,38.76Z"/><rect class="cls-5" x="49.7" y="13.63" width="0.76" height="3.28" rx="0.33" transform="translate(1.32 -3.81) rotate(4.41)"/><rect class="cls-5" x="52.04" y="13.33" width="0.76" height="3.28" rx="0.33" transform="translate(1.31 -3.99) rotate(4.41)"/><path class="cls-5" d="M54.43,18.62h0a.37.37,0,0,0,.4-.35A9.78,9.78,0,0,0,55.24,13a.39.39,0,0,0-.35-.41h0a.39.39,0,0,0-.41.35,9.14,9.14,0,0,1-.4,5.24A.37.37,0,0,0,54.43,18.62Z"/><path class="cls-5" d="M30.63,21.8h0a.36.36,0,0,0-.47-.14,7.17,7.17,0,0,0-3.75,2.43.36.36,0,0,0-.07.49h0a.35.35,0,0,0,.48.14,6.72,6.72,0,0,1,3.75-2.42A.36.36,0,0,0,30.63,21.8Z"/><path class="cls-5" d="M34.84,19.78h0a.34.34,0,0,0-.45-.15,6.32,6.32,0,0,0-3.52,2.27.35.35,0,0,0-.05.48h0a.35.35,0,0,0,.46.16,6,6,0,0,1,3.52-2.28A.34.34,0,0,0,34.84,19.78Z"/><path class="cls-5" d="M38.18,18.29h0c-.08-.12-.22-.18-.3-.12a3.07,3.07,0,0,0-2.05,1.33c-.08.05-.09.19,0,.32h0c.08.12.22.18.3.12a2.94,2.94,0,0,1,2.05-1.33C38.25,18.56,38.26,18.42,38.18,18.29Z"/><path class="cls-9" d="M38.42,67a29.18,29.18,0,0,0-3.83,7.61c-.12.31.36.6.5.3a15.54,15.54,0,0,1,5.84-6.63.26.26,0,0,0-.06-.44c-.81-.44-1.67-1.31-2.33-1A.25.25,0,0,0,38.42,67Z"/><path class="cls-6" d="M48.51,57.57a39.75,39.75,0,0,0-12-2.54.46.46,0,0,0-.32.83c2.67,1.57,7.43,3.74,11,5.78a.44.44,0,0,0,.64-.25c.44-1.32,1.51-2.9.84-3.7A.62.62,0,0,0,48.51,57.57Z"/><path class="cls-6" d="M46.21,59.58a40.13,40.13,0,0,0-11.94-2.71.46.46,0,0,0-.33.83c2.65,1.6,7.37,3.84,10.92,5.93a.44.44,0,0,0,.64-.24c.46-1.32,1.56-2.87.9-3.68A.5.5,0,0,0,46.21,59.58Z"/><path class="cls-6" d="M52.09,56.33a39.79,39.79,0,0,0-11.87-3,.46.46,0,0,0-.35.82c2.61,1.67,7.27,4,10.77,6.21a.44.44,0,0,0,.65-.23c.49-1.3,1.63-2.83,1-3.66A.49.49,0,0,0,52.09,56.33Z"/><path class="cls-6" d="M55.21,55.25a40.49,40.49,0,0,0-11.87-3,.46.46,0,0,0-.35.82c2.61,1.67,7.27,4,10.77,6.21a.45.45,0,0,0,.65-.23c.49-1.3,1.62-2.83,1-3.65A.42.42,0,0,0,55.21,55.25Z"/><path class="cls-6" d="M59.54,54.49a40.4,40.4,0,0,0-11.87-3,.46.46,0,0,0-.35.82c2.61,1.67,7.27,4,10.77,6.21a.44.44,0,0,0,.65-.23c.49-1.3,1.63-2.83,1-3.65A.42.42,0,0,0,59.54,54.49Z"/><path class="cls-7" d="M59.29,59.44a4.87,4.87,0,0,1-2.86,1.91,9.46,9.46,0,0,1-4.46.39,6.61,6.61,0,0,0-2.63-.16,5.21,5.21,0,0,0-1.46.53c-1.49.8-1.4,1.68-2.75,2.4a3,3,0,0,1-2.36.38,2.52,2.52,0,0,1-1.3-1.4,2.91,2.91,0,0,1-.19-2.61,3.26,3.26,0,0,1,2.15-1.29c2-.61,2.74,0,4.62-.34,5.71-6.9,7-6.64,10.37-6.78.61-.07,1.33-.23,1.33-.23S61.32,56.42,59.29,59.44Z"/><path class="cls-7" d="M67.54,62.38c-1.41,1.89-3,2.38-4.87,2.89a15,15,0,0,1-7.32.12,10.55,10.55,0,0,0-4.26-.6,8.51,8.51,0,0,0-2.44.73c-2.53,1.18-2.48,2.68-4.76,3.73-.62.29-2.36,1.1-3.9.36a4.26,4.26,0,0,1-2-2.53c-.22-.57-1.08-2.75,0-4.46.8-1.25,2.23-1.6,3.66-1.93,3.4-.77,4.45.41,7.56,0,10.1-11,12.17-10.42,17.67-10.25,1,0,1.68.24,2.2-.24,1-.91-.26-3.08.73-4A2.31,2.31,0,0,1,71.69,46c4.3.55,7.62-3.51,9-2.53,1.14.8.88,4.84-1,6.87C76.11,54.28,71.21,57.5,67.54,62.38Z"/><path class="cls-7" d="M58.27,61.28c.53,1.53,3.53.47,7.65,3.13,3.21,2.07,2.43,3.39,4.85,4.52,4,1.88,6.9-1.47,12.63.13,2.82.79,4.46,2.25,4.61,2s-5.36-2.59-9.79-8.19A44.07,44.07,0,0,0,70.66,55,4.77,4.77,0,0,0,69,54C64.4,52.63,57.4,58.75,58.27,61.28Z"/><circle class="cls-5" cx="40.81" cy="65.43" r="0.64"/><path class="cls-7" d="M74.58,43.3a20.15,20.15,0,0,1-1.09,8.41c-.1.31.34.39.6.2a9.53,9.53,0,0,0,3.41-7.79c0-.2,0-.39-.22-.44-.94-.28-2.11-1-2.63-.51C74.62,43.2,74.57,43.25,74.58,43.3Z"/><path class="cls-10" d="M63.7,60.27A14.26,14.26,0,0,1,73.1,57"/><path class="cls-10" d="M67.16,62.6c2.85-2,5.68-3,8.49-2.84"/><path class="cls-10" d="M71,64.81c1.2-1.52,5.81-2.65,6.67-2.34"/><path class="cls-10" d="M73.47,66.11a17.69,17.69,0,0,1,7.56,0"/><rect class="cls-11" x="55.58" y="54.49" width="13.54" height="3.98" transform="matrix(0.87, -0.5, 0.5, 0.87, -19.89, 38.74)"/><path class="cls-10" d="M80.07,43.64a7,7,0,0,1-2.42,6.56"/><path class="cls-10" d="M72.56,46.09A10.58,10.58,0,0,1,71,50.45"/><rect class="cls-11" x="71.57" y="50.13" width="3.97" height="2.8" rx="0.58" transform="translate(26.8 -25.15) rotate(23.61)"/><path class="cls-9" d="M67.91,35.9a29.45,29.45,0,0,0-2.09,8.26c0,.33.49.51.56.18a15.51,15.51,0,0,1,4.26-7.73c.15-.13,0-.37-.15-.43-.88-.24-1.92-.91-2.48-.41A.45.45,0,0,0,67.91,35.9Z"/><path class="cls-6" d="M75.73,24.53a40.35,40.35,0,0,0-12.25.12.47.47,0,0,0-.13.89c2.95.94,8.06,2,12,3.25a.45.45,0,0,0,.57-.39c.14-1.38.85-3.15,0-3.78A.56.56,0,0,0,75.73,24.53Z"/><path class="cls-6" d="M73.92,27a40.24,40.24,0,0,0-12.25,0,.46.46,0,0,0-.14.88c2.93,1,8,2.15,12,3.43a.45.45,0,0,0,.57-.39c.17-1.38.9-3.13.08-3.78A.56.56,0,0,0,73.92,27Z"/><path class="cls-6" d="M79,22.55a40.1,40.1,0,0,0-12.25-.37.46.46,0,0,0-.16.88c2.91,1.06,8,2.36,11.86,3.73a.44.44,0,0,0,.58-.37c.2-1.37,1-3.11.17-3.78A.46.46,0,0,0,79,22.55Z"/><path class="cls-6" d="M81.77,20.82a40.14,40.14,0,0,0-12.25-.36.46.46,0,0,0-.16.87c2.91,1.06,8,2.36,11.86,3.73a.44.44,0,0,0,.58-.36c.2-1.38,1-3.12.17-3.79A.72.72,0,0,0,81.77,20.82Z"/><path class="cls-6" d="M85.83,19.14a40,40,0,0,0-12.24-.37.46.46,0,0,0-.16.88c2.9,1.06,8,2.36,11.85,3.73a.45.45,0,0,0,.59-.37c.2-1.37,1-3.11.17-3.78A.78.78,0,0,0,85.83,19.14Z"/><path class="cls-6" d="M86.66,24a4.93,4.93,0,0,1-2.38,2.48A9.54,9.54,0,0,1,80,27.86a6.65,6.65,0,0,0-2.61.41,5.43,5.43,0,0,0-1.3.83c-1.29,1.11-1,1.95-2.17,2.94a3,3,0,0,1-2.22.89,2.5,2.5,0,0,1-1.57-1.09,2.9,2.9,0,0,1-.75-2.51c.25-.85,1-1.29,1.82-1.73,1.86-1,2.68-.54,4.43-1.32,4.08-8,5.39-8,8.65-8.87.58-.2,1.25-.52,1.25-.52S88,20.64,86.66,24Z"/><path class="cls-6" d="M95.35,25.11c-1,2.15-7.48,4.28-11.25,5.58-7,1.39-7,1.39-10.35,6.25-.54.42-2.07,1.59-3.73,1.2a4.28,4.28,0,0,1-2.45-2c-.34-.5-1.65-2.45-1-4.35.51-1.4,1.83-2,3.16-2.68,3.15-1.49,4.43-.56,7.37-1.64,7.48-12.95,9.62-12.81,15-13.83,1-.27,1.68-.13,2.09-.72.77-1.11-.92-2.95-.15-4,.4-.57,1.24-.58,1.73-.63,4.32-.4,6.68-5.08,8.26-4.43,1.29.54,1.91,4.53.54,6.92C102,15.34,97.87,19.54,95.35,25.11Z"/><path class="cls-6" d="M81.42,26.35c13.73,3.75,16.43,6.56,23.88,11.06,2.55,1.42,4.12,2.81,4.29,2.63s-5-3.28-8.61-9.42a43.94,43.94,0,0,0-6.44-8.85A5,5,0,0,0,93,20.59C88.65,18.6,80.9,23.73,81.42,26.35Z"/><circle class="cls-5" cx="69.92" cy="33.88" r="0.64"/><path class="cls-6" d="M98.08,5a19.94,19.94,0,0,1,.76,8.44c0,.32.42.3.63.06a9.55,9.55,0,0,0,1.64-8.34c0-.19-.1-.37-.31-.39-1-.06-2.27-.51-2.67.08C98.1,4.85,98.06,4.91,98.08,5Z"/><path class="cls-10" d="M87.59,25.12a19.5,19.5,0,0,1,8.14-2"/><path class="cls-10" d="M91.51,27.5a13,13,0,0,1,7.18-.43"/><path class="cls-10" d="M96.25,29.85a17.68,17.68,0,0,1,4.09-.49"/><path class="cls-10" d="M99.41,32.85a2.82,2.82,0,0,1,3.13.44"/><path class="cls-12" d="M81.93,26c1.32-3.66,4.22-6,8.94-6.69"/><path class="cls-10" d="M103.52,4.09a7,7,0,0,1-.94,6.94"/><path class="cls-10" d="M96.72,8.11a10.61,10.61,0,0,1-.63,4.61"/><rect class="cls-8" x="96.88" y="11.81" width="3.97" height="2.8" rx="0.58" transform="translate(4.39 -18.77) rotate(11.09)"/></g><text class="cls-13" transform="translate(100.23 155.3)">3</text></g></g></svg>