<svg width="403" height="236" viewBox="0 0 403 236" fill="none" xmlns="http://www.w3.org/2000/svg">
<path d="M199.831 216.023L191.564 5.91731L87.4754 4.88578L0.809081 150.13L52.6931 197.519L121.194 103.84L112.177 215.154L199.831 216.023Z" fill="#0E3064"/>
<path d="M185.994 215.64L213.539 7.18431L317.282 15.7255L390.23 168.322L334.209 210.741L274.609 111.161L273.356 222.833L185.994 215.64Z" fill="#0E3064"/>
<path d="M201.098 16.9859C212.792 22.0723 220.017 24.1754 236.219 24.22C229.479 15.4028 224.18 12.3253 212.487 9.58467" stroke="white"/>
<circle cx="302.959" cy="28.1355" r="1.82629" transform="rotate(-168.226 302.959 28.1355)" fill="white"/>
<circle cx="312.991" cy="27.7391" r="1.82629" transform="rotate(-168.226 312.991 27.7391)" fill="white"/>
<circle cx="303.01" cy="21.9279" r="1.82629" transform="rotate(-168.226 303.01 21.9279)" fill="white"/>
<circle cx="307.726" cy="29.1292" r="1.82629" transform="rotate(-168.226 307.726 29.1292)" fill="white"/>
<circle cx="310.308" cy="34.6419" r="1.82629" transform="rotate(-168.226 310.308 34.6419)" fill="white"/>
<circle r="1.82629" transform="matrix(0.641864 -0.766819 -0.766819 -0.641864 298.377 30.8405)" fill="white"/>
<circle r="1.82629" transform="matrix(0.641864 -0.766819 -0.766819 -0.641864 294.563 29.4566)" fill="white"/>
<circle r="1.82629" transform="matrix(0.641864 -0.766819 -0.766819 -0.641864 296.748 24.9377)" fill="white"/>
<circle r="1.82629" transform="matrix(0.641864 -0.766819 -0.766819 -0.641864 295.251 34.5749)" fill="white"/>
<circle r="1.82629" transform="matrix(0.641864 -0.766819 -0.766819 -0.641864 299.614 35.052)" fill="white"/>
<circle cx="306.484" cy="35.0884" r="1.82629" transform="rotate(-168.226 306.484 35.0884)" fill="white"/>
<circle cx="310.507" cy="39.6576" r="1.82629" transform="rotate(-168.226 310.507 39.6576)" fill="white"/>
<circle cx="304.171" cy="47.2919" r="1.82629" transform="rotate(-168.226 304.171 47.2919)" fill="white"/>
<circle r="1.82629" transform="matrix(0.641864 -0.766819 -0.766819 -0.641864 307.096 44.0779)" fill="white"/>
<circle r="1.82629" transform="matrix(0.641864 -0.766819 -0.766819 -0.641864 303.059 42.3558)" fill="white"/>
<circle r="1.82629" transform="matrix(0.641864 -0.766819 -0.766819 -0.641864 315.763 57.3219)" fill="white"/>
<circle r="1.82629" transform="matrix(0.641864 -0.766819 -0.766819 -0.641864 308.466 51.4099)" fill="white"/>
<circle cx="312.326" cy="44.5308" r="1.82629" transform="rotate(-168.226 312.326 44.5308)" fill="white"/>
<circle cx="303.355" cy="38.1672" r="1.82629" transform="rotate(-168.226 303.355 38.1672)" fill="white"/>
<circle cx="315.837" cy="50.067" r="1.82629" transform="rotate(-168.226 315.837 50.067)" fill="white"/>
<path d="M314.054 54.0636C310.367 48.8487 303.856 37.107 299.357 14.7779" stroke="white" stroke-linecap="square"/>
<circle r="1.82629" transform="matrix(0.982995 -0.183632 -0.183632 -0.982995 263.699 33.1261)" fill="white"/>
<circle r="1.82629" transform="matrix(0.982995 -0.183632 -0.183632 -0.982995 262.356 25.9463)" fill="white"/>
<circle r="1.82629" transform="matrix(0.982995 -0.183632 -0.183632 -0.982995 256.898 23.2503)" fill="white"/>
<circle r="1.82629" transform="matrix(0.982995 -0.183632 -0.183632 -0.982995 253.388 17.7136)" fill="white"/>
<circle r="1.82629" transform="matrix(0.982995 -0.183632 -0.183632 -0.982995 254.203 28.708)" fill="white"/>
<circle r="1.82629" transform="matrix(0.982995 -0.183632 -0.183632 -0.982995 253.466 11.5061)" fill="white"/>
<circle r="1.82629" transform="matrix(0.982995 -0.183632 -0.183632 -0.982995 258.174 16.8192)" fill="white"/>
<circle r="1.82629" transform="matrix(0.982995 -0.183632 -0.183632 -0.982995 264.829 19.2916)" fill="white"/>
<circle r="1.82629" transform="matrix(0.982995 -0.183632 -0.183632 -0.982995 258.24 30.4307)" fill="white"/>
<circle r="1.82629" transform="matrix(0.982995 -0.183632 -0.183632 -0.982995 256.215 39.4785)" fill="white"/>
<circle cx="268.223" cy="35.9265" r="1.82629" transform="rotate(-128.739 268.223 35.9265)" fill="white"/>
<circle cx="272.065" cy="34.6223" r="1.82629" transform="rotate(-128.739 272.065 34.6223)" fill="white"/>
<circle cx="269.975" cy="30.059" r="1.82629" transform="rotate(-128.739 269.975 30.059)" fill="white"/>
<circle cx="271.27" cy="39.725" r="1.82629" transform="rotate(-128.739 271.27 39.725)" fill="white"/>
<circle cx="266.898" cy="40.1112" r="1.82629" transform="rotate(-128.739 266.898 40.1112)" fill="white"/>
<circle r="1.82629" transform="matrix(0.982995 -0.183632 -0.183632 -0.982995 259.359 36.414)" fill="white"/>
<circle r="1.82629" transform="matrix(0.982995 -0.183632 -0.183632 -0.982995 255.912 44.4893)" fill="white"/>
<circle r="1.82629" transform="matrix(0.982995 -0.183632 -0.183632 -0.982995 260.174 47.409)" fill="white"/>
<circle r="1.82629" transform="matrix(0.982995 -0.183632 -0.183632 -0.982995 263.094 43.1477)" fill="white"/>
<circle r="1.82629" transform="matrix(0.982995 -0.183632 -0.183632 -0.982995 270.287 21.9877)" fill="white"/>
<path d="M259.279 42.6218C264.73 41.2939 266.033 29.656 268.896 12.2399" stroke="white" stroke-linecap="square"/>
<circle r="1.82629" transform="matrix(0.839274 -0.543708 -0.543708 -0.839274 286.901 31.7071)" fill="white"/>
<circle r="1.82629" transform="matrix(0.839274 -0.543708 -0.543708 -0.839274 277.403 34.9588)" fill="white"/>
<circle r="1.82629" transform="matrix(0.839274 -0.543708 -0.543708 -0.839274 284.613 25.9361)" fill="white"/>
<circle r="1.82629" transform="matrix(0.839274 -0.543708 -0.543708 -0.839274 282.814 34.3548)" fill="white"/>
<circle r="1.82629" transform="matrix(0.839274 -0.543708 -0.543708 -0.839274 282.396 40.4278)" fill="white"/>
<circle cx="279.137" cy="27.0081" r="1.82629" transform="rotate(-151.094 279.137 27.0081)" fill="white"/>
<circle cx="290.053" cy="32.4002" r="1.82629" transform="rotate(-151.094 290.053 32.4002)" fill="white"/>
<circle cx="291.539" cy="26.4826" r="1.82629" transform="rotate(-151.094 291.539 26.4826)" fill="white"/>
<circle cx="278.901" cy="45.6303" r="1.82629" transform="rotate(-151.094 278.901 45.6303)" fill="white"/>
<circle cx="292.517" cy="36.9494" r="1.82629" transform="rotate(-151.094 292.517 36.9494)" fill="white"/>
<circle r="1.82629" transform="matrix(0.839274 -0.543708 -0.543708 -0.839274 286.123 39.4638)" fill="white"/>
<circle r="1.82629" transform="matrix(0.839274 -0.543708 -0.543708 -0.839274 284.022 45.1768)" fill="white"/>
<circle r="1.82629" transform="matrix(0.839274 -0.543708 -0.543708 -0.839274 292.686 50.0092)" fill="white"/>
<circle cx="288.799" cy="48.068" r="1.82629" transform="rotate(-151.094 288.799 48.068)" fill="white"/>
<circle cx="291.942" cy="45.0043" r="1.82629" transform="rotate(-151.094 291.942 45.0043)" fill="white"/>
<circle cx="317.672" cy="40.9081" r="1.82629" transform="rotate(-151.094 317.672 40.9081)" fill="white"/>
<circle cx="290.168" cy="55.3998" r="1.82629" transform="rotate(-151.094 290.168 55.3998)" fill="white"/>
<circle r="1.82629" transform="matrix(0.839274 -0.543708 -0.543708 -0.839274 284.085 50.3775)" fill="white"/>
<circle r="1.82629" transform="matrix(0.839274 -0.543708 -0.543708 -0.839274 290.153 41.2051)" fill="white"/>
<circle r="1.82629" transform="matrix(0.839274 -0.543708 -0.543708 -0.839274 280.632 20.7267)" fill="white"/>
<path d="M286.91 47.9871C288.008 42.845 289.141 31.7635 285.396 12.8743" stroke="white" stroke-linecap="square"/>
<path d="M277.542 23.3755L305.935 28.3328L290.901 19.5028C289.309 18.5677 287.596 17.8576 285.809 17.3927L262.237 11.2591C263.09 12.6508 264.223 14.3022 265.359 15.8893C268.24 19.9171 272.663 22.5237 277.542 23.3755Z" fill="#FE449D"/>
<path d="M166.666 71.7315C171.808 83.4007 175.691 89.8471 187.565 100.87C188.594 89.8197 186.787 83.9636 180.054 74.0181" stroke="white"/>
<path d="M15.0265 118.632C26.7199 123.718 33.9453 125.821 50.1474 125.866C43.4076 117.049 38.108 113.971 26.4147 111.231" stroke="white"/>
<circle r="1.82629" transform="matrix(0.982995 -0.183632 -0.183632 -0.982995 77.6273 134.772)" fill="white"/>
<circle r="1.82629" transform="matrix(0.982995 -0.183632 -0.183632 -0.982995 76.2856 127.592)" fill="white"/>
<circle r="1.82629" transform="matrix(0.982995 -0.183632 -0.183632 -0.982995 70.828 124.896)" fill="white"/>
<circle r="1.82629" transform="matrix(0.982995 -0.183632 -0.183632 -0.982995 67.3168 119.359)" fill="white"/>
<circle r="1.82629" transform="matrix(0.982995 -0.183632 -0.183632 -0.982995 68.1322 130.354)" fill="white"/>
<circle r="1.82629" transform="matrix(0.982995 -0.183632 -0.183632 -0.982995 67.3954 113.152)" fill="white"/>
<circle r="1.82629" transform="matrix(0.982995 -0.183632 -0.183632 -0.982995 72.1039 118.465)" fill="white"/>
<circle r="1.82629" transform="matrix(0.982995 -0.183632 -0.183632 -0.982995 78.7582 120.937)" fill="white"/>
<circle r="1.82629" transform="matrix(0.982995 -0.183632 -0.183632 -0.982995 72.1693 132.076)" fill="white"/>
<circle r="1.82629" transform="matrix(0.982995 -0.183632 -0.183632 -0.982995 70.144 141.124)" fill="white"/>
<circle cx="82.1528" cy="137.572" r="1.82629" transform="rotate(-128.739 82.1528 137.572)" fill="white"/>
<circle cx="85.9946" cy="136.268" r="1.82629" transform="rotate(-128.739 85.9946 136.268)" fill="white"/>
<circle cx="83.9038" cy="131.705" r="1.82629" transform="rotate(-128.739 83.9038 131.705)" fill="white"/>
<circle cx="85.2001" cy="141.371" r="1.82629" transform="rotate(-128.739 85.2001 141.371)" fill="white"/>
<circle cx="80.8281" cy="141.757" r="1.82629" transform="rotate(-128.739 80.8281 141.757)" fill="white"/>
<circle r="1.82629" transform="matrix(0.982995 -0.183632 -0.183632 -0.982995 73.2875 138.06)" fill="white"/>
<circle r="1.82629" transform="matrix(0.982995 -0.183632 -0.183632 -0.982995 69.8412 146.135)" fill="white"/>
<circle r="1.82629" transform="matrix(0.982995 -0.183632 -0.183632 -0.982995 74.1029 149.055)" fill="white"/>
<circle r="1.82629" transform="matrix(0.982995 -0.183632 -0.183632 -0.982995 77.0229 144.793)" fill="white"/>
<circle r="1.82629" transform="matrix(0.982995 -0.183632 -0.183632 -0.982995 84.2162 123.633)" fill="white"/>
<path d="M73.2085 144.267C80.4835 142.445 81.8996 125.149 85.2421 99.2902" stroke="white" stroke-linecap="square"/>
<circle r="1.82629" transform="matrix(-0.337593 -0.941292 -0.941292 0.337593 55.1356 169.909)" fill="white"/>
<circle r="1.82629" transform="matrix(-0.337593 -0.941292 -0.941292 0.337593 48.2596 172.375)" fill="white"/>
<circle r="1.82629" transform="matrix(-0.337593 -0.941292 -0.941292 0.337593 46.4652 178.192)" fill="white"/>
<circle r="1.82629" transform="matrix(-0.337593 -0.941292 -0.941292 0.337593 41.5579 182.539)" fill="white"/>
<circle r="1.82629" transform="matrix(-0.337593 -0.941292 -0.941292 0.337593 52.2825 179.985)" fill="white"/>
<circle r="1.82629" transform="matrix(-0.337593 -0.941292 -0.941292 0.337593 35.4168 183.448)" fill="white"/>
<circle r="1.82629" transform="matrix(-0.337593 -0.941292 -0.941292 0.337593 39.9134 177.955)" fill="white"/>
<circle r="1.82629" transform="matrix(-0.337593 -0.941292 -0.941292 0.337593 41.2967 170.992)" fill="white"/>
<circle r="1.82629" transform="matrix(-0.337593 -0.941292 -0.941292 0.337593 53.3416 175.726)" fill="white"/>
<circle r="1.82629" transform="matrix(-0.337593 -0.941292 -0.941292 0.337593 62.5955 176.287)" fill="white"/>
<circle cx="57.1798" cy="164.996" r="1.82629" transform="rotate(132.112 57.1798 164.996)" fill="white"/>
<circle cx="55.2814" cy="161.41" r="1.82629" transform="rotate(132.112 55.2814 161.41)" fill="white"/>
<circle cx="51.1085" cy="164.2" r="1.82629" transform="rotate(132.112 51.1085 164.2)" fill="white"/>
<circle cx="60.4459" cy="161.383" r="1.82629" transform="rotate(132.112 60.4459 161.383)" fill="white"/>
<circle cx="61.5216" cy="165.638" r="1.82629" transform="rotate(132.112 61.5216 165.638)" fill="white"/>
<circle r="1.82629" transform="matrix(-0.337593 -0.941292 -0.941292 0.337593 59.0706 173.671)" fill="white"/>
<circle r="1.82629" transform="matrix(-0.337593 -0.941292 -0.941292 0.337593 67.5911 175.789)" fill="white"/>
<circle r="1.82629" transform="matrix(-0.337593 -0.941292 -0.941292 0.337593 69.7967 171.117)" fill="white"/>
<circle r="1.82629" transform="matrix(-0.337593 -0.941292 -0.941292 0.337593 65.1253 168.912)" fill="white"/>
<circle r="1.82629" transform="matrix(-0.337593 -0.941292 -0.941292 0.337593 43.0902 165.175)" fill="white"/>
<path d="M65.2119 172.761C62.2564 165.869 44.9545 167.221 18.8935 168.032" stroke="white" stroke-linecap="square"/>
<path d="M103.226 13.1833L82.7241 33.4421L98.6351 26.3134C100.32 25.5585 101.892 24.5739 103.307 23.3877L121.972 7.7389C120.343 7.62679 118.341 7.59282 116.389 7.59757C111.437 7.60964 106.748 9.70243 103.226 13.1833Z" fill="#FE449D"/>
<circle cx="131.835" cy="43.0758" r="1.82629" transform="rotate(56.6132 131.835 43.0758)" fill="white"/>
<circle cx="124.442" cy="36.2833" r="1.82629" transform="rotate(56.6132 124.442 36.2833)" fill="white"/>
<circle cx="127.422" cy="47.4422" r="1.82629" transform="rotate(56.6132 127.422 47.4422)" fill="white"/>
<circle cx="129.155" cy="39.0095" r="1.82629" transform="rotate(56.6132 129.155 39.0095)" fill="white"/>
<circle cx="131.211" cy="33.2801" r="1.82629" transform="rotate(56.6132 131.211 33.2801)" fill="white"/>
<circle r="1.82629" transform="matrix(-0.995838 0.0911457 0.0911457 0.995838 136.992 44.3891)" fill="white"/>
<circle r="1.82629" transform="matrix(-0.995838 0.0911457 0.0911457 0.995838 157.832 27.8933)" fill="white"/>
<circle r="1.82629" transform="matrix(-0.995838 0.0911457 0.0911457 0.995838 133.984 49.7229)" fill="white"/>
<circle r="1.82629" transform="matrix(-0.995838 0.0911457 0.0911457 0.995838 167.595 25.555)" fill="white"/>
<circle r="1.82629" transform="matrix(-0.995838 0.0911457 0.0911457 0.995838 139.084 40.5299)" fill="white"/>
<circle cx="134.238" cy="35.6599" r="1.82629" transform="rotate(56.6132 134.238 35.6599)" fill="white"/>
<circle cx="134.608" cy="29.5837" r="1.82629" transform="rotate(56.6132 134.608 29.5837)" fill="white"/>
<circle cx="144.483" cy="28.6368" r="1.82629" transform="rotate(56.6132 144.483 28.6368)" fill="white"/>
<circle r="1.82629" transform="matrix(-0.995838 0.0911456 0.0911456 0.995838 140.143 28.8533)" fill="white"/>
<circle r="1.82629" transform="matrix(-0.995838 0.0911456 0.0911456 0.995838 141.791 32.9219)" fill="white"/>
<circle r="1.82629" transform="matrix(-0.995838 0.0911456 0.0911456 0.995838 143.335 13.3521)" fill="white"/>
<circle r="1.82629" transform="matrix(-0.995838 0.0911456 0.0911456 0.995838 144.341 22.689)" fill="white"/>
<circle cx="136.754" cy="24.8458" r="1.82629" transform="rotate(56.6132 136.754 24.8458)" fill="white"/>
<circle cx="138.628" cy="35.6831" r="1.82629" transform="rotate(56.6132 138.628 35.6831)" fill="white"/>
<circle cx="138.168" cy="18.4438" r="1.82629" transform="rotate(56.6132 138.168 18.4438)" fill="white"/>
<path d="M142.25 16.8672C139.917 25.9489 132.878 44.7454 111.624 73.2171" stroke="white" stroke-linecap="square"/>
<circle r="1.82629" transform="matrix(-0.978498 -0.206257 -0.206257 0.978498 145.739 51.8664)" fill="white"/>
<circle r="1.82629" transform="matrix(-0.978498 -0.206257 -0.206257 0.978498 157.761 49.9565)" fill="white"/>
<circle r="1.82629" transform="matrix(-0.978498 -0.206257 -0.206257 0.978498 143.292 57.5716)" fill="white"/>
<circle r="1.82629" transform="matrix(-0.978498 -0.206257 -0.206257 0.978498 150.505 52.8707)" fill="white"/>
<circle r="1.82629" transform="matrix(-0.978498 -0.206257 -0.206257 0.978498 166.44 34.2149)" fill="white"/>
<circle cx="147.932" cy="60.6727" r="1.82629" transform="rotate(73.7459 147.932 60.6727)" fill="white"/>
<circle cx="143.993" cy="49.1525" r="1.82629" transform="rotate(73.7459 143.993 49.1525)" fill="white"/>
<circle cx="138.767" cy="52.3007" r="1.82629" transform="rotate(73.7459 138.767 52.3007)" fill="white"/>
<circle cx="161.23" cy="47.635" r="1.82629" transform="rotate(73.7459 161.23 47.635)" fill="white"/>
<circle cx="145.454" cy="44.1889" r="1.82629" transform="rotate(73.7459 145.454 44.1889)" fill="white"/>
<circle r="1.82629" transform="matrix(-0.978498 -0.206257 -0.206257 0.978498 151.76 46.9144)" fill="white"/>
<circle r="1.82629" transform="matrix(-0.978498 -0.206257 -0.206257 0.978498 157.279 44.3449)" fill="white"/>
<circle r="1.82629" transform="matrix(-0.978498 -0.206257 -0.206257 0.978498 154.543 34.8093)" fill="white"/>
<circle cx="155.93" cy="38.9272" r="1.82629" transform="rotate(73.7459 155.93 38.9272)" fill="white"/>
<circle cx="151.542" cy="38.8834" r="1.82629" transform="rotate(73.7459 151.542 38.8834)" fill="white"/>
<circle cx="130.408" cy="23.6447" r="1.82629" transform="rotate(73.7459 130.408 23.6447)" fill="white"/>
<circle cx="160.129" cy="32.7625" r="1.82629" transform="rotate(73.7459 160.129 32.7625)" fill="white"/>
<circle r="1.82629" transform="matrix(-0.978498 -0.206257 -0.206257 0.978498 160.901 40.6132)" fill="white"/>
<circle r="1.82629" transform="matrix(-0.978498 -0.206257 -0.206257 0.978498 150.131 42.8382)" fill="white"/>
<circle r="1.82629" transform="matrix(-0.978498 -0.206257 -0.206257 0.978498 142.443 64.0732)" fill="white"/>
<path d="M164.38 30.4561C158.514 35.1323 146.96 46.5055 132.261 71.8525" stroke="white" stroke-linecap="square"/>
<path d="M146.501 64.3731L129.864 40.8373L134.297 57.699C134.767 59.4846 135.481 61.1966 136.421 62.7862L148.81 83.7566C149.187 82.1684 149.547 80.1981 149.862 78.2722C150.659 73.3845 149.36 68.417 146.501 64.3731Z" fill="#FE449D"/>
<circle cx="72.9534" cy="43.219" r="1.82629" transform="rotate(121.6 72.9534 43.219)" fill="white"/>
<circle cx="75.9832" cy="33.6476" r="1.82629" transform="rotate(121.6 75.9832 33.6476)" fill="white"/>
<circle cx="67.1311" cy="41.0663" r="1.82629" transform="rotate(121.6 67.1311 41.0663)" fill="white"/>
<circle cx="75.5056" cy="39.0714" r="1.82629" transform="rotate(121.6 75.5056 39.0714)" fill="white"/>
<circle cx="81.5671" cy="38.5122" r="1.82629" transform="rotate(121.6 81.5671 38.5122)" fill="white"/>
<circle r="1.82629" transform="matrix(-0.503659 -0.863902 -0.863902 0.503659 73.9438 48.4474)" fill="white"/>
<circle r="1.82629" transform="matrix(-0.503659 -0.863902 -0.863902 0.503659 71.3481 51.5661)" fill="white"/>
<circle r="1.82629" transform="matrix(-0.503659 -0.863902 -0.863902 0.503659 67.8384 47.9775)" fill="white"/>
<circle r="1.82629" transform="matrix(-0.503659 -0.863902 -0.863902 0.503659 76.396 52.6546)" fill="white"/>
<circle r="1.82629" transform="matrix(-0.503659 -0.863902 -0.863902 0.503659 78.3257 48.7115)" fill="white"/>
<circle cx="80.6902" cy="42.2613" r="1.82629" transform="rotate(121.6 80.6902 42.2613)" fill="white"/>
<circle cx="86.3528" cy="40.027" r="1.82629" transform="rotate(121.6 86.3528 40.027)" fill="white"/>
<circle cx="91.386" cy="48.5757" r="1.82629" transform="rotate(121.6 91.386 48.5757)" fill="white"/>
<circle r="1.82629" transform="matrix(-0.503659 -0.863902 -0.863902 0.503659 89.354 44.7344)" fill="white"/>
<circle r="1.82629" transform="matrix(-0.503659 -0.863902 -0.863902 0.503659 86.3643 47.9479)" fill="white"/>
<circle r="1.82629" transform="matrix(-0.503659 -0.863902 -0.863902 0.503659 104.752 41.0732)" fill="white"/>
<circle r="1.82629" transform="matrix(-0.503659 -0.863902 -0.863902 0.503659 96.7163 45.9329)" fill="white"/>
<circle cx="91.554" cy="39.9688" r="1.82629" transform="rotate(121.6 91.554 39.9688)" fill="white"/>
<circle cx="82.5247" cy="46.2489" r="1.82629" transform="rotate(121.6 82.5247 46.2489)" fill="white"/>
<circle cx="97.9529" cy="38.5431" r="1.82629" transform="rotate(121.6 97.9529 38.5431)" fill="white"/>
<path d="M101.108 41.576C95.7316 43.408 84.2278 45.9754 65 44" stroke="white" stroke-linecap="square"/>
<circle r="1.82629" transform="matrix(0.160661 -0.98701 -0.98701 -0.160661 64.3317 81.8453)" fill="white"/>
<circle r="1.82629" transform="matrix(0.160661 -0.98701 -0.98701 -0.160661 57.1217 80.6722)" fill="white"/>
<circle r="1.82629" transform="matrix(0.160661 -0.98701 -0.98701 -0.160661 52.7345 84.8919)" fill="white"/>
<circle r="1.82629" transform="matrix(0.160661 -0.98701 -0.98701 -0.160661 46.3351 86.3172)" fill="white"/>
<circle r="1.82629" transform="matrix(0.160661 -0.98701 -0.98701 -0.160661 56.9547 89.2793)" fill="white"/>
<circle r="1.82629" transform="matrix(0.160661 -0.98701 -0.98701 -0.160661 40.5226 84.1377)" fill="white"/>
<circle r="1.82629" transform="matrix(0.160661 -0.98701 -0.98701 -0.160661 47.1183 81.5106)" fill="white"/>
<circle r="1.82629" transform="matrix(0.160661 -0.98701 -0.98701 -0.160661 51.7003 76.0892)" fill="white"/>
<circle r="1.82629" transform="matrix(0.160661 -0.98701 -0.98701 -0.160661 59.9445 86.0656)" fill="white"/>
<circle r="1.82629" transform="matrix(0.160661 -0.98701 -0.98701 -0.160661 67.7692 91.0395)" fill="white"/>
<circle cx="68.5012" cy="78.5384" r="1.82629" transform="rotate(161.088 68.5012 78.5384)" fill="white"/>
<circle cx="68.5769" cy="74.4817" r="1.82629" transform="rotate(161.088 68.5769 74.4817)" fill="white"/>
<circle cx="63.5749" cy="74.901" r="1.82629" transform="rotate(161.088 63.5749 74.901)" fill="white"/>
<circle cx="73.1081" cy="76.9601" r="1.82629" transform="rotate(161.088 73.1081 76.9601)" fill="white"/>
<circle cx="71.988" cy="81.2037" r="1.82629" transform="rotate(161.088 71.988 81.2037)" fill="white"/>
<circle r="1.82629" transform="matrix(0.160661 -0.98701 -0.98701 -0.160661 65.9528 87.0432)" fill="white"/>
<circle r="1.82629" transform="matrix(0.160661 -0.98701 -0.98701 -0.160661 72.3805 93.0238)" fill="white"/>
<circle r="1.82629" transform="matrix(0.160661 -0.98701 -0.98701 -0.160661 76.5724 90.0055)" fill="white"/>
<circle r="1.82629" transform="matrix(0.160661 -0.98701 -0.98701 -0.160661 73.5538 85.8136)" fill="white"/>
<circle r="1.82629" transform="matrix(0.160661 -0.98701 -0.98701 -0.160661 56.0875 71.8695)" fill="white"/>
<path d="M71.7656 89.223C72.4092 83.5453 62.9135 78.4708 49 70" stroke="white" stroke-linecap="square"/>
<circle r="1.82629" transform="matrix(-0.226817 -0.973937 -0.973937 0.226817 70.8662 59.5369)" fill="white"/>
<circle r="1.82629" transform="matrix(-0.226817 -0.973937 -0.973937 0.226817 70.7036 69.5751)" fill="white"/>
<circle r="1.82629" transform="matrix(-0.226817 -0.973937 -0.973937 0.226817 64.6611 59.732)" fill="white"/>
<circle r="1.82629" transform="matrix(-0.226817 -0.973937 -0.973937 0.226817 71.9706 64.2798)" fill="white"/>
<circle r="1.82629" transform="matrix(-0.226817 -0.973937 -0.973937 0.226817 77.5424 66.7325)" fill="white"/>
<circle cx="63.8129" cy="65.2466" r="1.82629" transform="rotate(138.733 63.8129 65.2466)" fill="white"/>
<circle cx="72.5873" cy="56.8072" r="1.82629" transform="rotate(138.733 72.5873 56.8072)" fill="white"/>
<circle cx="67.5243" cy="53.402" r="1.82629" transform="rotate(138.733 67.5243 53.402)" fill="white"/>
<circle cx="81.2504" cy="71.7857" r="1.82629" transform="rotate(138.733 81.2504 71.7857)" fill="white"/>
<circle cx="77.7025" cy="56.0319" r="1.82629" transform="rotate(138.733 77.7025 56.0319)" fill="white"/>
<circle r="1.82629" transform="matrix(-0.226817 -0.973937 -0.973937 0.226817 77.8994 62.8991)" fill="white"/>
<circle r="1.82629" transform="matrix(-0.226817 -0.973937 -0.973937 0.226817 82.5615 66.8136)" fill="white"/>
<circle r="1.82629" transform="matrix(-0.226817 -0.973937 -0.973937 0.226817 90.0458 60.3025)" fill="white"/>
<circle cx="86.9012" cy="63.3017" r="1.82629" transform="rotate(138.733 86.9012 63.3017)" fill="white"/>
<circle cx="85.0853" cy="59.3056" r="1.82629" transform="rotate(138.733 85.0853 59.3056)" fill="white"/>
<circle cx="91.4779" cy="24.1108" r="1.82629" transform="rotate(138.733 91.4779 24.1108)" fill="white"/>
<circle cx="94.2626" cy="64.4996" r="1.82629" transform="rotate(138.733 94.2626 64.4996)" fill="white"/>
<circle r="1.82629" transform="matrix(-0.226817 -0.973937 -0.973937 0.226817 87.475 68.5186)" fill="white"/>
<circle r="1.82629" transform="matrix(-0.226817 -0.973937 -0.973937 0.226817 80.9047 59.6993)" fill="white"/>
<circle r="1.82629" transform="matrix(-0.226817 -0.973937 -0.973937 0.226817 58.4101 61.7109)" fill="white"/>
<path d="M86.1851 65.0504C82.3209 62.8532 73.6103 59.0697 57 57" stroke="white" stroke-linecap="square"/>
<path d="M42.0967 121L13.2746 120.832L29.5669 127.039C31.2922 127.697 33.1002 128.112 34.9395 128.274L59.2031 130.403C58.1307 129.172 56.7385 127.732 55.3551 126.356C51.8443 122.863 47.0489 121.028 42.0967 121Z" fill="#FE449D"/>
<path d="M167.495 135.47L195.712 147.988L178.365 145.038C177.092 144.822 175.843 144.483 174.635 144.026L151.115 135.12C152.705 134.733 154.8 134.347 156.75 134.023C160.392 133.417 164.12 133.972 167.495 135.47Z" fill="#FE449D"/>
<path d="M159.632 142.662C170.876 145.9 177.814 147.261 193.329 147.441C186.792 141.956 181.688 140.014 170.466 138.218" stroke="white"/>
<path d="M264.045 117.011C253.556 109.759 246.874 106.299 230.986 103.122C235.894 113.076 240.498 117.12 251.441 122.07" stroke="white"/>
<path d="M314.903 160.956C326.597 166.043 333.822 168.146 350.024 168.19C343.285 159.373 337.985 156.296 326.292 153.555" stroke="white"/>
<path d="M242.199 169.584C253.893 174.671 261.118 176.774 277.32 176.818C270.58 168.001 265.281 164.924 253.588 162.183" stroke="white"/>
<circle cx="344.06" cy="180.734" r="1.82629" transform="rotate(-168.226 344.06 180.734)" fill="white"/>
<circle cx="354.092" cy="180.338" r="1.82629" transform="rotate(-168.226 354.092 180.338)" fill="white"/>
<circle cx="344.11" cy="174.526" r="1.82629" transform="rotate(-168.226 344.11 174.526)" fill="white"/>
<circle cx="348.827" cy="181.728" r="1.82629" transform="rotate(-168.226 348.827 181.728)" fill="white"/>
<circle cx="351.409" cy="187.24" r="1.82629" transform="rotate(-168.226 351.409 187.24)" fill="white"/>
<circle r="1.82629" transform="matrix(0.641864 -0.766819 -0.766819 -0.641864 339.477 183.439)" fill="white"/>
<circle r="1.82629" transform="matrix(0.641864 -0.766819 -0.766819 -0.641864 335.663 182.055)" fill="white"/>
<circle r="1.82629" transform="matrix(0.641864 -0.766819 -0.766819 -0.641864 337.848 177.536)" fill="white"/>
<circle r="1.82629" transform="matrix(0.641864 -0.766819 -0.766819 -0.641864 336.351 187.173)" fill="white"/>
<circle r="1.82629" transform="matrix(0.641864 -0.766819 -0.766819 -0.641864 340.715 187.65)" fill="white"/>
<circle cx="347.585" cy="187.687" r="1.82629" transform="rotate(-168.226 347.585 187.687)" fill="white"/>
<circle cx="351.607" cy="192.256" r="1.82629" transform="rotate(-168.226 351.607 192.256)" fill="white"/>
<circle cx="345.273" cy="199.891" r="1.82629" transform="rotate(-168.226 345.273 199.891)" fill="white"/>
<circle r="1.82629" transform="matrix(0.641864 -0.766819 -0.766819 -0.641864 348.197 196.676)" fill="white"/>
<circle r="1.82629" transform="matrix(0.641864 -0.766819 -0.766819 -0.641864 344.16 194.954)" fill="white"/>
<circle cx="356.094" cy="190.187" r="1.82629" transform="rotate(-168.226 356.094 190.187)" fill="white"/>
<circle cx="344.456" cy="190.766" r="1.82629" transform="rotate(-168.226 344.456 190.766)" fill="white"/>
<path d="M351.395 198.18C347.561 191.231 340.932 175.487 337.137 145.11" stroke="white" stroke-linecap="square"/>
<path d="M331.719 164.985L360.112 169.942L345.078 161.112C343.486 160.177 341.772 159.467 339.986 159.002L316.414 152.869C317.266 154.26 318.4 155.912 319.535 157.499C322.417 161.527 326.84 164.133 331.719 164.985Z" fill="#FE449D"/>
<path d="M330.398 64.1355L309.896 84.3944L325.807 77.2656C327.492 76.5107 329.065 75.5261 330.479 74.3399L349.144 58.6912C347.516 58.5791 345.513 58.5451 343.562 58.5498C338.61 58.5619 333.921 60.6547 330.398 64.1355Z" fill="#FE449D"/>
<circle cx="332.487" cy="110.589" r="1.82629" transform="rotate(56.6132 332.487 110.589)" fill="white"/>
<circle cx="325.094" cy="103.796" r="1.82629" transform="rotate(56.6132 325.094 103.796)" fill="white"/>
<circle cx="328.074" cy="114.955" r="1.82629" transform="rotate(56.6132 328.074 114.955)" fill="white"/>
<circle cx="329.807" cy="106.523" r="1.82629" transform="rotate(56.6132 329.807 106.523)" fill="white"/>
<circle cx="331.863" cy="100.793" r="1.82629" transform="rotate(56.6132 331.863 100.793)" fill="white"/>
<circle r="1.82629" transform="matrix(-0.995838 0.0911457 0.0911457 0.995838 337.643 111.902)" fill="white"/>
<circle r="1.82629" transform="matrix(-0.995838 0.0911457 0.0911457 0.995838 334.636 117.236)" fill="white"/>
<circle r="1.82629" transform="matrix(-0.995838 0.0911457 0.0911457 0.995838 339.735 108.043)" fill="white"/>
<circle cx="334.89" cy="103.173" r="1.82629" transform="rotate(56.6132 334.89 103.173)" fill="white"/>
<circle cx="335.259" cy="97.0968" r="1.82629" transform="rotate(56.6132 335.259 97.0968)" fill="white"/>
<circle cx="345.134" cy="96.1499" r="1.82629" transform="rotate(56.6132 345.134 96.1499)" fill="white"/>
<circle r="1.82629" transform="matrix(-0.995838 0.0911456 0.0911456 0.995838 340.795 96.3664)" fill="white"/>
<circle r="1.82629" transform="matrix(-0.995838 0.0911456 0.0911456 0.995838 342.442 100.435)" fill="white"/>
<circle r="1.82629" transform="matrix(-0.995838 0.0911456 0.0911456 0.995838 343.987 80.8648)" fill="white"/>
<circle r="1.82629" transform="matrix(-0.995838 0.0911456 0.0911456 0.995838 344.993 90.2019)" fill="white"/>
<circle cx="337.405" cy="92.3589" r="1.82629" transform="rotate(56.6132 337.405 92.3589)" fill="white"/>
<circle cx="339.279" cy="103.196" r="1.82629" transform="rotate(56.6132 339.279 103.196)" fill="white"/>
<circle cx="338.819" cy="85.9569" r="1.82629" transform="rotate(56.6132 338.819 85.9569)" fill="white"/>
<path d="M342.901 84.3802C340.568 93.462 333.529 112.258 312.275 140.73" stroke="white" stroke-linecap="square"/>
<circle cx="238.652" cy="94.1516" r="1.82629" transform="rotate(10.1446 238.652 94.1516)" fill="white"/>
<circle cx="228.635" cy="94.8332" r="1.82629" transform="rotate(10.1446 228.635 94.8332)" fill="white"/>
<circle cx="238.778" cy="100.358" r="1.82629" transform="rotate(10.1446 238.778 100.358)" fill="white"/>
<circle cx="233.858" cy="93.294" r="1.82629" transform="rotate(10.1446 233.858 93.294)" fill="white"/>
<circle cx="231.121" cy="87.857" r="1.82629" transform="rotate(10.1446 231.121 87.857)" fill="white"/>
<circle r="1.82629" transform="matrix(-0.619805 0.784756 0.784756 0.619805 243.156 91.3176)" fill="white"/>
<circle r="1.82629" transform="matrix(-0.619805 0.784756 0.784756 0.619805 247.008 92.5922)" fill="white"/>
<circle r="1.82629" transform="matrix(-0.619805 0.784756 0.784756 0.619805 244.951 97.1717)" fill="white"/>
<circle r="1.82629" transform="matrix(-0.619805 0.784756 0.784756 0.619805 246.174 87.496)" fill="white"/>
<circle r="1.82629" transform="matrix(-0.619805 0.784756 0.784756 0.619805 241.798 87.143)" fill="white"/>
<circle cx="234.93" cy="87.3018" r="1.82629" transform="rotate(10.1446 234.93 87.3018)" fill="white"/>
<circle cx="230.78" cy="82.8487" r="1.82629" transform="rotate(10.1446 230.78 82.8487)" fill="white"/>
<circle cx="236.895" cy="75.037" r="1.82629" transform="rotate(10.1446 236.895 75.037)" fill="white"/>
<circle r="1.82629" transform="matrix(-0.619805 0.784756 0.784756 0.619805 234.062 78.3326)" fill="white"/>
<circle r="1.82629" transform="matrix(-0.619805 0.784756 0.784756 0.619805 238.147 79.9401)" fill="white"/>
<circle r="1.82629" transform="matrix(-0.619805 0.784756 0.784756 0.619805 225.023 65.3413)" fill="white"/>
<circle r="1.82629" transform="matrix(-0.619805 0.784756 0.784756 0.619805 232.485 71.0433)" fill="white"/>
<circle cx="228.823" cy="78.0302" r="1.82629" transform="rotate(10.1446 228.823 78.0302)" fill="white"/>
<circle cx="237.971" cy="84.1353" r="1.82629" transform="rotate(10.1446 237.971 84.1353)" fill="white"/>
<circle cx="225.156" cy="72.5954" r="1.82629" transform="rotate(10.1446 225.156 72.5954)" fill="white"/>
<path d="M226.824 68.5496C231.802 76.496 240.581 94.5455 246.584 129.565" stroke="white" stroke-linecap="square"/>
<circle cx="220.897" cy="101.596" r="1.82629" transform="rotate(-12.2104 220.897 101.596)" fill="white"/>
<path d="M213.677 105.65C213.89 106.635 213.264 107.608 212.278 107.821C211.292 108.034 210.32 107.408 210.107 106.422C209.894 105.436 210.52 104.464 211.506 104.251C212.491 104.038 213.464 104.664 213.677 105.65Z" fill="white"/>
<circle cx="223.374" cy="107.288" r="1.82629" transform="rotate(-12.2104 223.374 107.288)" fill="white"/>
<circle cx="216.137" cy="102.626" r="1.82629" transform="rotate(-12.2104 216.137 102.626)" fill="white"/>
<circle cx="211.537" cy="98.6394" r="1.82629" transform="rotate(-12.2104 211.537 98.6394)" fill="white"/>
<circle r="1.82629" transform="matrix(-0.274745 0.961517 0.961517 0.274745 223.984 97.262)" fill="white"/>
<circle r="1.82629" transform="matrix(-0.274745 0.961517 0.961517 0.274745 228.031 96.9759)" fill="white"/>
<circle r="1.82629" transform="matrix(-0.274745 0.961517 0.961517 0.274745 227.871 101.993)" fill="white"/>
<circle r="1.82629" transform="matrix(-0.274745 0.961517 0.961517 0.274745 225.322 92.5798)" fill="white"/>
<circle r="1.82629" transform="matrix(-0.274745 0.961517 0.961517 0.274745 221.142 93.9177)" fill="white"/>
<circle cx="214.85" cy="96.677" r="1.82629" transform="rotate(-12.2104 214.85 96.677)" fill="white"/>
<circle cx="209.317" cy="94.137" r="1.82629" transform="rotate(-12.2104 209.317 94.137)" fill="white"/>
<circle cx="221.891" cy="88.9243" r="1.82629" transform="rotate(-12.2104 221.891 88.9243)" fill="white"/>
<circle cx="216.457" cy="92.5921" r="1.82629" transform="rotate(-12.2104 216.457 92.5921)" fill="white"/>
<circle cx="209.22" cy="87.9296" r="1.82629" transform="rotate(-12.2104 209.22 87.9296)" fill="white"/>
<path d="M213.145 94.5546C220.557 93.4161 228.563 108.814 241.662 131.358" stroke="white" stroke-linecap="square"/>
<circle r="1.82629" transform="matrix(-0.977377 0.211503 0.211503 0.977377 277.755 88.047)" fill="white"/>
<circle r="1.82629" transform="matrix(-0.977377 0.211503 0.211503 0.977377 279.301 95.186)" fill="white"/>
<circle r="1.82629" transform="matrix(-0.977377 0.211503 0.211503 0.977377 284.833 97.7257)" fill="white"/>
<circle r="1.82629" transform="matrix(-0.977377 0.211503 0.211503 0.977377 288.5 103.16)" fill="white"/>
<circle r="1.82629" transform="matrix(-0.977377 0.211503 0.211503 0.977377 287.372 92.1936)" fill="white"/>
<circle r="1.82629" transform="matrix(-0.977377 0.211503 0.211503 0.977377 288.597 109.368)" fill="white"/>
<circle r="1.82629" transform="matrix(-0.977377 0.211503 0.211503 0.977377 283.74 104.19)" fill="white"/>
<circle r="1.82629" transform="matrix(-0.977377 0.211503 0.211503 0.977377 277.018 101.908)" fill="white"/>
<circle r="1.82629" transform="matrix(-0.977377 0.211503 0.211503 0.977377 283.287 90.5862)" fill="white"/>
<circle r="1.82629" transform="matrix(-0.977377 0.211503 0.211503 0.977377 285.054 81.4846)" fill="white"/>
<circle cx="273.152" cy="85.3766" r="1.82629" transform="rotate(49.6323 273.152 85.3766)" fill="white"/>
<circle cx="269.349" cy="86.7893" r="1.82629" transform="rotate(49.6323 269.349 86.7893)" fill="white"/>
<circle cx="271.569" cy="91.2915" r="1.82629" transform="rotate(49.6323 271.569 91.2915)" fill="white"/>
<circle cx="269.998" cy="81.6661" r="1.82629" transform="rotate(49.6323 269.998 81.6661)" fill="white"/>
<circle cx="274.357" cy="81.1561" r="1.82629" transform="rotate(49.6323 274.357 81.1561)" fill="white"/>
<circle r="1.82629" transform="matrix(-0.977377 0.211503 0.211503 0.977377 282 84.6371)" fill="white"/>
<circle r="1.82629" transform="matrix(-0.977377 0.211503 0.211503 0.977377 285.215 76.4673)" fill="white"/>
<circle r="1.82629" transform="matrix(-0.977377 0.211503 0.211503 0.977377 280.872 73.6698)" fill="white"/>
<circle r="1.82629" transform="matrix(-0.977377 0.211503 0.211503 0.977377 278.074 78.0122)" fill="white"/>
<circle r="1.82629" transform="matrix(-0.977377 0.211503 0.211503 0.977377 271.486 99.3684)" fill="white"/>
<path d="M281.902 78.4298C274.682 80.4579 273.758 97.7879 271.152 123.731" stroke="white" stroke-linecap="square"/>
<circle r="1.82629" transform="matrix(-0.823478 0.567348 0.567348 0.823478 254.602 90.1253)" fill="white"/>
<circle r="1.82629" transform="matrix(-0.823478 0.567348 0.567348 0.823478 264.004 86.6044)" fill="white"/>
<circle r="1.82629" transform="matrix(-0.823478 0.567348 0.567348 0.823478 257.053 95.8286)" fill="white"/>
<circle r="1.82629" transform="matrix(-0.823478 0.567348 0.567348 0.823478 258.612 87.3622)" fill="white"/>
<circle r="1.82629" transform="matrix(-0.823478 0.567348 0.567348 0.823478 258.856 81.2798)" fill="white"/>
<circle cx="262.496" cy="94.6014" r="1.82629" transform="rotate(27.2772 262.496 94.6014)" fill="white"/>
<circle cx="251.431" cy="89.5218" r="1.82629" transform="rotate(27.2772 251.431 89.5218)" fill="white"/>
<circle cx="250.114" cy="95.4792" r="1.82629" transform="rotate(27.2772 250.114 95.4792)" fill="white"/>
<circle cx="262.203" cy="75.9801" r="1.82629" transform="rotate(27.2772 262.203 75.9801)" fill="white"/>
<circle cx="248.839" cy="85.0445" r="1.82629" transform="rotate(27.2772 248.839 85.0445)" fill="white"/>
<circle r="1.82629" transform="matrix(-0.823478 0.567348 0.567348 0.823478 255.158 82.3495)" fill="white"/>
<circle r="1.82629" transform="matrix(-0.823478 0.567348 0.567348 0.823478 257.096 76.5789)" fill="white"/>
<circle r="1.82629" transform="matrix(-0.823478 0.567348 0.567348 0.823478 248.298 71.995)" fill="white"/>
<circle cx="252.24" cy="73.8249" r="1.82629" transform="rotate(27.2772 252.24 73.8249)" fill="white"/>
<circle cx="249.186" cy="76.9764" r="1.82629" transform="rotate(27.2772 249.186 76.9764)" fill="white"/>
<circle cx="214.091" cy="83.9001" r="1.82629" transform="rotate(27.2772 214.091 83.9001)" fill="white"/>
<circle cx="250.663" cy="66.5348" r="1.82629" transform="rotate(27.2772 250.663 66.5348)" fill="white"/>
<circle r="1.82629" transform="matrix(-0.823478 0.567348 0.567348 0.823478 256.886 71.3823)" fill="white"/>
<circle r="1.82629" transform="matrix(-0.823478 0.567348 0.567348 0.823478 251.081 80.7232)" fill="white"/>
<circle r="1.82629" transform="matrix(-0.823478 0.567348 0.567348 0.823478 261.182 100.923)" fill="white"/>
<path d="M254.13 73.8511C253.48 81.3243 253.768 97.5347 262.02 125.649" stroke="white" stroke-linecap="square"/>
<path d="M271.436 97.9814L244.538 87.6275L257.58 99.1978C258.961 100.423 260.505 101.451 262.168 102.253L284.11 112.829C283.542 111.298 282.749 109.459 281.942 107.682C279.894 103.173 276.058 99.7604 271.436 97.9814Z" fill="#FE449D"/>
<path d="M246.893 109.471L275.11 121.989L257.762 119.04C256.489 118.823 255.24 118.484 254.033 118.027L230.513 109.121C232.103 108.734 234.198 108.348 236.147 108.024C239.79 107.418 243.517 107.974 246.893 109.471Z" fill="#FE449D"/>
<path d="M203.269 162.285L192.671 189.088L204.359 176.151C205.597 174.781 206.639 173.247 207.456 171.591L218.23 149.747C216.695 150.3 214.848 151.077 213.064 151.867C208.537 153.874 205.09 157.679 203.269 162.285Z" fill="#FE449D"/>
<circle cx="241.499" cy="178.111" r="1.82629" transform="rotate(32.8452 241.499 178.111)" fill="white"/>
<circle cx="231.995" cy="174.875" r="1.82629" transform="rotate(32.8452 231.995 174.875)" fill="white"/>
<circle cx="239.22" cy="183.886" r="1.82629" transform="rotate(32.8452 239.22 183.886)" fill="white"/>
<circle cx="237.408" cy="175.47" r="1.82629" transform="rotate(32.8452 237.408 175.47)" fill="white"/>
<circle cx="236.981" cy="169.398" r="1.82629" transform="rotate(32.8452 236.981 169.398)" fill="white"/>
<circle r="1.82629" transform="matrix(-0.87464 0.484772 0.484772 0.87464 246.747 177.235)" fill="white"/>
<circle r="1.82629" transform="matrix(-0.87464 0.484772 0.484772 0.87464 259.172 153.739)" fill="white"/>
<circle r="1.82629" transform="matrix(-0.87464 0.484772 0.484772 0.87464 246.145 183.328)" fill="white"/>
<circle r="1.82629" transform="matrix(-0.87464 0.484772 0.484772 0.87464 267.165 147.664)" fill="white"/>
<circle r="1.82629" transform="matrix(-0.87464 0.484772 0.484772 0.87464 247.107 172.86)" fill="white"/>
<circle cx="240.709" cy="170.356" r="1.82629" transform="rotate(32.8452 240.709 170.356)" fill="white"/>
<circle cx="238.599" cy="164.646" r="1.82629" transform="rotate(32.8452 238.599 164.646)" fill="white"/>
<circle cx="247.255" cy="159.8" r="1.82629" transform="rotate(32.8452 247.255 159.8)" fill="white"/>
<circle r="1.82629" transform="matrix(-0.87464 0.484772 0.484772 0.87464 243.371 161.747)" fill="white"/>
<circle r="1.82629" transform="matrix(-0.87464 0.484772 0.484772 0.87464 246.518 164.806)" fill="white"/>
<circle r="1.82629" transform="matrix(-0.87464 0.484772 0.484772 0.87464 240.044 146.273)" fill="white"/>
<circle r="1.82629" transform="matrix(-0.87464 0.484772 0.484772 0.87464 244.728 154.413)" fill="white"/>
<circle cx="238.654" cy="159.445" r="1.82629" transform="rotate(32.8452 238.654 159.445)" fill="white"/>
<circle cx="244.736" cy="168.608" r="1.82629" transform="rotate(32.8452 244.736 168.608)" fill="white"/>
<circle cx="237.368" cy="153.016" r="1.82629" transform="rotate(32.8452 237.368 153.016)" fill="white"/>
<path d="M240.468 149.928C241.993 159.18 243.126 179.219 235.15 213.842" stroke="white" stroke-linecap="square"/>
<circle r="1.82629" transform="matrix(-0.978635 0.205605 0.205605 0.978635 257.767 180.552)" fill="white"/>
<circle r="1.82629" transform="matrix(-0.978635 0.205605 0.205605 0.978635 268 173.959)" fill="white"/>
<circle r="1.82629" transform="matrix(-0.978635 0.205605 0.205605 0.978635 257.827 186.76)" fill="white"/>
<circle r="1.82629" transform="matrix(-0.978635 0.205605 0.205605 0.978635 262.533 179.551)" fill="white"/>
<circle r="1.82629" transform="matrix(-0.978635 0.205605 0.205605 0.978635 269.598 156.055)" fill="white"/>
<circle cx="263.322" cy="187.728" r="1.82629" transform="rotate(49.9778 263.322 187.728)" fill="white"/>
<circle cx="255.075" cy="178.772" r="1.82629" transform="rotate(49.9778 255.075 178.772)" fill="white"/>
<circle cx="251.561" cy="183.76" r="1.82629" transform="rotate(49.9778 251.561 183.76)" fill="white"/>
<circle cx="270.239" cy="170.436" r="1.82629" transform="rotate(49.9778 270.239 170.436)" fill="white"/>
<circle cx="254.412" cy="173.641" r="1.82629" transform="rotate(49.9778 254.412 173.641)" fill="white"/>
<circle r="1.82629" transform="matrix(-0.978635 0.205605 0.205605 0.978635 261.281 173.594)" fill="white"/>
<circle r="1.82629" transform="matrix(-0.978635 0.205605 0.205605 0.978635 265.296 169.018)" fill="white"/>
<circle r="1.82629" transform="matrix(-0.978635 0.205605 0.205605 0.978635 258.95 161.394)" fill="white"/>
<circle cx="261.879" cy="164.603" r="1.82629" transform="rotate(49.9778 261.879 164.603)" fill="white"/>
<circle cx="257.845" cy="166.332" r="1.82629" transform="rotate(49.9778 257.845 166.332)" fill="white"/>
<circle cx="232.362" cy="160.903" r="1.82629" transform="rotate(49.9778 232.362 160.903)" fill="white"/>
<circle cx="263.237" cy="157.269" r="1.82629" transform="rotate(49.9778 263.237 157.269)" fill="white"/>
<circle r="1.82629" transform="matrix(-0.978635 0.205605 0.205605 0.978635 267.107 164.143)" fill="white"/>
<circle r="1.82629" transform="matrix(-0.978635 0.205605 0.205605 0.978635 258.147 170.52)" fill="white"/>
<circle r="1.82629" transform="matrix(-0.978635 0.205605 0.205605 0.978635 259.67 193.052)" fill="white"/>
<path d="M266.198 153.445C262.714 160.089 256.724 175.154 253.487 204.275" stroke="white" stroke-linecap="square"/>
<path d="M263.505 191.691L238.792 176.857L249.646 190.502C250.795 191.947 252.139 193.226 253.64 194.302L273.43 208.5C273.135 206.895 272.671 204.947 272.182 203.057C270.941 198.263 267.751 194.24 263.505 191.691Z" fill="#FE449D"/>
<circle cx="134.218" cy="213.905" r="1.82629" transform="rotate(-23.2002 134.218 213.905)" fill="white"/>
<circle cx="123.43" cy="212.001" r="1.82629" transform="rotate(-23.2002 123.43 212.001)" fill="white"/>
<circle r="1.82629" transform="matrix(-0.0864083 0.99626 0.99626 0.0864083 139.381 210.911)" fill="white"/>
<circle r="1.82629" transform="matrix(-0.0864083 0.99626 0.99626 0.0864083 143.3 209.859)" fill="white"/>
<circle r="1.82629" transform="matrix(-0.0864083 0.99626 0.99626 0.0864083 145.855 213.484)" fill="white"/>
<circle r="1.82629" transform="matrix(-0.0864083 0.99626 0.99626 0.0864083 139.802 206.06)" fill="white"/>
<circle r="1.82629" transform="matrix(-0.0864083 0.99626 0.99626 0.0864083 135.953 208.17)" fill="white"/>
<circle cx="128.507" cy="211.366" r="1.82629" transform="rotate(-23.2002 128.507 211.366)" fill="white"/>
<circle cx="127.238" cy="205.02" r="1.82629" transform="rotate(-23.2002 127.238 205.02)" fill="white"/>
<circle cx="135.738" cy="203.126" r="1.82629" transform="rotate(-23.2002 135.738 203.126)" fill="white"/>
<circle cx="131.103" cy="207.762" r="1.82629" transform="rotate(-23.2002 131.103 207.762)" fill="white"/>
<circle cx="123.109" cy="204.565" r="1.82629" transform="rotate(-23.2002 123.109 204.565)" fill="white"/>
<path d="M128.225 210.32C132.005 208.811 135.767 211.285 141.974 214.68" stroke="white" stroke-linecap="square"/>
<circle cx="153.188" cy="205.062" r="1.82629" transform="rotate(-0.845176 153.188 205.062)" fill="white"/>
<circle cx="143.485" cy="207.64" r="1.82629" transform="rotate(-0.845176 143.485 207.64)" fill="white"/>
<circle cx="154.495" cy="211.131" r="1.82629" transform="rotate(-0.845176 154.495 211.131)" fill="white"/>
<circle cx="148.319" cy="205.133" r="1.82629" transform="rotate(-0.845176 148.319 205.133)" fill="white"/>
<circle cx="144.595" cy="200.318" r="1.82629" transform="rotate(-0.845176 144.595 200.318)" fill="white"/>
<circle r="1.82629" transform="matrix(-0.458837 0.888521 0.888521 0.458837 157.069 201.421)" fill="white"/>
<circle r="1.82629" transform="matrix(-0.458837 0.888521 0.888521 0.458837 161.093 201.938)" fill="white"/>
<circle r="1.82629" transform="matrix(-0.458837 0.888521 0.888521 0.458837 159.948 206.825)" fill="white"/>
<circle r="1.82629" transform="matrix(-0.458837 0.888521 0.888521 0.458837 159.304 197.094)" fill="white"/>
<circle r="1.82629" transform="matrix(-0.458837 0.888521 0.888521 0.458837 154.941 197.582)" fill="white"/>
<circle cx="148.229" cy="199.047" r="1.82629" transform="rotate(-0.845176 148.229 199.047)" fill="white"/>
<circle cx="143.306" cy="195.467" r="1.82629" transform="rotate(-0.845176 143.306 195.467)" fill="white"/>
<circle cx="147.82" cy="186.633" r="1.82629" transform="rotate(-0.845176 147.82 186.633)" fill="white"/>
<circle r="1.82629" transform="matrix(-0.458837 0.888521 0.888521 0.458837 145.668 190.408)" fill="white"/>
<circle r="1.82629" transform="matrix(-0.458837 0.888521 0.888521 0.458837 149.983 191.207)" fill="white"/>
<circle r="1.82629" transform="matrix(-0.458837 0.888521 0.888521 0.458837 134.317 179.378)" fill="white"/>
<circle r="1.82629" transform="matrix(-0.458837 0.888521 0.888521 0.458837 142.73 183.553)" fill="white"/>
<circle cx="140.466" cy="191.109" r="1.82629" transform="rotate(-0.845176 140.466 191.109)" fill="white"/>
<circle cx="150.61" cy="195.359" r="1.82629" transform="rotate(-0.845176 150.61 195.359)" fill="white"/>
<circle cx="135.83" cy="186.473" r="1.82629" transform="rotate(-0.845176 135.83 186.473)" fill="white"/>
<path d="M136.697 182.184C141.462 186.222 150.432 195.685 159.743 215.314" stroke="white" stroke-linecap="square"/>
<ellipse rx="1.4828" ry="1.41585" transform="matrix(-0.919134 0.393946 0.393946 0.919134 191.062 187.614)" fill="white"/>
<ellipse rx="1.4828" ry="1.41585" transform="matrix(-0.919134 0.393946 0.393946 0.919134 193.294 192.819)" fill="white"/>
<ellipse rx="1.4828" ry="1.41585" transform="matrix(-0.919134 0.393946 0.393946 0.919134 198.043 193.864)" fill="white"/>
<ellipse rx="1.4828" ry="1.41585" transform="matrix(-0.919134 0.393946 0.393946 0.919134 201.719 197.422)" fill="white"/>
<ellipse rx="1.4828" ry="1.41585" transform="matrix(-0.919134 0.393946 0.393946 0.919134 199.281 189.225)" fill="white"/>
<ellipse rx="1.4828" ry="1.41585" transform="matrix(-0.919134 0.393946 0.393946 0.919134 202.67 202.149)" fill="white"/>
<ellipse rx="1.4828" ry="1.41585" transform="matrix(-0.919134 0.393946 0.393946 0.919134 198.085 198.98)" fill="white"/>
<ellipse rx="1.4828" ry="1.41585" transform="matrix(-0.919134 0.393946 0.393946 0.919134 192.426 198.324)" fill="white"/>
<ellipse rx="1.4828" ry="1.41585" transform="matrix(-0.919134 0.393946 0.393946 0.919134 195.812 188.658)" fill="white"/>
<ellipse rx="1.4828" ry="1.41585" transform="matrix(-0.919134 0.393946 0.393946 0.919134 195.935 181.418)" fill="white"/>
<ellipse rx="1.43103" ry="1.46815" transform="matrix(0.793065 0.609138 -0.639166 0.769069 187.032 186.319)" fill="white"/>
<ellipse rx="1.43103" ry="1.46815" transform="matrix(0.793065 0.609138 -0.639166 0.769069 184.211 188.014)" fill="white"/>
<ellipse rx="1.43103" ry="1.46815" transform="matrix(0.793065 0.609138 -0.639166 0.769069 186.607 191.095)" fill="white"/>
<ellipse rx="1.43103" ry="1.46815" transform="matrix(0.793065 0.609138 -0.639166 0.769069 184.006 183.994)" fill="white"/>
<ellipse rx="1.43103" ry="1.46815" transform="matrix(0.793065 0.609138 -0.639166 0.769069 187.396 182.899)" fill="white"/>
<ellipse rx="1.4828" ry="1.41585" transform="matrix(-0.919134 0.393946 0.393946 0.919134 193.953 184.321)" fill="white"/>
<ellipse rx="1.4828" ry="1.41585" transform="matrix(-0.919134 0.393946 0.393946 0.919134 195.356 177.558)" fill="white"/>
<ellipse rx="1.4828" ry="1.41585" transform="matrix(-0.919134 0.393946 0.393946 0.919134 191.515 176.124)" fill="white"/>
<ellipse rx="1.4828" ry="1.41585" transform="matrix(-0.919134 0.393946 0.393946 0.919134 189.904 179.895)" fill="white"/>
<ellipse rx="1.4828" ry="1.41585" transform="matrix(-0.919134 0.393946 0.393946 0.919134 187.677 197.28)" fill="white"/>
<path d="M193.002 179.594C187.555 182.313 189.259 195.704 190.839 215.949" stroke="white" stroke-linecap="square"/>
<circle r="1.82629" transform="matrix(-0.700221 0.713926 0.713926 0.700221 168.078 198.066)" fill="white"/>
<circle r="1.82629" transform="matrix(-0.700221 0.713926 0.713926 0.700221 176.636 192.818)" fill="white"/>
<circle r="1.82629" transform="matrix(-0.700221 0.713926 0.713926 0.700221 171.571 203.198)" fill="white"/>
<circle r="1.82629" transform="matrix(-0.700221 0.713926 0.713926 0.700221 171.488 194.59)" fill="white"/>
<circle r="1.82629" transform="matrix(-0.700221 0.713926 0.713926 0.700221 170.568 188.572)" fill="white"/>
<circle cx="176.68" cy="200.956" r="1.82629" transform="rotate(16.2875 176.68 200.956)" fill="white"/>
<circle cx="164.851" cy="198.079" r="1.82629" transform="rotate(16.2875 164.851 198.079)" fill="white"/>
<circle cx="164.693" cy="204.178" r="1.82629" transform="rotate(16.2875 164.693 204.178)" fill="white"/>
<circle cx="172.843" cy="182.732" r="1.82629" transform="rotate(16.2875 172.843 182.732)" fill="white"/>
<circle cx="161.452" cy="194.178" r="1.82629" transform="rotate(16.2875 161.452 194.178)" fill="white"/>
<circle r="1.82629" transform="matrix(-0.700221 0.713926 0.713926 0.700221 167.142 190.327)" fill="white"/>
<circle r="1.82629" transform="matrix(-0.700221 0.713926 0.713926 0.700221 167.944 184.293)" fill="white"/>
<circle r="1.82629" transform="matrix(-0.700221 0.713926 0.713926 0.700221 158.434 181.47)" fill="white"/>
<circle cx="162.652" cy="182.515" r="1.82629" transform="rotate(16.2875 162.652 182.515)" fill="white"/>
<circle cx="160.254" cy="186.192" r="1.82629" transform="rotate(16.2875 160.254 186.192)" fill="white"/>
<circle cx="127.123" cy="199.678" r="1.82629" transform="rotate(16.2875 127.123 199.678)" fill="white"/>
<circle cx="159.714" cy="175.66" r="1.82629" transform="rotate(16.2875 159.714 175.66)" fill="white"/>
<circle r="1.82629" transform="matrix(-0.700221 0.713926 0.713926 0.700221 166.747 179.231)" fill="white"/>
<circle r="1.82629" transform="matrix(-0.700221 0.713926 0.713926 0.700221 162.829 189.508)" fill="white"/>
<circle r="1.82629" transform="matrix(-0.700221 0.713926 0.713926 0.700221 176.595 207.412)" fill="white"/>
<path d="M164.512 182.182C164.788 187.355 166.556 198.291 174.974 215.948" stroke="white" stroke-linecap="square"/>
<path d="M179.112 72.0817L188.782 101.397L179.32 86.5613C178.625 85.4726 178.038 84.3193 177.566 83.1174L168.373 59.7083C169.728 60.6262 171.42 61.9201 172.969 63.1468C175.864 65.4394 177.955 68.5747 179.112 72.0817Z" fill="#FE449D"/>
</svg>
