<svg width="324" height="309" viewBox="0 0 324 309" fill="none" xmlns="http://www.w3.org/2000/svg">
<rect x="96.8506" y="17.2947" width="107.227" height="93.3916" fill="#FFF3FC"/>
<path fill-rule="evenodd" clip-rule="evenodd" d="M196.212 7.59399C188.714 11.9193 164.246 15.0898 135.219 15.0898C106.192 15.0898 81.7242 11.9193 74.2262 7.59399C72.6855 8.48276 71.8613 9.42029 71.8613 10.3891C71.8613 16.0726 100.228 20.68 135.219 20.68C170.211 20.68 198.577 16.0726 198.577 10.3891C198.577 9.42029 197.753 8.48276 196.212 7.59399Z" fill="#FFE5F9"/>
<path d="M125.273 153.999L198.192 5.03973L263.138 3.52136L323.357 283.391L270.913 300.125L210.332 108.893L211.847 142.696L223.47 252.604L209.314 253.239L129.879 256.798L125.273 153.999Z" fill="#FFE6F9"/>
<path d="M120.967 186.407L221.564 16.1418L227.832 19.8977L120.967 186.407Z" fill="#FFD8F6"/>
<path d="M149.53 128.049L203.919 17.2949L215.476 23.2269L149.53 128.049Z" fill="#FFD8F6"/>
<path d="M169.488 155.025L99.3313 8.07129L42.0248 9.47531L0 294.492L46.8872 309L92.7324 113.373V147.537L86.8281 258.923H99.3313H169.488V155.025Z" fill="#FFE6F9"/>
<path d="M171.588 177.05L59.6834 19.7351L74.2352 8.07084L171.588 177.05Z" fill="#FFD8F6"/>
<path d="M153.807 148.305L70.3318 63.5219L78.7507 54.1903L153.807 148.305Z" fill="#FFD8F6"/>
<ellipse cx="166.606" cy="185.63" rx="6.3414" ry="6.9179" fill="#F7DBF0"/>
<circle cx="166.606" cy="218.49" r="6.3414" fill="#F7DBF0"/>
<circle cx="166.606" cy="238.091" r="6.3414" fill="#F7DBF0"/>
<circle cx="166.606" cy="202.348" r="6.3414" fill="#F7DBF0"/>
<line x1="166.851" y1="178.535" x2="206.337" y2="174.756" stroke="#FFD8F6"/>
<line x1="95.7233" y1="174.754" x2="169.719" y2="178.533" stroke="#FFD8F6"/>
</svg>
