<svg width="1440" height="1024" viewBox="0 0 1440 1024" fill="none" xmlns="http://www.w3.org/2000/svg">
<g clip-path="url(#clip0)">
<rect width="1440" height="1024" fill="#121212"/>
<path d="M-492.824 1150.91L231.202 1491.71L989.774 1621.02L583.416 1196.59C583.416 1196.59 2033.55 1013.44 973.298 832.372C-86.9546 651.308 624.777 429.017 247.667 332.484C-132.727 235.11 -427.964 277.025 -638.446 425.289C-901.221 610.388 -713.181 837.673 -492.824 1150.91Z" fill="url(#paint0_linear)"/>
<path d="M-348.153 1141.75L375.873 1482.56L1134.45 1611.87L728.087 1187.43C728.087 1187.43 2178.22 1004.28 1117.97 823.213C57.7165 642.149 769.448 419.858 392.338 323.325C11.9446 225.951 -283.292 267.866 -493.775 416.131C-756.55 601.229 -568.51 828.514 -348.153 1141.75Z" fill="url(#paint1_linear)"/>
<path d="M1175.15 199.621C2261.7 148.441 1454.5 389.181 1683.63 372.361C1867.75 358.845 2094.7 206.547 2094.7 206.547L1787.5 8.39684C1787.5 8.39684 2566.91 -411.722 1938.27 -313.678C1309.62 -215.633 1667.45 -509.735 1437.86 -496.197C1206.27 -482.541 1048.45 -393.935 958.026 -252.168C845.142 -75.1801 88.5974 250.802 1175.15 199.621Z" fill="url(#paint2_linear)"/>
<path d="M1023.15 250.621C2109.7 199.441 1302.5 440.181 1531.63 423.361C1715.75 409.845 1942.7 257.547 1942.7 257.547L1635.5 59.3968C1635.5 59.3968 2414.91 -360.722 1786.27 -262.678C1157.62 -164.633 1515.45 -458.735 1285.86 -445.197C1054.27 -431.541 896.447 -342.935 806.026 -201.168C693.142 -24.1801 -63.4026 301.802 1023.15 250.621Z" fill="url(#paint3_linear)"/>
</g>
<defs>
<linearGradient id="paint0_linear" x1="67.7468" y1="1450.43" x2="343.967" y2="356.806" gradientUnits="userSpaceOnUse">
<stop stop-color="#4E0FD3"/>
<stop offset="0.442708" stop-color="#4C146D" stop-opacity="0.86276"/>
<stop offset="1" stop-color="#B809A6" stop-opacity="0.69"/>
</linearGradient>
<linearGradient id="paint1_linear" x1="212.418" y1="1441.27" x2="488.638" y2="347.647" gradientUnits="userSpaceOnUse">
<stop stop-color="#4E0FD3"/>
<stop offset="0.442708" stop-color="#4C146D" stop-opacity="0.86276"/>
<stop offset="1" stop-color="#B809A6" stop-opacity="0.69"/>
</linearGradient>
<linearGradient id="paint2_linear" x1="1545.56" y1="283.088" x2="1496.43" y2="-499.872" gradientUnits="userSpaceOnUse">
<stop stop-color="#4E0FD3"/>
<stop offset="0.442708" stop-color="#4C146D" stop-opacity="0.86276"/>
<stop offset="1" stop-color="#B809A6" stop-opacity="0.69"/>
</linearGradient>
<linearGradient id="paint3_linear" x1="1393.56" y1="334.088" x2="1344.43" y2="-448.872" gradientUnits="userSpaceOnUse">
<stop stop-color="#4E0FD3"/>
<stop offset="0.442708" stop-color="#4C146D" stop-opacity="0.86276"/>
<stop offset="1" stop-color="#B809A6" stop-opacity="0.69"/>
</linearGradient>
<clipPath id="clip0">
<rect width="1440" height="1024" fill="white"/>
</clipPath>
</defs>
</svg>
