<svg width="1440" height="1024" viewBox="0 0 1440 1024" fill="none" xmlns="http://www.w3.org/2000/svg">
<g clip-path="url(#clip0)">
<rect width="1440" height="1024" fill="white"/>
<path d="M-296.31 -303.557C-109.618 -338.341 296.518 -434.417 349.766 -740.74C348.668 -753.415 350.195 -767.305 354.702 -782.49C353.776 -768.156 352.114 -754.244 349.766 -740.74C365.132 -563.411 894.197 -623.665 960.702 -696.887C1135.96 -889.852 894.085 -267.016 677.691 21.9783C463.164 308.478 112.21 -88.7641 26.1461 483.701C-59.9179 1056.17 -82.8671 100.674 -82.8671 100.674L-557.557 318.045C-557.557 318.045 -537.27 -258.661 -296.31 -303.557Z" fill="url(#paint0_linear)"/>
<path d="M-278.31 -196.557C-83.3881 -232.875 350.753 -336.007 372.702 -675.49C305.133 -447.863 907.443 -511.431 978.702 -589.887C1153.96 -782.852 912.085 -160.016 695.691 128.978C481.164 415.478 130.21 18.2359 44.1461 590.701C-41.9179 1163.17 -64.8671 207.674 -64.8671 207.674L-539.557 425.045C-539.557 425.045 -519.27 -151.661 -278.31 -196.557Z" stroke="#4D1295"/>
<path d="M-278.31 43.4434C-83.3881 7.12541 350.753 -96.0068 372.702 -435.49C305.133 -207.863 907.443 -271.431 978.702 -349.887C1153.96 -542.852 912.085 79.9842 695.691 368.978C481.164 655.477 130.21 258.236 44.1461 830.701C-41.9179 1403.17 -64.8671 447.674 -64.8671 447.674L-539.557 665.045C-539.557 665.045 -519.27 88.3392 -278.31 43.4434Z" stroke="#4E0FD3"/>
<path d="M773.75 1717.94L1506.57 1396.47L2102.74 909.923L1515.76 937.048C1515.76 937.048 2331.19 -276.014 1497.67 403.82C664.158 1083.65 167.14 594.886 425 886.5C841.565 1357.59 157.94 1094.52 131.268 1350.59C97.9691 1670.28 392.854 1678.03 773.75 1717.94Z" fill="url(#paint1_linear)"/>
<path d="M597.77 1645.62L1330.59 1324.15L1926.76 837.599L1339.78 864.725C1339.78 864.725 2155.21 -348.337 1321.69 331.497C488.179 1011.33 -8.83945 522.563 249.021 814.177C665.586 1285.27 -18.0397 1022.19 -44.7119 1278.27C-78.0104 1597.96 216.875 1605.71 597.77 1645.62Z" stroke="#4E0FD3"/>
<path d="M543.77 1714.62L1276.59 1393.15L1872.76 906.599L1285.78 933.725C1285.78 933.725 2101.21 -279.337 1267.69 400.497C434.179 1080.33 -62.8394 591.563 195.021 883.177C611.586 1354.27 -72.0397 1091.19 -98.7119 1347.27C-132.01 1666.96 162.875 1674.71 543.77 1714.62Z" stroke="#4E0FD3"/>
</g>
<defs>
<linearGradient id="paint0_linear" x1="-82.7723" y1="-401.092" x2="645.018" y2="140.691" gradientUnits="userSpaceOnUse">
<stop stop-color="#4E0FD3"/>
<stop offset="0.442708" stop-color="#4C146D" stop-opacity="0.86276"/>
<stop offset="1" stop-color="#B809A6" stop-opacity="0.69"/>
</linearGradient>
<linearGradient id="paint1_linear" x1="1367.99" y1="1492.49" x2="725.575" y2="565.338" gradientUnits="userSpaceOnUse">
<stop stop-color="#4E0FD3"/>
<stop offset="0.442708" stop-color="#4C146D" stop-opacity="0.86276"/>
<stop offset="1" stop-color="#B809A6" stop-opacity="0.69"/>
</linearGradient>
<clipPath id="clip0">
<rect width="1440" height="1024" fill="white"/>
</clipPath>
</defs>
</svg>
